<?xml version="1.0" encoding="UTF-8"?>
<svg xmlns="http://www.w3.org/2000/svg" xmlns:xlink="http://www.w3.org/1999/xlink" width="720pt" height="432pt" viewBox="0 0 720 432" version="1.1">
<defs>
<clipPath id="clip1">
  <path d="M 17.808594 14.945313 L 346.054688 14.945313 L 346.054688 415.191406 L 17.808594 415.191406 Z M 17.808594 14.945313 "/>
</clipPath>
<clipPath id="clip2">
  <path d="M 377.808594 50.945313 L 706.054688 50.945313 L 706.054688 379.191406 L 377.808594 379.191406 Z M 377.808594 50.945313 "/>
</clipPath>
</defs>
<g id="surface1">
<rect x="0" y="0" width="720" height="432" style="fill:rgb(100%,100%,100%);fill-opacity:1;stroke:none;"/>
<g clip-path="url(#clip1)" clip-rule="nonzero">
<path style=" stroke:none;fill-rule:nonzero;fill:rgb(0%,0%,1.568627%);fill-opacity:1;" d="M 24.625 396.042969 L 65.53125 396.042969 L 65.53125 192.394531 L 24.625 192.394531 Z M 24.625 396.042969 "/>
<path style=" stroke:none;fill-rule:nonzero;fill:rgb(11.764706%,4.705882%,26.666667%);fill-opacity:1;" d="M 70.078125 396.042969 L 110.984375 396.042969 L 110.984375 177.613281 L 70.078125 177.613281 Z M 70.078125 396.042969 "/>
<path style=" stroke:none;fill-rule:nonzero;fill:rgb(31.372549%,5.490196%,42.352941%);fill-opacity:1;" d="M 115.527344 396.042969 L 156.433594 396.042969 L 156.433594 148.054688 L 115.527344 148.054688 Z M 115.527344 396.042969 "/>
<path style=" stroke:none;fill-rule:nonzero;fill:rgb(49.803922%,11.764706%,42.352941%);fill-opacity:1;" d="M 160.980469 396.042969 L 201.886719 396.042969 L 201.886719 33.089844 L 160.980469 33.089844 Z M 160.980469 396.042969 "/>
<path style=" stroke:none;fill-rule:nonzero;fill:rgb(68.235294%,18.823529%,36.078431%);fill-opacity:1;" d="M 206.429688 396.042969 L 247.335938 396.042969 L 247.335938 59.367188 L 206.429688 59.367188 Z M 206.429688 396.042969 "/>
<path style=" stroke:none;fill-rule:nonzero;fill:rgb(84.705882%,29.803922%,24.313725%);fill-opacity:1;" d="M 251.882813 396.042969 L 292.789063 396.042969 L 292.789063 195.679688 L 251.882813 195.679688 Z M 251.882813 396.042969 "/>
<path style=" stroke:none;fill-rule:nonzero;fill:rgb(95.294118%,46.666667%,10.196078%);fill-opacity:1;" d="M 297.332031 396.042969 L 338.238281 396.042969 L 338.238281 146.410156 L 297.332031 146.410156 Z M 297.332031 396.042969 "/>
</g>
<g clip-path="url(#clip2)" clip-rule="nonzero">
<path style=" stroke:none;fill-rule:nonzero;fill:rgb(95.294118%,46.666667%,10.196078%);fill-opacity:1;" d="M 541.433594 214.566406 L 555.136719 202.816406 L 558.566406 199.875 L 572.269531 188.125 L 575.695313 185.183594 L 579.125 182.246094 L 589.402344 173.433594 L 592.828125 170.492188 L 596.253906 167.554688 L 599.683594 164.617188 L 606.535156 158.742188 L 609.960938 155.800781 L 616.8125 149.925781 L 620.242188 146.988281 L 627.09375 141.113281 L 630.519531 138.171875 L 633.945313 135.234375 L 637.375 132.296875 L 640.800781 129.359375 L 637.804688 125.984375 L 634.691406 122.714844 L 631.472656 119.554688 L 628.140625 116.507813 L 624.710938 113.574219 L 621.179688 110.765625 L 617.554688 108.078125 L 613.835938 105.515625 L 610.035156 103.085938 L 606.152344 100.789063 L 602.191406 98.625 L 598.160156 96.597656 L 594.058594 94.714844 L 589.894531 92.96875 L 585.675781 91.371094 L 581.402344 89.921875 L 577.082031 88.617188 L 572.71875 87.460938 L 568.316406 86.460938 L 563.886719 85.609375 L 559.425781 84.910156 L 554.949219 84.367188 L 550.453125 83.980469 L 545.945313 83.746094 L 541.433594 83.667969 Z M 541.433594 214.566406 "/>
<path style=" stroke:none;fill-rule:nonzero;fill:rgb(84.705882%,29.803922%,24.313725%);fill-opacity:1;" d="M 541.433594 214.566406 L 545.945313 214.492188 L 550.457031 214.414063 L 554.972656 214.335938 L 559.484375 214.261719 L 563.996094 214.183594 L 568.511719 214.105469 L 573.023438 214.03125 L 577.535156 213.953125 L 582.050781 213.875 L 586.5625 213.800781 L 591.078125 213.722656 L 595.589844 213.644531 L 600.101563 213.570313 L 604.617188 213.492188 L 609.128906 213.417969 L 613.640625 213.339844 L 618.15625 213.261719 L 622.667969 213.1875 L 627.179688 213.109375 L 631.695313 213.03125 L 636.207031 212.957031 L 640.71875 212.878906 L 645.234375 212.800781 L 649.746094 212.726563 L 654.261719 212.648438 L 658.773438 212.570313 L 663.285156 212.496094 L 667.800781 212.417969 L 672.3125 212.339844 L 672.15625 207.816406 L 671.84375 203.300781 L 671.378906 198.796875 L 670.753906 194.3125 L 669.976563 189.851563 L 669.042969 185.417969 L 667.960938 181.023438 L 666.722656 176.667969 L 665.339844 172.355469 L 663.804688 168.097656 L 662.125 163.894531 L 660.300781 159.75 L 658.332031 155.671875 L 656.226563 151.664063 L 653.980469 147.730469 L 651.601563 143.878906 L 649.09375 140.109375 L 646.453125 136.429688 L 643.6875 132.847656 L 640.800781 129.359375 L 637.375 132.296875 L 633.945313 135.234375 L 630.519531 138.171875 L 627.09375 141.113281 L 620.242188 146.988281 L 616.8125 149.925781 L 609.960938 155.800781 L 606.535156 158.742188 L 599.683594 164.617188 L 596.253906 167.554688 L 592.828125 170.492188 L 589.402344 173.433594 L 579.125 182.246094 L 575.695313 185.183594 L 572.269531 188.125 L 558.566406 199.875 L 555.136719 202.816406 Z M 541.433594 214.566406 "/>
<path style=" stroke:none;fill-rule:nonzero;fill:rgb(68.235294%,18.823529%,36.078431%);fill-opacity:1;" d="M 541.433594 214.566406 L 543.292969 218.679688 L 545.15625 222.792969 L 547.019531 226.902344 L 548.882813 231.015625 L 550.742188 235.125 L 552.605469 239.238281 L 554.46875 243.347656 L 558.195313 251.574219 L 560.054688 255.683594 L 561.917969 259.796875 L 563.78125 263.90625 L 565.644531 268.019531 L 567.503906 272.132813 L 569.367188 276.242188 L 571.230469 280.355469 L 573.09375 284.464844 L 574.953125 288.578125 L 576.816406 292.6875 L 580.542969 300.914063 L 582.40625 305.023438 L 584.265625 309.136719 L 586.128906 313.246094 L 587.992188 317.359375 L 589.855469 321.46875 L 591.714844 325.582031 L 593.578125 329.695313 L 595.441406 333.804688 L 599.484375 331.890625 L 603.460938 329.835938 L 607.367188 327.648438 L 611.195313 325.328125 L 614.9375 322.878906 L 618.597656 320.304688 L 622.167969 317.601563 L 625.644531 314.78125 L 629.019531 311.847656 L 632.292969 308.792969 L 635.460938 305.632813 L 638.519531 302.367188 L 641.464844 298.996094 L 644.292969 295.527344 L 647 291.964844 L 649.582031 288.308594 L 652.042969 284.570313 L 654.371094 280.746094 L 656.566406 276.847656 L 658.628906 272.875 L 660.550781 268.835938 L 662.339844 264.730469 L 663.980469 260.570313 L 665.484375 256.351563 L 666.839844 252.085938 L 668.046875 247.777344 L 669.109375 243.429688 L 670.023438 239.050781 L 670.785156 234.640625 L 671.394531 230.207031 L 671.851563 225.753906 L 672.160156 221.289063 L 672.3125 216.816406 L 672.3125 212.339844 L 667.800781 212.417969 L 663.285156 212.496094 L 658.773438 212.570313 L 654.261719 212.648438 L 649.746094 212.726563 L 645.234375 212.800781 L 640.71875 212.878906 L 636.207031 212.957031 L 631.695313 213.03125 L 627.179688 213.109375 L 622.667969 213.1875 L 618.15625 213.261719 L 613.640625 213.339844 L 609.128906 213.417969 L 604.617188 213.492188 L 600.101563 213.570313 L 595.589844 213.644531 L 591.078125 213.722656 L 586.5625 213.800781 L 582.050781 213.875 L 577.535156 213.953125 L 573.023438 214.03125 L 568.511719 214.105469 L 563.996094 214.183594 L 559.484375 214.261719 L 554.972656 214.335938 L 550.457031 214.414063 L 545.945313 214.492188 Z M 541.433594 214.566406 "/>
<path style=" stroke:none;fill-rule:nonzero;fill:rgb(49.803922%,11.764706%,42.352941%);fill-opacity:1;" d="M 541.433594 214.566406 L 538.109375 217.621094 L 534.78125 220.675781 L 531.457031 223.726563 L 528.132813 226.78125 L 524.808594 229.832031 L 518.160156 235.941406 L 514.835938 238.992188 L 511.511719 242.046875 L 508.1875 245.097656 L 501.539063 251.207031 L 498.214844 254.257813 L 494.890625 257.3125 L 491.5625 260.363281 L 484.914063 266.472656 L 481.589844 269.523438 L 478.265625 272.578125 L 474.941406 275.628906 L 468.292969 281.738281 L 464.96875 284.789063 L 461.644531 287.84375 L 458.320313 290.894531 L 454.996094 293.949219 L 451.667969 297.003906 L 448.34375 300.054688 L 445.019531 303.109375 L 448.074219 306.324219 L 451.234375 309.429688 L 454.5 312.429688 L 457.863281 315.320313 L 461.324219 318.089844 L 464.875 320.746094 L 468.515625 323.277344 L 472.238281 325.683594 L 476.039063 327.964844 L 479.917969 330.113281 L 483.867188 332.128906 L 487.878906 334.011719 L 491.957031 335.757813 L 496.089844 337.363281 L 500.273438 338.828125 L 504.503906 340.148438 L 508.777344 341.328125 L 513.089844 342.363281 L 517.433594 343.25 L 521.804688 343.988281 L 526.199219 344.578125 L 530.609375 345.019531 L 535.035156 345.3125 L 539.464844 345.453125 L 543.898438 345.445313 L 548.332031 345.285156 L 552.753906 344.976563 L 557.164063 344.519531 L 561.554688 343.910156 L 565.921875 343.15625 L 570.261719 342.253906 L 574.570313 341.203125 L 578.839844 340.007813 L 583.066406 338.667969 L 587.246094 337.1875 L 591.371094 335.566406 L 595.441406 333.804688 L 593.578125 329.695313 L 591.714844 325.582031 L 589.855469 321.46875 L 587.992188 317.359375 L 586.128906 313.246094 L 584.265625 309.136719 L 582.40625 305.023438 L 580.542969 300.914063 L 576.816406 292.6875 L 574.953125 288.578125 L 573.09375 284.464844 L 571.230469 280.355469 L 569.367188 276.242188 L 567.503906 272.132813 L 565.644531 268.019531 L 563.78125 263.90625 L 561.917969 259.796875 L 560.054688 255.683594 L 558.195313 251.574219 L 554.46875 243.347656 L 552.605469 239.238281 L 550.742188 235.125 L 548.882813 231.015625 L 547.019531 226.902344 L 545.15625 222.792969 L 543.292969 218.679688 Z M 541.433594 214.566406 "/>
<path style=" stroke:none;fill-rule:nonzero;fill:rgb(31.372549%,5.490196%,42.352941%);fill-opacity:1;" d="M 541.433594 214.566406 L 536.949219 214.058594 L 532.460938 213.546875 L 523.492188 212.523438 L 519.007813 212.015625 L 501.070313 209.96875 L 496.585938 209.460938 L 492.101563 208.949219 L 487.613281 208.4375 L 483.128906 207.925781 L 478.644531 207.417969 L 460.707031 205.371094 L 456.222656 204.863281 L 447.253906 203.839844 L 442.765625 203.328125 L 438.28125 202.820313 L 424.828125 201.285156 L 420.34375 200.777344 L 411.375 199.753906 L 410.941406 204.214844 L 410.664063 208.691406 L 410.539063 213.171875 L 410.570313 217.65625 L 410.75 222.136719 L 411.085938 226.605469 L 411.578125 231.0625 L 412.21875 235.5 L 413.011719 239.910156 L 413.953125 244.296875 L 415.046875 248.644531 L 416.285156 252.949219 L 417.675781 257.214844 L 419.207031 261.425781 L 420.882813 265.585938 L 422.703125 269.683594 L 424.660156 273.71875 L 426.753906 277.679688 L 428.980469 281.570313 L 431.34375 285.382813 L 433.832031 289.109375 L 436.449219 292.753906 L 439.1875 296.300781 L 442.046875 299.753906 L 445.019531 303.109375 L 448.34375 300.054688 L 451.667969 297.003906 L 454.996094 293.949219 L 458.320313 290.894531 L 461.644531 287.84375 L 464.96875 284.789063 L 468.292969 281.738281 L 474.941406 275.628906 L 478.265625 272.578125 L 481.589844 269.523438 L 484.914063 266.472656 L 491.5625 260.363281 L 494.890625 257.3125 L 498.214844 254.257813 L 501.539063 251.207031 L 508.1875 245.097656 L 511.511719 242.046875 L 514.835938 238.992188 L 518.160156 235.941406 L 524.808594 229.832031 L 528.132813 226.78125 L 531.457031 223.726563 L 534.78125 220.675781 L 538.109375 217.621094 Z M 541.433594 214.566406 "/>
<path style=" stroke:none;fill-rule:nonzero;fill:rgb(11.764706%,4.705882%,26.666667%);fill-opacity:1;" d="M 541.433594 214.566406 L 538.511719 211.125 L 535.59375 207.683594 L 532.675781 204.238281 L 529.757813 200.796875 L 526.839844 197.351563 L 523.917969 193.910156 L 521 190.464844 L 515.164063 183.582031 L 512.246094 180.136719 L 509.324219 176.695313 L 506.40625 173.25 L 503.488281 169.808594 L 500.570313 166.363281 L 497.648438 162.921875 L 494.730469 159.480469 L 491.8125 156.035156 L 488.894531 152.59375 L 485.976563 149.148438 L 483.054688 145.707031 L 480.136719 142.261719 L 474.300781 135.378906 L 471.382813 131.933594 L 468.460938 128.492188 L 465.542969 125.046875 L 462.625 121.605469 L 459.707031 118.160156 L 456.789063 114.71875 L 453.414063 117.679688 L 450.144531 120.753906 L 446.984375 123.9375 L 443.933594 127.226563 L 440.996094 130.621094 L 438.179688 134.113281 L 435.480469 137.699219 L 432.910156 141.375 L 430.464844 145.136719 L 428.148438 148.980469 L 425.96875 152.902344 L 423.921875 156.898438 L 422.015625 160.957031 L 420.246094 165.082031 L 418.621094 169.265625 L 417.140625 173.503906 L 415.808594 177.785156 L 414.621094 182.113281 L 413.582031 186.480469 L 412.695313 190.878906 L 411.957031 195.304688 L 411.375 199.753906 L 420.34375 200.777344 L 424.828125 201.285156 L 438.28125 202.820313 L 442.765625 203.328125 L 447.253906 203.839844 L 456.222656 204.863281 L 460.707031 205.371094 L 478.644531 207.417969 L 483.128906 207.925781 L 487.613281 208.4375 L 492.101563 208.949219 L 496.585938 209.460938 L 501.070313 209.96875 L 519.007813 212.015625 L 523.492188 212.523438 L 532.460938 213.546875 L 536.949219 214.058594 Z M 541.433594 214.566406 "/>
<path style=" stroke:none;fill-rule:nonzero;fill:rgb(0%,0%,1.568627%);fill-opacity:1;" d="M 541.433594 214.566406 L 541.433594 83.667969 L 536.832031 83.75 L 532.234375 83.992188 L 527.652344 84.394531 L 523.082031 84.960938 L 518.539063 85.6875 L 514.023438 86.570313 L 509.539063 87.613281 L 505.097656 88.8125 L 500.699219 90.167969 L 496.351563 91.675781 L 492.058594 93.335938 L 487.828125 95.148438 L 483.664063 97.105469 L 479.570313 99.207031 L 475.554688 101.453125 L 471.617188 103.839844 L 467.769531 106.363281 L 464.011719 109.019531 L 460.347656 111.804688 L 456.789063 114.71875 L 459.707031 118.160156 L 462.625 121.605469 L 465.542969 125.046875 L 468.460938 128.492188 L 471.382813 131.933594 L 474.300781 135.378906 L 480.136719 142.261719 L 483.054688 145.707031 L 485.976563 149.148438 L 488.894531 152.59375 L 491.8125 156.035156 L 494.730469 159.480469 L 497.648438 162.921875 L 500.570313 166.363281 L 503.488281 169.808594 L 506.40625 173.25 L 509.324219 176.695313 L 512.246094 180.136719 L 515.164063 183.582031 L 521 190.464844 L 523.917969 193.910156 L 526.839844 197.351563 L 529.757813 200.796875 L 532.675781 204.238281 L 535.59375 207.683594 L 538.511719 211.125 Z M 541.433594 214.566406 "/>
</g>
</g>
</svg>
