<?xml version="1.0" encoding="UTF-8"?>
<svg xmlns="http://www.w3.org/2000/svg" xmlns:xlink="http://www.w3.org/1999/xlink" width="720pt" height="432pt" viewBox="0 0 720 432" version="1.1">
<defs>
<clipPath id="clip1">
  <path d="M 17.808594 14.945313 L 346.054688 14.945313 L 346.054688 415.191406 L 17.808594 415.191406 Z M 17.808594 14.945313 "/>
</clipPath>
<clipPath id="clip2">
  <path d="M 377.808594 50.945313 L 706.054688 50.945313 L 706.054688 379.191406 L 377.808594 379.191406 Z M 377.808594 50.945313 "/>
</clipPath>
</defs>
<g id="surface6">
<rect x="0" y="0" width="720" height="432" style="fill:rgb(100%,100%,100%);fill-opacity:1;stroke:none;"/>
<g clip-path="url(#clip1)" clip-rule="nonzero">
<path style=" stroke:none;fill-rule:nonzero;fill:rgb(0%,0%,1.568627%);fill-opacity:1;" d="M 21.039063 396.042969 L 40.414063 396.042969 L 40.414063 192.394531 L 21.039063 192.394531 Z M 21.039063 396.042969 "/>
<path style=" stroke:none;fill-rule:nonzero;fill:rgb(5.098039%,3.137255%,16.470588%);fill-opacity:1;" d="M 42.566406 396.042969 L 61.941406 396.042969 L 61.941406 276.152344 L 42.566406 276.152344 Z M 42.566406 396.042969 "/>
<path style=" stroke:none;fill-rule:nonzero;fill:rgb(15.686275%,4.313725%,32.941176%);fill-opacity:1;" d="M 64.097656 396.042969 L 83.472656 396.042969 L 83.472656 233.453125 L 64.097656 233.453125 Z M 64.097656 396.042969 "/>
<path style=" stroke:none;fill-rule:nonzero;fill:rgb(28.235294%,4.313725%,41.568627%);fill-opacity:1;" d="M 85.625 396.042969 L 105 396.042969 L 105 177.613281 L 85.625 177.613281 Z M 85.625 396.042969 "/>
<path style=" stroke:none;fill-rule:nonzero;fill:rgb(39.607843%,8.235294%,43.137255%);fill-opacity:1;" d="M 107.15625 396.042969 L 126.53125 396.042969 L 126.53125 148.054688 L 107.15625 148.054688 Z M 107.15625 396.042969 "/>
<path style=" stroke:none;fill-rule:nonzero;fill:rgb(50.980392%,12.54902%,42.352941%);fill-opacity:1;" d="M 128.683594 396.042969 L 148.058594 396.042969 L 148.058594 212.101563 L 128.683594 212.101563 Z M 128.683594 396.042969 "/>
<path style=" stroke:none;fill-rule:nonzero;fill:rgb(62.352941%,16.470588%,38.823529%);fill-opacity:1;" d="M 150.214844 396.042969 L 169.589844 396.042969 L 169.589844 33.089844 L 150.214844 33.089844 Z M 150.214844 396.042969 "/>
<path style=" stroke:none;fill-rule:nonzero;fill:rgb(73.333333%,21.568627%,32.941176%);fill-opacity:1;" d="M 171.742188 396.042969 L 191.117188 396.042969 L 191.117188 290.933594 L 171.742188 290.933594 Z M 171.742188 396.042969 "/>
<path style=" stroke:none;fill-rule:nonzero;fill:rgb(83.137255%,28.235294%,25.882353%);fill-opacity:1;" d="M 193.273438 396.042969 L 212.648438 396.042969 L 212.648438 279.4375 L 193.273438 279.4375 Z M 193.273438 396.042969 "/>
<path style=" stroke:none;fill-rule:nonzero;fill:rgb(90.980392%,37.647059%,17.647059%);fill-opacity:1;" d="M 214.804688 396.042969 L 234.179688 396.042969 L 234.179688 246.59375 L 214.804688 246.59375 Z M 214.804688 396.042969 "/>
<path style=" stroke:none;fill-rule:nonzero;fill:rgb(96.078431%,49.019608%,8.235294%);fill-opacity:1;" d="M 236.332031 396.042969 L 255.707031 396.042969 L 255.707031 244.949219 L 236.332031 244.949219 Z M 236.332031 396.042969 "/>
<path style=" stroke:none;fill-rule:nonzero;fill:rgb(98.431373%,61.960784%,2.745098%);fill-opacity:1;" d="M 257.863281 396.042969 L 277.238281 396.042969 L 277.238281 253.160156 L 257.863281 253.160156 Z M 257.863281 396.042969 "/>
<path style=" stroke:none;fill-rule:nonzero;fill:rgb(98.039216%,75.686275%,15.294118%);fill-opacity:1;" d="M 279.390625 396.042969 L 298.765625 396.042969 L 298.765625 59.367188 L 279.390625 59.367188 Z M 279.390625 396.042969 "/>
<path style=" stroke:none;fill-rule:nonzero;fill:rgb(95.294118%,89.803922%,36.078431%);fill-opacity:1;" d="M 300.921875 396.042969 L 320.296875 396.042969 L 320.296875 195.679688 L 300.921875 195.679688 Z M 300.921875 396.042969 "/>
<path style=" stroke:none;fill-rule:nonzero;fill:rgb(98.823529%,100%,64.313725%);fill-opacity:1;" d="M 322.449219 396.042969 L 341.824219 396.042969 L 341.824219 146.410156 L 322.449219 146.410156 Z M 322.449219 396.042969 "/>
</g>
<g clip-path="url(#clip2)" clip-rule="nonzero">
<path style=" stroke:none;fill-rule:nonzero;fill:rgb(98.823529%,100%,64.313725%);fill-opacity:1;" d="M 541.433594 214.566406 L 543.71875 210.675781 L 546.007813 206.785156 L 548.292969 202.894531 L 552.871094 195.113281 L 555.15625 191.222656 L 557.445313 187.328125 L 559.734375 183.4375 L 562.019531 179.546875 L 564.308594 175.65625 L 566.59375 171.765625 L 571.171875 163.984375 L 573.457031 160.089844 L 575.746094 156.199219 L 578.03125 152.308594 L 582.609375 144.527344 L 584.894531 140.636719 L 589.472656 132.855469 L 591.757813 128.960938 L 594.046875 125.070313 L 596.332031 121.179688 L 600.910156 113.398438 L 603.195313 109.507813 L 605.484375 105.617188 L 607.773438 101.722656 L 603.734375 99.445313 L 599.617188 97.308594 L 595.425781 95.324219 L 591.167969 93.484375 L 586.847656 91.800781 L 582.46875 90.269531 L 578.039063 88.890625 L 573.566406 87.675781 L 569.050781 86.617188 L 564.5 85.71875 L 559.921875 84.980469 L 555.320313 84.40625 L 550.699219 83.996094 L 546.070313 83.75 L 541.433594 83.667969 Z M 541.433594 214.566406 "/>
<path style=" stroke:none;fill-rule:nonzero;fill:rgb(95.294118%,89.803922%,36.078431%);fill-opacity:1;" d="M 541.433594 214.566406 L 545.125 211.972656 L 548.816406 209.375 L 552.511719 206.78125 L 556.203125 204.183594 L 559.894531 201.589844 L 563.585938 198.992188 L 567.28125 196.394531 L 570.972656 193.800781 L 574.664063 191.203125 L 578.359375 188.609375 L 582.050781 186.011719 L 585.742188 183.417969 L 589.433594 180.820313 L 593.128906 178.222656 L 596.820313 175.628906 L 600.511719 173.03125 L 604.207031 170.4375 L 611.589844 165.242188 L 615.28125 162.648438 L 618.976563 160.050781 L 622.667969 157.457031 L 626.359375 154.859375 L 630.054688 152.265625 L 637.4375 147.070313 L 641.132813 144.476563 L 644.824219 141.878906 L 648.515625 139.285156 L 645.773438 135.527344 L 642.898438 131.867188 L 639.894531 128.3125 L 636.765625 124.867188 L 633.519531 121.539063 L 630.152344 118.324219 L 626.675781 115.230469 L 623.09375 112.265625 L 619.40625 109.425781 L 615.621094 106.722656 L 611.738281 104.152344 L 607.773438 101.722656 L 605.484375 105.617188 L 603.195313 109.507813 L 600.910156 113.398438 L 596.332031 121.179688 L 594.046875 125.070313 L 591.757813 128.960938 L 589.472656 132.855469 L 584.894531 140.636719 L 582.609375 144.527344 L 578.03125 152.308594 L 575.746094 156.199219 L 573.457031 160.089844 L 571.171875 163.984375 L 566.59375 171.765625 L 564.308594 175.65625 L 562.019531 179.546875 L 559.734375 183.4375 L 557.445313 187.328125 L 555.15625 191.222656 L 552.871094 195.113281 L 548.292969 202.894531 L 546.007813 206.785156 L 543.71875 210.675781 Z M 541.433594 214.566406 "/>
<path style=" stroke:none;fill-rule:nonzero;fill:rgb(98.039216%,75.686275%,15.294118%);fill-opacity:1;" d="M 541.433594 214.566406 L 554.898438 215.972656 L 559.390625 216.441406 L 568.367188 217.378906 L 572.859375 217.847656 L 586.324219 219.253906 L 590.816406 219.722656 L 599.792969 220.660156 L 604.285156 221.128906 L 617.75 222.535156 L 622.242188 223.003906 L 635.707031 224.410156 L 640.199219 224.878906 L 649.175781 225.816406 L 653.667969 226.285156 L 667.132813 227.691406 L 671.625 228.160156 L 672.011719 223.707031 L 672.246094 219.246094 L 672.332031 214.78125 L 672.261719 210.3125 L 672.039063 205.851563 L 671.667969 201.398438 L 671.140625 196.960938 L 670.464844 192.546875 L 669.640625 188.15625 L 668.664063 183.796875 L 667.539063 179.472656 L 666.265625 175.1875 L 664.851563 170.953125 L 663.289063 166.765625 L 661.589844 162.632813 L 659.746094 158.566406 L 657.765625 154.558594 L 655.652344 150.625 L 653.402344 146.765625 L 651.023438 142.984375 L 648.515625 139.285156 L 644.824219 141.878906 L 641.132813 144.476563 L 637.4375 147.070313 L 630.054688 152.265625 L 626.359375 154.859375 L 622.667969 157.457031 L 618.976563 160.050781 L 615.28125 162.648438 L 611.589844 165.242188 L 604.207031 170.4375 L 600.511719 173.03125 L 596.820313 175.628906 L 593.128906 178.222656 L 589.433594 180.820313 L 585.742188 183.417969 L 582.050781 186.011719 L 578.359375 188.609375 L 574.664063 191.203125 L 570.972656 193.800781 L 567.28125 196.394531 L 563.585938 198.992188 L 559.894531 201.589844 L 556.203125 204.183594 L 552.511719 206.78125 L 548.816406 209.375 L 545.125 211.972656 Z M 541.433594 214.566406 "/>
<path style=" stroke:none;fill-rule:nonzero;fill:rgb(98.431373%,61.960784%,2.745098%);fill-opacity:1;" d="M 541.433594 214.566406 L 545.574219 216.359375 L 549.71875 218.152344 L 553.859375 219.945313 L 558.003906 221.734375 L 562.148438 223.527344 L 566.289063 225.320313 L 570.433594 227.109375 L 574.574219 228.902344 L 578.71875 230.695313 L 582.859375 232.484375 L 591.148438 236.070313 L 595.289063 237.863281 L 599.433594 239.652344 L 603.574219 241.445313 L 607.71875 243.238281 L 611.859375 245.027344 L 620.148438 248.613281 L 624.289063 250.40625 L 628.433594 252.195313 L 632.574219 253.988281 L 636.71875 255.78125 L 640.859375 257.570313 L 649.148438 261.15625 L 653.289063 262.949219 L 657.433594 264.738281 L 661.574219 266.53125 L 663.464844 261.925781 L 665.175781 257.253906 L 666.710938 252.519531 L 668.0625 247.726563 L 669.230469 242.890625 L 670.214844 238.011719 L 671.011719 233.097656 L 671.625 228.160156 L 667.132813 227.691406 L 653.667969 226.285156 L 649.175781 225.816406 L 640.199219 224.878906 L 635.707031 224.410156 L 622.242188 223.003906 L 617.75 222.535156 L 604.285156 221.128906 L 599.792969 220.660156 L 590.816406 219.722656 L 586.324219 219.253906 L 572.859375 217.847656 L 568.367188 217.378906 L 559.390625 216.441406 L 554.898438 215.972656 Z M 541.433594 214.566406 "/>
<path style=" stroke:none;fill-rule:nonzero;fill:rgb(96.078431%,49.019608%,8.235294%);fill-opacity:1;" d="M 541.433594 214.566406 L 544.796875 217.578125 L 548.160156 220.585938 L 551.523438 223.597656 L 554.886719 226.605469 L 558.25 229.617188 L 561.617188 232.625 L 564.980469 235.636719 L 568.34375 238.644531 L 571.707031 241.65625 L 575.070313 244.664063 L 578.433594 247.675781 L 581.796875 250.683594 L 585.164063 253.695313 L 588.527344 256.703125 L 591.890625 259.714844 L 595.253906 262.722656 L 598.617188 265.734375 L 601.980469 268.742188 L 605.34375 271.753906 L 608.710938 274.761719 L 612.074219 277.773438 L 615.4375 280.78125 L 618.800781 283.792969 L 622.164063 286.800781 L 625.527344 289.8125 L 628.894531 292.820313 L 632.257813 295.832031 L 635.621094 298.839844 L 638.984375 301.851563 L 642.039063 298.308594 L 644.96875 294.660156 L 647.765625 290.910156 L 650.425781 287.058594 L 652.945313 283.117188 L 655.324219 279.089844 L 657.558594 274.980469 L 659.640625 270.792969 L 661.574219 266.53125 L 657.433594 264.738281 L 653.289063 262.949219 L 649.148438 261.15625 L 640.859375 257.570313 L 636.71875 255.78125 L 632.574219 253.988281 L 628.433594 252.195313 L 624.289063 250.40625 L 620.148438 248.613281 L 611.859375 245.027344 L 607.71875 243.238281 L 603.574219 241.445313 L 599.433594 239.652344 L 595.289063 237.863281 L 591.148438 236.070313 L 582.859375 232.484375 L 578.71875 230.695313 L 574.574219 228.902344 L 570.433594 227.109375 L 566.289063 225.320313 L 562.148438 223.527344 L 558.003906 221.734375 L 553.859375 219.945313 L 549.71875 218.152344 L 545.574219 216.359375 Z M 541.433594 214.566406 "/>
<path style=" stroke:none;fill-rule:nonzero;fill:rgb(90.980392%,37.647059%,17.647059%);fill-opacity:1;" d="M 541.433594 214.566406 L 543.6875 218.480469 L 545.9375 222.390625 L 552.699219 234.121094 L 554.953125 238.035156 L 561.714844 249.765625 L 563.964844 253.679688 L 572.980469 269.320313 L 575.234375 273.234375 L 581.996094 284.964844 L 584.246094 288.878906 L 593.261719 304.519531 L 595.515625 308.433594 L 602.277344 320.164063 L 604.527344 324.074219 L 606.78125 327.988281 L 610.75 325.605469 L 614.632813 323.085938 L 618.421875 320.429688 L 622.117188 317.644531 L 625.707031 314.726563 L 629.195313 311.6875 L 632.574219 308.523438 L 635.839844 305.242188 L 638.984375 301.851563 L 635.621094 298.839844 L 632.257813 295.832031 L 628.894531 292.820313 L 625.527344 289.8125 L 622.164063 286.800781 L 618.800781 283.792969 L 615.4375 280.78125 L 612.074219 277.773438 L 608.710938 274.761719 L 605.34375 271.753906 L 601.980469 268.742188 L 598.617188 265.734375 L 595.253906 262.722656 L 591.890625 259.714844 L 588.527344 256.703125 L 585.164063 253.695313 L 581.796875 250.683594 L 578.433594 247.675781 L 575.070313 244.664063 L 571.707031 241.65625 L 568.34375 238.644531 L 564.980469 235.636719 L 561.617188 232.625 L 558.25 229.617188 L 554.886719 226.605469 L 551.523438 223.597656 L 548.160156 220.585938 L 544.796875 217.578125 Z M 541.433594 214.566406 "/>
<path style=" stroke:none;fill-rule:nonzero;fill:rgb(83.137255%,28.235294%,25.882353%);fill-opacity:1;" d="M 541.433594 214.566406 L 542.65625 218.914063 L 546.324219 231.945313 L 547.550781 236.292969 L 549.996094 244.980469 L 551.21875 249.328125 L 552.441406 253.671875 L 553.667969 258.015625 L 554.890625 262.359375 L 556.113281 266.707031 L 558.558594 275.394531 L 559.785156 279.738281 L 561.007813 284.085938 L 564.675781 297.117188 L 565.902344 301.464844 L 568.347656 310.152344 L 569.570313 314.5 L 572.015625 323.1875 L 573.242188 327.53125 L 574.464844 331.878906 L 576.910156 340.566406 L 581.355469 339.230469 L 585.75 337.734375 L 590.089844 336.085938 L 594.367188 334.285156 L 598.582031 332.332031 L 602.71875 330.234375 L 606.78125 327.988281 L 604.527344 324.074219 L 602.277344 320.164063 L 595.515625 308.433594 L 593.261719 304.519531 L 584.246094 288.878906 L 581.996094 284.964844 L 575.234375 273.234375 L 572.980469 269.320313 L 563.964844 253.679688 L 561.714844 249.765625 L 554.953125 238.035156 L 552.699219 234.121094 L 545.9375 222.390625 L 543.6875 218.480469 Z M 541.433594 214.566406 "/>
<path style=" stroke:none;fill-rule:nonzero;fill:rgb(73.333333%,21.568627%,32.941176%);fill-opacity:1;" d="M 541.433594 214.566406 L 541.660156 219.074219 L 541.890625 223.582031 L 542.117188 228.089844 L 542.347656 232.601563 L 542.574219 237.109375 L 543.035156 246.125 L 543.261719 250.632813 L 543.492188 255.140625 L 543.71875 259.648438 L 543.949219 264.15625 L 544.175781 268.664063 L 544.40625 273.171875 L 544.632813 277.679688 L 545.09375 286.695313 L 545.320313 291.203125 L 545.550781 295.710938 L 545.777344 300.21875 L 546.007813 304.726563 L 546.234375 309.234375 L 546.464844 313.742188 L 546.691406 318.25 L 547.152344 327.265625 L 547.378906 331.773438 L 547.609375 336.28125 L 547.835938 340.789063 L 548.066406 345.296875 L 552.9375 344.960938 L 557.789063 344.441406 L 562.621094 343.742188 L 567.421875 342.859375 L 572.1875 341.800781 L 576.910156 340.566406 L 574.464844 331.878906 L 573.242188 327.53125 L 572.015625 323.1875 L 569.570313 314.5 L 568.347656 310.152344 L 565.902344 301.464844 L 564.675781 297.117188 L 561.007813 284.085938 L 559.785156 279.738281 L 558.558594 275.394531 L 556.113281 266.707031 L 554.890625 262.359375 L 553.667969 258.015625 L 552.441406 253.671875 L 551.21875 249.328125 L 549.996094 244.980469 L 547.550781 236.292969 L 546.324219 231.945313 L 542.65625 218.914063 Z M 541.433594 214.566406 "/>
<path style=" stroke:none;fill-rule:nonzero;fill:rgb(62.352941%,16.470588%,38.823529%);fill-opacity:1;" d="M 541.433594 214.566406 L 538.449219 217.957031 L 535.464844 221.34375 L 532.484375 224.730469 L 523.53125 234.890625 L 520.550781 238.28125 L 514.582031 245.054688 L 511.601563 248.441406 L 508.617188 251.828125 L 505.632813 255.21875 L 502.652344 258.605469 L 496.683594 265.378906 L 493.703125 268.765625 L 490.71875 272.15625 L 484.75 278.929688 L 481.769531 282.316406 L 475.800781 289.089844 L 472.820313 292.480469 L 466.851563 299.253906 L 463.871094 302.640625 L 460.886719 306.027344 L 457.902344 309.417969 L 454.921875 312.804688 L 458.421875 315.78125 L 462.027344 318.632813 L 465.730469 321.359375 L 469.527344 323.949219 L 473.414063 326.40625 L 477.382813 328.726563 L 481.433594 330.90625 L 485.554688 332.941406 L 489.746094 334.832031 L 494 336.570313 L 498.316406 338.160156 L 502.679688 339.601563 L 507.097656 340.882813 L 511.554688 342.011719 L 516.046875 342.980469 L 520.570313 343.792969 L 525.121094 344.445313 L 529.695313 344.941406 L 534.277344 345.269531 L 538.875 345.441406 L 543.472656 345.449219 L 548.066406 345.296875 L 547.835938 340.789063 L 547.609375 336.28125 L 547.378906 331.773438 L 547.152344 327.265625 L 546.691406 318.25 L 546.464844 313.742188 L 546.234375 309.234375 L 546.007813 304.726563 L 545.777344 300.21875 L 545.550781 295.710938 L 545.320313 291.203125 L 545.09375 286.695313 L 544.632813 277.679688 L 544.40625 273.171875 L 544.175781 268.664063 L 543.949219 264.15625 L 543.71875 259.648438 L 543.492188 255.140625 L 543.261719 250.632813 L 543.035156 246.125 L 542.574219 237.109375 L 542.347656 232.601563 L 542.117188 228.089844 L 541.890625 223.582031 L 541.660156 219.074219 Z M 541.433594 214.566406 "/>
<path style=" stroke:none;fill-rule:nonzero;fill:rgb(50.980392%,12.54902%,42.352941%);fill-opacity:1;" d="M 541.433594 214.566406 L 533.332031 218.550781 L 529.28125 220.546875 L 517.128906 226.523438 L 513.082031 228.515625 L 488.777344 240.46875 L 484.730469 242.460938 L 460.425781 254.414063 L 456.378906 256.410156 L 432.074219 268.363281 L 428.027344 270.355469 L 423.976563 272.347656 L 426.105469 276.492188 L 428.382813 280.558594 L 430.804688 284.539063 L 433.363281 288.433594 L 436.0625 292.230469 L 438.894531 295.933594 L 441.855469 299.53125 L 444.941406 303.023438 L 448.152344 306.398438 L 451.476563 309.664063 L 454.921875 312.804688 L 457.902344 309.417969 L 460.886719 306.027344 L 463.871094 302.640625 L 466.851563 299.253906 L 472.820313 292.480469 L 475.800781 289.089844 L 481.769531 282.316406 L 484.75 278.929688 L 490.71875 272.15625 L 493.703125 268.765625 L 496.683594 265.378906 L 502.652344 258.605469 L 505.632813 255.21875 L 508.617188 251.828125 L 511.601563 248.441406 L 514.582031 245.054688 L 520.550781 238.28125 L 523.53125 234.890625 L 532.484375 224.730469 L 535.464844 221.34375 L 538.449219 217.957031 Z M 541.433594 214.566406 "/>
<path style=" stroke:none;fill-rule:nonzero;fill:rgb(39.607843%,8.235294%,43.137255%);fill-opacity:1;" d="M 541.433594 214.566406 L 536.929688 214.25 L 532.425781 213.929688 L 527.925781 213.609375 L 523.421875 213.289063 L 518.917969 212.972656 L 514.417969 212.652344 L 509.914063 212.332031 L 505.414063 212.011719 L 500.910156 211.695313 L 496.40625 211.375 L 491.90625 211.054688 L 487.402344 210.734375 L 482.898438 210.417969 L 478.398438 210.097656 L 473.894531 209.777344 L 469.394531 209.457031 L 464.890625 209.140625 L 460.386719 208.820313 L 455.886719 208.5 L 451.382813 208.179688 L 446.878906 207.863281 L 442.378906 207.542969 L 437.875 207.222656 L 433.375 206.902344 L 428.871094 206.585938 L 424.367188 206.265625 L 419.867188 205.945313 L 415.363281 205.625 L 410.859375 205.308594 L 410.617188 209.90625 L 410.53125 214.515625 L 410.613281 219.121094 L 410.851563 223.722656 L 411.257813 228.3125 L 411.820313 232.882813 L 412.546875 237.433594 L 413.429688 241.953125 L 414.472656 246.441406 L 415.671875 250.890625 L 417.03125 255.292969 L 418.539063 259.644531 L 420.203125 263.941406 L 422.015625 268.179688 L 423.976563 272.347656 L 428.027344 270.355469 L 432.074219 268.363281 L 456.378906 256.410156 L 460.425781 254.414063 L 484.730469 242.460938 L 488.777344 240.46875 L 513.082031 228.515625 L 517.128906 226.523438 L 529.28125 220.546875 L 533.332031 218.550781 Z M 541.433594 214.566406 "/>
<path style=" stroke:none;fill-rule:nonzero;fill:rgb(28.235294%,4.313725%,41.568627%);fill-opacity:1;" d="M 541.433594 214.566406 L 533.667969 209.957031 L 529.789063 207.652344 L 525.90625 205.351563 L 522.027344 203.046875 L 518.144531 200.742188 L 514.265625 198.4375 L 510.382813 196.132813 L 506.503906 193.828125 L 498.738281 189.21875 L 494.859375 186.914063 L 490.976563 184.609375 L 487.097656 182.304688 L 483.214844 180 L 479.335938 177.695313 L 471.570313 173.085938 L 467.691406 170.78125 L 463.808594 168.476563 L 459.929688 166.171875 L 456.046875 163.867188 L 452.167969 161.5625 L 444.402344 156.953125 L 440.523438 154.648438 L 436.640625 152.34375 L 432.761719 150.039063 L 428.878906 147.734375 L 426.5625 151.804688 L 424.390625 155.953125 L 422.367188 160.175781 L 420.5 164.46875 L 418.785156 168.824219 L 417.226563 173.242188 L 415.828125 177.710938 L 414.589844 182.226563 L 413.515625 186.78125 L 412.605469 191.375 L 411.855469 195.996094 L 411.277344 200.644531 L 410.859375 205.308594 L 415.363281 205.625 L 419.867188 205.945313 L 424.367188 206.265625 L 428.871094 206.585938 L 433.375 206.902344 L 437.875 207.222656 L 442.378906 207.542969 L 446.878906 207.863281 L 451.382813 208.179688 L 455.886719 208.5 L 460.386719 208.820313 L 464.890625 209.140625 L 469.394531 209.457031 L 473.894531 209.777344 L 478.398438 210.097656 L 482.898438 210.417969 L 487.402344 210.734375 L 491.90625 211.054688 L 496.40625 211.375 L 500.910156 211.695313 L 505.414063 212.011719 L 509.914063 212.332031 L 514.417969 212.652344 L 518.917969 212.972656 L 523.421875 213.289063 L 527.925781 213.609375 L 532.425781 213.929688 L 536.929688 214.25 Z M 541.433594 214.566406 "/>
<path style=" stroke:none;fill-rule:nonzero;fill:rgb(15.686275%,4.313725%,32.941176%);fill-opacity:1;" d="M 541.433594 214.566406 L 538.5625 211.082031 L 535.695313 207.597656 L 532.824219 204.113281 L 529.957031 200.628906 L 527.085938 197.144531 L 524.21875 193.660156 L 521.347656 190.175781 L 518.480469 186.691406 L 515.609375 183.207031 L 512.742188 179.722656 L 509.871094 176.238281 L 507.003906 172.753906 L 504.136719 169.265625 L 501.265625 165.78125 L 498.398438 162.296875 L 495.527344 158.8125 L 492.660156 155.328125 L 489.789063 151.84375 L 486.921875 148.359375 L 484.050781 144.875 L 481.183594 141.390625 L 478.3125 137.90625 L 475.445313 134.421875 L 472.574219 130.9375 L 469.707031 127.453125 L 466.835938 123.96875 L 463.96875 120.484375 L 461.097656 116.996094 L 458.230469 113.511719 L 454.78125 116.453125 L 451.4375 119.511719 L 448.203125 122.683594 L 445.078125 125.964844 L 442.070313 129.351563 L 439.179688 132.839844 L 436.414063 136.429688 L 433.773438 140.109375 L 431.261719 143.878906 L 428.878906 147.734375 L 432.761719 150.039063 L 436.640625 152.34375 L 440.523438 154.648438 L 444.402344 156.953125 L 452.167969 161.5625 L 456.046875 163.867188 L 459.929688 166.171875 L 463.808594 168.476563 L 467.691406 170.78125 L 471.570313 173.085938 L 479.335938 177.695313 L 483.214844 180 L 487.097656 182.304688 L 490.976563 184.609375 L 494.859375 186.914063 L 498.738281 189.21875 L 506.503906 193.828125 L 510.382813 196.132813 L 514.265625 198.4375 L 518.144531 200.742188 L 522.027344 203.046875 L 525.90625 205.351563 L 529.789063 207.652344 L 533.667969 209.957031 Z M 541.433594 214.566406 "/>
<path style=" stroke:none;fill-rule:nonzero;fill:rgb(5.098039%,3.137255%,16.470588%);fill-opacity:1;" d="M 541.433594 214.566406 L 539.535156 210.472656 L 537.640625 206.375 L 535.742188 202.28125 L 533.847656 198.183594 L 531.949219 194.085938 L 530.054688 189.992188 L 528.160156 185.894531 L 526.261719 181.800781 L 524.367188 177.703125 L 522.46875 173.605469 L 520.574219 169.511719 L 518.675781 165.414063 L 516.78125 161.316406 L 514.882813 157.222656 L 512.988281 153.125 L 511.09375 149.03125 L 509.195313 144.933594 L 507.300781 140.835938 L 505.402344 136.742188 L 503.507813 132.644531 L 501.609375 128.550781 L 499.714844 124.453125 L 497.816406 120.355469 L 495.921875 116.261719 L 494.027344 112.164063 L 492.128906 108.070313 L 490.234375 103.972656 L 488.335938 99.875 L 486.441406 95.78125 L 482.148438 97.863281 L 477.929688 100.101563 L 473.800781 102.492188 L 469.761719 105.035156 L 465.816406 107.71875 L 461.96875 110.546875 L 458.230469 113.511719 L 461.097656 116.996094 L 463.96875 120.484375 L 466.835938 123.96875 L 469.707031 127.453125 L 472.574219 130.9375 L 475.445313 134.421875 L 478.3125 137.90625 L 481.183594 141.390625 L 484.050781 144.875 L 486.921875 148.359375 L 489.789063 151.84375 L 492.660156 155.328125 L 495.527344 158.8125 L 498.398438 162.296875 L 501.265625 165.78125 L 504.136719 169.265625 L 507.003906 172.753906 L 509.871094 176.238281 L 512.742188 179.722656 L 515.609375 183.207031 L 518.480469 186.691406 L 521.347656 190.175781 L 524.21875 193.660156 L 527.085938 197.144531 L 529.957031 200.628906 L 532.824219 204.113281 L 535.695313 207.597656 L 538.5625 211.082031 Z M 541.433594 214.566406 "/>
<path style=" stroke:none;fill-rule:nonzero;fill:rgb(0%,0%,1.568627%);fill-opacity:1;" d="M 541.433594 214.566406 L 541.433594 83.667969 L 536.703125 83.753906 L 531.980469 84.011719 L 527.273438 84.4375 L 522.582031 85.035156 L 517.914063 85.800781 L 513.277344 86.734375 L 508.679688 87.832031 L 504.121094 89.097656 L 499.613281 90.527344 L 495.160156 92.121094 L 490.765625 93.871094 L 486.441406 95.78125 L 488.335938 99.875 L 490.234375 103.972656 L 492.128906 108.070313 L 494.027344 112.164063 L 495.921875 116.261719 L 497.816406 120.355469 L 499.714844 124.453125 L 501.609375 128.550781 L 503.507813 132.644531 L 505.402344 136.742188 L 507.300781 140.835938 L 509.195313 144.933594 L 511.09375 149.03125 L 512.988281 153.125 L 514.882813 157.222656 L 516.78125 161.316406 L 518.675781 165.414063 L 520.574219 169.511719 L 522.46875 173.605469 L 524.367188 177.703125 L 526.261719 181.800781 L 528.160156 185.894531 L 530.054688 189.992188 L 531.949219 194.085938 L 533.847656 198.183594 L 535.742188 202.28125 L 537.640625 206.375 L 539.535156 210.472656 Z M 541.433594 214.566406 "/>
</g>
</g>
</svg>
