<?xml version="1.0" encoding="UTF-8"?>
<svg xmlns="http://www.w3.org/2000/svg" xmlns:xlink="http://www.w3.org/1999/xlink" width="576pt" height="432pt" viewBox="0 0 576 432" version="1.1">
<defs>
<clipPath id="clip1">
  <path d="M 7.722656 4.980469 L 572.019531 4.980469 L 572.019531 425.277344 L 7.722656 425.277344 Z M 7.722656 4.980469 "/>
</clipPath>
</defs>
<g id="surface32">
<rect x="0" y="0" width="576" height="432" style="fill:rgb(100%,100%,100%);fill-opacity:1;stroke:none;"/>
<g clip-path="url(#clip1)" clip-rule="nonzero">
<path style="fill-rule:nonzero;fill:rgb(89.803922%,22.352941%,20.784314%);fill-opacity:0.65098;stroke-width:0.708661;stroke-linecap:round;stroke-linejoin:round;stroke:rgb(89.803922%,22.352941%,20.784314%);stroke-opacity:0.65098;stroke-miterlimit:10;" d="M 424.6875 55.695313 C 424.6875 59.015625 419.710938 59.015625 419.710938 55.695313 C 419.710938 52.378906 424.6875 52.378906 424.6875 55.695313 "/>
<path style="fill-rule:nonzero;fill:rgb(89.803922%,22.352941%,20.784314%);fill-opacity:0.65098;stroke-width:0.708661;stroke-linecap:round;stroke-linejoin:round;stroke:rgb(89.803922%,22.352941%,20.784314%);stroke-opacity:0.65098;stroke-miterlimit:10;" d="M 230.074219 183.882813 C 230.074219 187.199219 225.097656 187.199219 225.097656 183.882813 C 225.097656 180.566406 230.074219 180.566406 230.074219 183.882813 "/>
<path style="fill-rule:nonzero;fill:rgb(89.803922%,22.352941%,20.784314%);fill-opacity:0.65098;stroke-width:0.708661;stroke-linecap:round;stroke-linejoin:round;stroke:rgb(89.803922%,22.352941%,20.784314%);stroke-opacity:0.65098;stroke-miterlimit:10;" d="M 476.367188 47.085938 C 476.367188 50.402344 471.390625 50.402344 471.390625 47.085938 C 471.390625 43.769531 476.367188 43.769531 476.367188 47.085938 "/>
<path style="fill-rule:nonzero;fill:rgb(89.803922%,22.352941%,20.784314%);fill-opacity:0.65098;stroke-width:0.708661;stroke-linecap:round;stroke-linejoin:round;stroke:rgb(89.803922%,22.352941%,20.784314%);stroke-opacity:0.65098;stroke-miterlimit:10;" d="M 408.226563 47.660156 C 408.226563 50.980469 403.25 50.980469 403.25 47.660156 C 403.25 44.34375 408.226563 44.34375 408.226563 47.660156 "/>
<path style="fill-rule:nonzero;fill:rgb(89.803922%,22.352941%,20.784314%);fill-opacity:0.65098;stroke-width:0.708661;stroke-linecap:round;stroke-linejoin:round;stroke:rgb(89.803922%,22.352941%,20.784314%);stroke-opacity:0.65098;stroke-miterlimit:10;" d="M 431.308594 144.769531 C 431.308594 148.089844 426.332031 148.089844 426.332031 144.769531 C 426.332031 141.453125 431.308594 141.453125 431.308594 144.769531 "/>
<path style="fill-rule:nonzero;fill:rgb(89.803922%,22.352941%,20.784314%);fill-opacity:0.65098;stroke-width:0.708661;stroke-linecap:round;stroke-linejoin:round;stroke:rgb(89.803922%,22.352941%,20.784314%);stroke-opacity:0.65098;stroke-miterlimit:10;" d="M 480.960938 44.507813 C 480.960938 47.824219 475.984375 47.824219 475.984375 44.507813 C 475.984375 41.1875 480.960938 41.1875 480.960938 44.507813 "/>
<path style="fill-rule:nonzero;fill:rgb(89.803922%,22.352941%,20.784314%);fill-opacity:0.65098;stroke-width:0.708661;stroke-linecap:round;stroke-linejoin:round;stroke:rgb(89.803922%,22.352941%,20.784314%);stroke-opacity:0.65098;stroke-miterlimit:10;" d="M 303.449219 325.335938 C 303.449219 328.652344 298.472656 328.652344 298.472656 325.335938 C 298.472656 322.019531 303.449219 322.019531 303.449219 325.335938 "/>
<path style="fill-rule:nonzero;fill:rgb(89.803922%,22.352941%,20.784314%);fill-opacity:0.65098;stroke-width:0.708661;stroke-linecap:round;stroke-linejoin:round;stroke:rgb(89.803922%,22.352941%,20.784314%);stroke-opacity:0.65098;stroke-miterlimit:10;" d="M 401.0625 74.652344 C 401.0625 77.96875 396.085938 77.96875 396.085938 74.652344 C 396.085938 71.335938 401.0625 71.335938 401.0625 74.652344 "/>
<path style="fill-rule:nonzero;fill:rgb(89.803922%,22.352941%,20.784314%);fill-opacity:0.65098;stroke-width:0.708661;stroke-linecap:round;stroke-linejoin:round;stroke:rgb(89.803922%,22.352941%,20.784314%);stroke-opacity:0.65098;stroke-miterlimit:10;" d="M 458.5625 38.9375 C 458.5625 42.257813 453.585938 42.257813 453.585938 38.9375 C 453.585938 35.621094 458.5625 35.621094 458.5625 38.9375 "/>
<path style="fill-rule:nonzero;fill:rgb(89.803922%,22.352941%,20.784314%);fill-opacity:0.65098;stroke-width:0.708661;stroke-linecap:round;stroke-linejoin:round;stroke:rgb(89.803922%,22.352941%,20.784314%);stroke-opacity:0.65098;stroke-miterlimit:10;" d="M 474.265625 24.882813 C 474.265625 28.199219 469.289063 28.199219 469.289063 24.882813 C 469.289063 21.5625 474.265625 21.5625 474.265625 24.882813 "/>
<path style="fill-rule:nonzero;fill:rgb(89.803922%,22.352941%,20.784314%);fill-opacity:0.65098;stroke-width:0.708661;stroke-linecap:round;stroke-linejoin:round;stroke:rgb(89.803922%,22.352941%,20.784314%);stroke-opacity:0.65098;stroke-miterlimit:10;" d="M 451.875 43.277344 C 451.875 46.597656 446.898438 46.597656 446.898438 43.277344 C 446.898438 39.960938 451.875 39.960938 451.875 43.277344 "/>
<path style="fill-rule:nonzero;fill:rgb(89.803922%,22.352941%,20.784314%);fill-opacity:0.65098;stroke-width:0.708661;stroke-linecap:round;stroke-linejoin:round;stroke:rgb(89.803922%,22.352941%,20.784314%);stroke-opacity:0.65098;stroke-miterlimit:10;" d="M 473.765625 47.410156 C 473.765625 50.726563 468.789063 50.726563 468.789063 47.410156 C 468.789063 44.089844 473.765625 44.089844 473.765625 47.410156 "/>
<path style="fill-rule:nonzero;fill:rgb(89.803922%,22.352941%,20.784314%);fill-opacity:0.65098;stroke-width:0.708661;stroke-linecap:round;stroke-linejoin:round;stroke:rgb(89.803922%,22.352941%,20.784314%);stroke-opacity:0.65098;stroke-miterlimit:10;" d="M 446.507813 38.175781 C 446.507813 41.492188 441.53125 41.492188 441.53125 38.175781 C 441.53125 34.855469 446.507813 34.855469 446.507813 38.175781 "/>
<path style="fill-rule:nonzero;fill:rgb(89.803922%,22.352941%,20.784314%);fill-opacity:0.65098;stroke-width:0.708661;stroke-linecap:round;stroke-linejoin:round;stroke:rgb(89.803922%,22.352941%,20.784314%);stroke-opacity:0.65098;stroke-miterlimit:10;" d="M 444.398438 56.929688 C 444.398438 60.246094 439.421875 60.246094 439.421875 56.929688 C 439.421875 53.613281 444.398438 53.613281 444.398438 56.929688 "/>
<path style="fill-rule:nonzero;fill:rgb(89.803922%,22.352941%,20.784314%);fill-opacity:0.65098;stroke-width:0.708661;stroke-linecap:round;stroke-linejoin:round;stroke:rgb(89.803922%,22.352941%,20.784314%);stroke-opacity:0.65098;stroke-miterlimit:10;" d="M 489.734375 44.726563 C 489.734375 48.042969 484.757813 48.042969 484.757813 44.726563 C 484.757813 41.410156 489.734375 41.410156 489.734375 44.726563 "/>
<path style="fill-rule:nonzero;fill:rgb(89.803922%,22.352941%,20.784314%);fill-opacity:0.65098;stroke-width:0.708661;stroke-linecap:round;stroke-linejoin:round;stroke:rgb(89.803922%,22.352941%,20.784314%);stroke-opacity:0.65098;stroke-miterlimit:10;" d="M 467.550781 58.210938 C 467.550781 61.527344 462.574219 61.527344 462.574219 58.210938 C 462.574219 54.890625 467.550781 54.890625 467.550781 58.210938 "/>
<path style="fill-rule:nonzero;fill:rgb(89.803922%,22.352941%,20.784314%);fill-opacity:0.65098;stroke-width:0.708661;stroke-linecap:round;stroke-linejoin:round;stroke:rgb(89.803922%,22.352941%,20.784314%);stroke-opacity:0.65098;stroke-miterlimit:10;" d="M 474.117188 48.855469 C 474.117188 52.175781 469.140625 52.175781 469.140625 48.855469 C 469.140625 45.539063 474.117188 45.539063 474.117188 48.855469 "/>
<path style="fill-rule:nonzero;fill:rgb(89.803922%,22.352941%,20.784314%);fill-opacity:0.65098;stroke-width:0.708661;stroke-linecap:round;stroke-linejoin:round;stroke:rgb(89.803922%,22.352941%,20.784314%);stroke-opacity:0.65098;stroke-miterlimit:10;" d="M 463.769531 77.710938 C 463.769531 81.027344 458.792969 81.027344 458.792969 77.710938 C 458.792969 74.390625 463.769531 74.390625 463.769531 77.710938 "/>
<path style="fill-rule:nonzero;fill:rgb(89.803922%,22.352941%,20.784314%);fill-opacity:0.65098;stroke-width:0.708661;stroke-linecap:round;stroke-linejoin:round;stroke:rgb(89.803922%,22.352941%,20.784314%);stroke-opacity:0.65098;stroke-miterlimit:10;" d="M 464.980469 61.695313 C 464.980469 65.011719 460.003906 65.011719 460.003906 61.695313 C 460.003906 58.378906 464.980469 58.378906 464.980469 61.695313 "/>
<path style="fill-rule:nonzero;fill:rgb(89.803922%,22.352941%,20.784314%);fill-opacity:0.65098;stroke-width:0.708661;stroke-linecap:round;stroke-linejoin:round;stroke:rgb(89.803922%,22.352941%,20.784314%);stroke-opacity:0.65098;stroke-miterlimit:10;" d="M 394.710938 74.855469 C 394.710938 78.171875 389.734375 78.171875 389.734375 74.855469 C 389.734375 71.539063 394.710938 71.539063 394.710938 74.855469 "/>
<path style="fill-rule:nonzero;fill:rgb(89.803922%,22.352941%,20.784314%);fill-opacity:0.65098;stroke-width:0.708661;stroke-linecap:round;stroke-linejoin:round;stroke:rgb(89.803922%,22.352941%,20.784314%);stroke-opacity:0.65098;stroke-miterlimit:10;" d="M 452.742188 57.097656 C 452.742188 60.414063 447.765625 60.414063 447.765625 57.097656 C 447.765625 53.777344 452.742188 53.777344 452.742188 57.097656 "/>
<path style="fill-rule:nonzero;fill:rgb(89.803922%,22.352941%,20.784314%);fill-opacity:0.65098;stroke-width:0.708661;stroke-linecap:round;stroke-linejoin:round;stroke:rgb(89.803922%,22.352941%,20.784314%);stroke-opacity:0.65098;stroke-miterlimit:10;" d="M 486.585938 54.160156 C 486.585938 57.476563 481.609375 57.476563 481.609375 54.160156 C 481.609375 50.839844 486.585938 50.839844 486.585938 54.160156 "/>
<path style="fill-rule:nonzero;fill:rgb(89.803922%,22.352941%,20.784314%);fill-opacity:0.65098;stroke-width:0.708661;stroke-linecap:round;stroke-linejoin:round;stroke:rgb(89.803922%,22.352941%,20.784314%);stroke-opacity:0.65098;stroke-miterlimit:10;" d="M 507.453125 136.253906 C 507.453125 139.570313 502.476563 139.570313 502.476563 136.253906 C 502.476563 132.9375 507.453125 132.9375 507.453125 136.253906 "/>
<path style="fill-rule:nonzero;fill:rgb(89.803922%,22.352941%,20.784314%);fill-opacity:0.65098;stroke-width:0.708661;stroke-linecap:round;stroke-linejoin:round;stroke:rgb(89.803922%,22.352941%,20.784314%);stroke-opacity:0.65098;stroke-miterlimit:10;" d="M 215.15625 261.558594 C 215.15625 264.875 210.179688 264.875 210.179688 261.558594 C 210.179688 258.242188 215.15625 258.242188 215.15625 261.558594 "/>
<path style="fill-rule:nonzero;fill:rgb(89.803922%,22.352941%,20.784314%);fill-opacity:0.65098;stroke-width:0.708661;stroke-linecap:round;stroke-linejoin:round;stroke:rgb(89.803922%,22.352941%,20.784314%);stroke-opacity:0.65098;stroke-miterlimit:10;" d="M 272.363281 317.074219 C 272.363281 320.394531 267.386719 320.394531 267.386719 317.074219 C 267.386719 313.757813 272.363281 313.757813 272.363281 317.074219 "/>
<path style="fill-rule:nonzero;fill:rgb(89.803922%,22.352941%,20.784314%);fill-opacity:0.65098;stroke-width:0.708661;stroke-linecap:round;stroke-linejoin:round;stroke:rgb(89.803922%,22.352941%,20.784314%);stroke-opacity:0.65098;stroke-miterlimit:10;" d="M 389.371094 81.566406 C 389.371094 84.882813 384.394531 84.882813 384.394531 81.566406 C 384.394531 78.25 389.371094 78.25 389.371094 81.566406 "/>
<path style="fill-rule:nonzero;fill:rgb(89.803922%,22.352941%,20.784314%);fill-opacity:0.65098;stroke-width:0.708661;stroke-linecap:round;stroke-linejoin:round;stroke:rgb(89.803922%,22.352941%,20.784314%);stroke-opacity:0.65098;stroke-miterlimit:10;" d="M 454.578125 39.277344 C 454.578125 42.59375 449.601563 42.59375 449.601563 39.277344 C 449.601563 35.960938 454.578125 35.960938 454.578125 39.277344 "/>
<path style="fill-rule:nonzero;fill:rgb(89.803922%,22.352941%,20.784314%);fill-opacity:0.65098;stroke-width:0.708661;stroke-linecap:round;stroke-linejoin:round;stroke:rgb(89.803922%,22.352941%,20.784314%);stroke-opacity:0.65098;stroke-miterlimit:10;" d="M 440.851563 135.226563 C 440.851563 138.542969 435.875 138.542969 435.875 135.226563 C 435.875 131.910156 440.851563 131.910156 440.851563 135.226563 "/>
<path style="fill-rule:nonzero;fill:rgb(89.803922%,22.352941%,20.784314%);fill-opacity:0.65098;stroke-width:0.708661;stroke-linecap:round;stroke-linejoin:round;stroke:rgb(89.803922%,22.352941%,20.784314%);stroke-opacity:0.65098;stroke-miterlimit:10;" d="M 467.203125 62.277344 C 467.203125 65.59375 462.226563 65.59375 462.226563 62.277344 C 462.226563 58.957031 467.203125 58.957031 467.203125 62.277344 "/>
<path style="fill-rule:nonzero;fill:rgb(89.803922%,22.352941%,20.784314%);fill-opacity:0.65098;stroke-width:0.708661;stroke-linecap:round;stroke-linejoin:round;stroke:rgb(89.803922%,22.352941%,20.784314%);stroke-opacity:0.65098;stroke-miterlimit:10;" d="M 458.941406 43.753906 C 458.941406 47.074219 453.964844 47.074219 453.964844 43.753906 C 453.964844 40.4375 458.941406 40.4375 458.941406 43.753906 "/>
<path style="fill-rule:nonzero;fill:rgb(89.803922%,22.352941%,20.784314%);fill-opacity:0.65098;stroke-width:0.708661;stroke-linecap:round;stroke-linejoin:round;stroke:rgb(89.803922%,22.352941%,20.784314%);stroke-opacity:0.65098;stroke-miterlimit:10;" d="M 524.316406 301.773438 C 524.316406 305.09375 519.339844 305.09375 519.339844 301.773438 C 519.339844 298.457031 524.316406 298.457031 524.316406 301.773438 "/>
<path style="fill-rule:nonzero;fill:rgb(89.803922%,22.352941%,20.784314%);fill-opacity:0.65098;stroke-width:0.708661;stroke-linecap:round;stroke-linejoin:round;stroke:rgb(89.803922%,22.352941%,20.784314%);stroke-opacity:0.65098;stroke-miterlimit:10;" d="M 355.121094 190.75 C 355.121094 194.066406 350.144531 194.066406 350.144531 190.75 C 350.144531 187.433594 355.121094 187.433594 355.121094 190.75 "/>
<path style="fill-rule:nonzero;fill:rgb(89.803922%,22.352941%,20.784314%);fill-opacity:0.65098;stroke-width:0.708661;stroke-linecap:round;stroke-linejoin:round;stroke:rgb(89.803922%,22.352941%,20.784314%);stroke-opacity:0.65098;stroke-miterlimit:10;" d="M 517.011719 405.21875 C 517.011719 408.539063 512.035156 408.539063 512.035156 405.21875 C 512.035156 401.902344 517.011719 401.902344 517.011719 405.21875 "/>
<path style="fill-rule:nonzero;fill:rgb(89.803922%,22.352941%,20.784314%);fill-opacity:0.65098;stroke-width:0.708661;stroke-linecap:round;stroke-linejoin:round;stroke:rgb(89.803922%,22.352941%,20.784314%);stroke-opacity:0.65098;stroke-miterlimit:10;" d="M 488.097656 210.023438 C 488.097656 213.339844 483.121094 213.339844 483.121094 210.023438 C 483.121094 206.703125 488.097656 206.703125 488.097656 210.023438 "/>
<path style="fill-rule:nonzero;fill:rgb(89.803922%,22.352941%,20.784314%);fill-opacity:0.65098;stroke-width:0.708661;stroke-linecap:round;stroke-linejoin:round;stroke:rgb(89.803922%,22.352941%,20.784314%);stroke-opacity:0.65098;stroke-miterlimit:10;" d="M 493.339844 45.664063 C 493.339844 48.980469 488.363281 48.980469 488.363281 45.664063 C 488.363281 42.34375 493.339844 42.34375 493.339844 45.664063 "/>
<path style="fill-rule:nonzero;fill:rgb(89.803922%,22.352941%,20.784314%);fill-opacity:0.65098;stroke-width:0.708661;stroke-linecap:round;stroke-linejoin:round;stroke:rgb(89.803922%,22.352941%,20.784314%);stroke-opacity:0.65098;stroke-miterlimit:10;" d="M 245.039063 282.136719 C 245.039063 285.453125 240.0625 285.453125 240.0625 282.136719 C 240.0625 278.820313 245.039063 278.820313 245.039063 282.136719 "/>
<path style="fill-rule:nonzero;fill:rgb(89.803922%,22.352941%,20.784314%);fill-opacity:0.65098;stroke-width:0.708661;stroke-linecap:round;stroke-linejoin:round;stroke:rgb(89.803922%,22.352941%,20.784314%);stroke-opacity:0.65098;stroke-miterlimit:10;" d="M 497.640625 95.308594 C 497.640625 98.628906 492.664063 98.628906 492.664063 95.308594 C 492.664063 91.992188 497.640625 91.992188 497.640625 95.308594 "/>
<path style="fill-rule:nonzero;fill:rgb(89.803922%,22.352941%,20.784314%);fill-opacity:0.65098;stroke-width:0.708661;stroke-linecap:round;stroke-linejoin:round;stroke:rgb(89.803922%,22.352941%,20.784314%);stroke-opacity:0.65098;stroke-miterlimit:10;" d="M 490.355469 126.347656 C 490.355469 129.664063 485.378906 129.664063 485.378906 126.347656 C 485.378906 123.027344 490.355469 123.027344 490.355469 126.347656 "/>
<path style="fill-rule:nonzero;fill:rgb(89.803922%,22.352941%,20.784314%);fill-opacity:0.65098;stroke-width:0.708661;stroke-linecap:round;stroke-linejoin:round;stroke:rgb(89.803922%,22.352941%,20.784314%);stroke-opacity:0.65098;stroke-miterlimit:10;" d="M 491.570313 54.679688 C 491.570313 58 486.59375 58 486.59375 54.679688 C 486.59375 51.363281 491.570313 51.363281 491.570313 54.679688 "/>
<path style="fill-rule:nonzero;fill:rgb(89.803922%,22.352941%,20.784314%);fill-opacity:0.65098;stroke-width:0.708661;stroke-linecap:round;stroke-linejoin:round;stroke:rgb(89.803922%,22.352941%,20.784314%);stroke-opacity:0.65098;stroke-miterlimit:10;" d="M 504.109375 356.238281 C 504.109375 359.554688 499.132813 359.554688 499.132813 356.238281 C 499.132813 352.917969 504.109375 352.917969 504.109375 356.238281 "/>
<path style="fill-rule:nonzero;fill:rgb(89.803922%,22.352941%,20.784314%);fill-opacity:0.65098;stroke-width:0.708661;stroke-linecap:round;stroke-linejoin:round;stroke:rgb(89.803922%,22.352941%,20.784314%);stroke-opacity:0.65098;stroke-miterlimit:10;" d="M 483.109375 43.714844 C 483.109375 47.03125 478.132813 47.03125 478.132813 43.714844 C 478.132813 40.398438 483.109375 40.398438 483.109375 43.714844 "/>
<path style="fill-rule:nonzero;fill:rgb(89.803922%,22.352941%,20.784314%);fill-opacity:0.65098;stroke-width:0.708661;stroke-linecap:round;stroke-linejoin:round;stroke:rgb(89.803922%,22.352941%,20.784314%);stroke-opacity:0.65098;stroke-miterlimit:10;" d="M 485.570313 134.648438 C 485.570313 137.964844 480.59375 137.964844 480.59375 134.648438 C 480.59375 131.332031 485.570313 131.332031 485.570313 134.648438 "/>
<path style="fill-rule:nonzero;fill:rgb(89.803922%,22.352941%,20.784314%);fill-opacity:0.65098;stroke-width:0.708661;stroke-linecap:round;stroke-linejoin:round;stroke:rgb(89.803922%,22.352941%,20.784314%);stroke-opacity:0.65098;stroke-miterlimit:10;" d="M 481.148438 24.039063 C 481.148438 27.359375 476.171875 27.359375 476.171875 24.039063 C 476.171875 20.722656 481.148438 20.722656 481.148438 24.039063 "/>
<path style="fill-rule:nonzero;fill:rgb(89.803922%,22.352941%,20.784314%);fill-opacity:0.65098;stroke-width:0.708661;stroke-linecap:round;stroke-linejoin:round;stroke:rgb(89.803922%,22.352941%,20.784314%);stroke-opacity:0.65098;stroke-miterlimit:10;" d="M 468.503906 39.863281 C 468.503906 43.183594 463.527344 43.183594 463.527344 39.863281 C 463.527344 36.546875 468.503906 36.546875 468.503906 39.863281 "/>
<path style="fill-rule:nonzero;fill:rgb(89.803922%,22.352941%,20.784314%);fill-opacity:0.65098;stroke-width:0.708661;stroke-linecap:round;stroke-linejoin:round;stroke:rgb(89.803922%,22.352941%,20.784314%);stroke-opacity:0.65098;stroke-miterlimit:10;" d="M 370.09375 147.496094 C 370.09375 150.8125 365.117188 150.8125 365.117188 147.496094 C 365.117188 144.179688 370.09375 144.179688 370.09375 147.496094 "/>
<path style="fill-rule:nonzero;fill:rgb(89.803922%,22.352941%,20.784314%);fill-opacity:0.65098;stroke-width:0.708661;stroke-linecap:round;stroke-linejoin:round;stroke:rgb(89.803922%,22.352941%,20.784314%);stroke-opacity:0.65098;stroke-miterlimit:10;" d="M 180.125 262.738281 C 180.125 266.054688 175.148438 266.054688 175.148438 262.738281 C 175.148438 259.421875 180.125 259.421875 180.125 262.738281 "/>
<path style="fill-rule:nonzero;fill:rgb(89.803922%,22.352941%,20.784314%);fill-opacity:0.65098;stroke-width:0.708661;stroke-linecap:round;stroke-linejoin:round;stroke:rgb(89.803922%,22.352941%,20.784314%);stroke-opacity:0.65098;stroke-miterlimit:10;" d="M 232.019531 193.714844 C 232.019531 197.035156 227.042969 197.035156 227.042969 193.714844 C 227.042969 190.398438 232.019531 190.398438 232.019531 193.714844 "/>
<path style="fill-rule:nonzero;fill:rgb(89.803922%,22.352941%,20.784314%);fill-opacity:0.65098;stroke-width:0.708661;stroke-linecap:round;stroke-linejoin:round;stroke:rgb(89.803922%,22.352941%,20.784314%);stroke-opacity:0.65098;stroke-miterlimit:10;" d="M 475.761719 32.746094 C 475.761719 36.0625 470.785156 36.0625 470.785156 32.746094 C 470.785156 29.425781 475.761719 29.425781 475.761719 32.746094 "/>
<path style="fill-rule:nonzero;fill:rgb(89.803922%,22.352941%,20.784314%);fill-opacity:0.65098;stroke-width:0.708661;stroke-linecap:round;stroke-linejoin:round;stroke:rgb(89.803922%,22.352941%,20.784314%);stroke-opacity:0.65098;stroke-miterlimit:10;" d="M 485.972656 45.675781 C 485.972656 48.996094 480.996094 48.996094 480.996094 45.675781 C 480.996094 42.359375 485.972656 42.359375 485.972656 45.675781 "/>
<path style="fill-rule:nonzero;fill:rgb(89.803922%,22.352941%,20.784314%);fill-opacity:0.65098;stroke-width:0.708661;stroke-linecap:round;stroke-linejoin:round;stroke:rgb(89.803922%,22.352941%,20.784314%);stroke-opacity:0.65098;stroke-miterlimit:10;" d="M 492.136719 64.84375 C 492.136719 68.160156 487.160156 68.160156 487.160156 64.84375 C 487.160156 61.527344 492.136719 61.527344 492.136719 64.84375 "/>
<path style="fill-rule:nonzero;fill:rgb(89.803922%,22.352941%,20.784314%);fill-opacity:0.65098;stroke-width:0.708661;stroke-linecap:round;stroke-linejoin:round;stroke:rgb(89.803922%,22.352941%,20.784314%);stroke-opacity:0.65098;stroke-miterlimit:10;" d="M 475.582031 177.457031 C 475.582031 180.773438 470.605469 180.773438 470.605469 177.457031 C 470.605469 174.136719 475.582031 174.136719 475.582031 177.457031 "/>
<path style="fill-rule:nonzero;fill:rgb(89.803922%,22.352941%,20.784314%);fill-opacity:0.65098;stroke-width:0.708661;stroke-linecap:round;stroke-linejoin:round;stroke:rgb(89.803922%,22.352941%,20.784314%);stroke-opacity:0.65098;stroke-miterlimit:10;" d="M 145.835938 322.402344 C 145.835938 325.71875 140.859375 325.71875 140.859375 322.402344 C 140.859375 319.085938 145.835938 319.085938 145.835938 322.402344 "/>
<path style="fill-rule:nonzero;fill:rgb(89.803922%,22.352941%,20.784314%);fill-opacity:0.65098;stroke-width:0.708661;stroke-linecap:round;stroke-linejoin:round;stroke:rgb(89.803922%,22.352941%,20.784314%);stroke-opacity:0.65098;stroke-miterlimit:10;" d="M 269.027344 160.964844 C 269.027344 164.28125 264.050781 164.28125 264.050781 160.964844 C 264.050781 157.644531 269.027344 157.644531 269.027344 160.964844 "/>
<path style="fill-rule:nonzero;fill:rgb(89.803922%,22.352941%,20.784314%);fill-opacity:0.65098;stroke-width:0.708661;stroke-linecap:round;stroke-linejoin:round;stroke:rgb(89.803922%,22.352941%,20.784314%);stroke-opacity:0.65098;stroke-miterlimit:10;" d="M 452.40625 47.40625 C 452.40625 50.726563 447.429688 50.726563 447.429688 47.40625 C 447.429688 44.089844 452.40625 44.089844 452.40625 47.40625 "/>
<path style="fill-rule:nonzero;fill:rgb(89.803922%,22.352941%,20.784314%);fill-opacity:0.65098;stroke-width:0.708661;stroke-linecap:round;stroke-linejoin:round;stroke:rgb(89.803922%,22.352941%,20.784314%);stroke-opacity:0.65098;stroke-miterlimit:10;" d="M 472.917969 24.910156 C 472.917969 28.226563 467.941406 28.226563 467.941406 24.910156 C 467.941406 21.589844 472.917969 21.589844 472.917969 24.910156 "/>
<path style="fill-rule:nonzero;fill:rgb(89.803922%,22.352941%,20.784314%);fill-opacity:0.65098;stroke-width:0.708661;stroke-linecap:round;stroke-linejoin:round;stroke:rgb(89.803922%,22.352941%,20.784314%);stroke-opacity:0.65098;stroke-miterlimit:10;" d="M 491.785156 57.496094 C 491.785156 60.8125 486.808594 60.8125 486.808594 57.496094 C 486.808594 54.179688 491.785156 54.179688 491.785156 57.496094 "/>
<path style="fill-rule:nonzero;fill:rgb(89.803922%,22.352941%,20.784314%);fill-opacity:0.65098;stroke-width:0.708661;stroke-linecap:round;stroke-linejoin:round;stroke:rgb(89.803922%,22.352941%,20.784314%);stroke-opacity:0.65098;stroke-miterlimit:10;" d="M 428.425781 79.945313 C 428.425781 83.261719 423.449219 83.261719 423.449219 79.945313 C 423.449219 76.625 428.425781 76.625 428.425781 79.945313 "/>
<path style="fill-rule:nonzero;fill:rgb(89.803922%,22.352941%,20.784314%);fill-opacity:0.65098;stroke-width:0.708661;stroke-linecap:round;stroke-linejoin:round;stroke:rgb(89.803922%,22.352941%,20.784314%);stroke-opacity:0.65098;stroke-miterlimit:10;" d="M 483.632813 149.679688 C 483.632813 153 478.65625 153 478.65625 149.679688 C 478.65625 146.363281 483.632813 146.363281 483.632813 149.679688 "/>
<path style="fill-rule:nonzero;fill:rgb(89.803922%,22.352941%,20.784314%);fill-opacity:0.65098;stroke-width:0.708661;stroke-linecap:round;stroke-linejoin:round;stroke:rgb(89.803922%,22.352941%,20.784314%);stroke-opacity:0.65098;stroke-miterlimit:10;" d="M 386.765625 81.445313 C 386.765625 84.761719 381.789063 84.761719 381.789063 81.445313 C 381.789063 78.128906 386.765625 78.128906 386.765625 81.445313 "/>
<path style="fill-rule:nonzero;fill:rgb(89.803922%,22.352941%,20.784314%);fill-opacity:0.65098;stroke-width:0.708661;stroke-linecap:round;stroke-linejoin:round;stroke:rgb(89.803922%,22.352941%,20.784314%);stroke-opacity:0.65098;stroke-miterlimit:10;" d="M 438.488281 57.65625 C 438.488281 60.972656 433.511719 60.972656 433.511719 57.65625 C 433.511719 54.335938 438.488281 54.335938 438.488281 57.65625 "/>
<path style="fill-rule:nonzero;fill:rgb(89.803922%,22.352941%,20.784314%);fill-opacity:0.65098;stroke-width:0.708661;stroke-linecap:round;stroke-linejoin:round;stroke:rgb(89.803922%,22.352941%,20.784314%);stroke-opacity:0.65098;stroke-miterlimit:10;" d="M 410.449219 52.6875 C 410.449219 56.003906 405.472656 56.003906 405.472656 52.6875 C 405.472656 49.367188 410.449219 49.367188 410.449219 52.6875 "/>
<path style="fill-rule:nonzero;fill:rgb(89.803922%,22.352941%,20.784314%);fill-opacity:0.65098;stroke-width:0.708661;stroke-linecap:round;stroke-linejoin:round;stroke:rgb(89.803922%,22.352941%,20.784314%);stroke-opacity:0.65098;stroke-miterlimit:10;" d="M 475.207031 67.324219 C 475.207031 70.640625 470.230469 70.640625 470.230469 67.324219 C 470.230469 64.007813 475.207031 64.007813 475.207031 67.324219 "/>
<path style="fill-rule:nonzero;fill:rgb(89.803922%,22.352941%,20.784314%);fill-opacity:0.65098;stroke-width:0.708661;stroke-linecap:round;stroke-linejoin:round;stroke:rgb(89.803922%,22.352941%,20.784314%);stroke-opacity:0.65098;stroke-miterlimit:10;" d="M 181.449219 296.871094 C 181.449219 300.191406 176.472656 300.191406 176.472656 296.871094 C 176.472656 293.554688 181.449219 293.554688 181.449219 296.871094 "/>
<path style="fill-rule:nonzero;fill:rgb(89.803922%,22.352941%,20.784314%);fill-opacity:0.65098;stroke-width:0.708661;stroke-linecap:round;stroke-linejoin:round;stroke:rgb(89.803922%,22.352941%,20.784314%);stroke-opacity:0.65098;stroke-miterlimit:10;" d="M 104.757813 246.890625 C 104.757813 250.207031 99.78125 250.207031 99.78125 246.890625 C 99.78125 243.574219 104.757813 243.574219 104.757813 246.890625 "/>
<path style="fill-rule:nonzero;fill:rgb(89.803922%,22.352941%,20.784314%);fill-opacity:0.65098;stroke-width:0.708661;stroke-linecap:round;stroke-linejoin:round;stroke:rgb(89.803922%,22.352941%,20.784314%);stroke-opacity:0.65098;stroke-miterlimit:10;" d="M 547.902344 387.171875 C 547.902344 390.488281 542.925781 390.488281 542.925781 387.171875 C 542.925781 383.851563 547.902344 383.851563 547.902344 387.171875 "/>
<path style="fill-rule:nonzero;fill:rgb(89.803922%,22.352941%,20.784314%);fill-opacity:0.65098;stroke-width:0.708661;stroke-linecap:round;stroke-linejoin:round;stroke:rgb(89.803922%,22.352941%,20.784314%);stroke-opacity:0.65098;stroke-miterlimit:10;" d="M 399.5625 111.917969 C 399.5625 115.234375 394.585938 115.234375 394.585938 111.917969 C 394.585938 108.597656 399.5625 108.597656 399.5625 111.917969 "/>
<path style="fill-rule:nonzero;fill:rgb(89.803922%,22.352941%,20.784314%);fill-opacity:0.65098;stroke-width:0.708661;stroke-linecap:round;stroke-linejoin:round;stroke:rgb(89.803922%,22.352941%,20.784314%);stroke-opacity:0.65098;stroke-miterlimit:10;" d="M 517.660156 375.019531 C 517.660156 378.339844 512.683594 378.339844 512.683594 375.019531 C 512.683594 371.703125 517.660156 371.703125 517.660156 375.019531 "/>
<path style="fill-rule:nonzero;fill:rgb(89.803922%,22.352941%,20.784314%);fill-opacity:0.65098;stroke-width:0.708661;stroke-linecap:round;stroke-linejoin:round;stroke:rgb(89.803922%,22.352941%,20.784314%);stroke-opacity:0.65098;stroke-miterlimit:10;" d="M 446.214844 47.078125 C 446.214844 50.394531 441.238281 50.394531 441.238281 47.078125 C 441.238281 43.761719 446.214844 43.761719 446.214844 47.078125 "/>
<path style="fill-rule:nonzero;fill:rgb(89.803922%,22.352941%,20.784314%);fill-opacity:0.65098;stroke-width:0.708661;stroke-linecap:round;stroke-linejoin:round;stroke:rgb(89.803922%,22.352941%,20.784314%);stroke-opacity:0.65098;stroke-miterlimit:10;" d="M 500.179688 89.359375 C 500.179688 92.675781 495.203125 92.675781 495.203125 89.359375 C 495.203125 86.039063 500.179688 86.039063 500.179688 89.359375 "/>
<path style="fill-rule:nonzero;fill:rgb(89.803922%,22.352941%,20.784314%);fill-opacity:0.65098;stroke-width:0.708661;stroke-linecap:round;stroke-linejoin:round;stroke:rgb(89.803922%,22.352941%,20.784314%);stroke-opacity:0.65098;stroke-miterlimit:10;" d="M 474.464844 164.796875 C 474.464844 168.117188 469.488281 168.117188 469.488281 164.796875 C 469.488281 161.480469 474.464844 161.480469 474.464844 164.796875 "/>
<path style="fill-rule:nonzero;fill:rgb(89.803922%,22.352941%,20.784314%);fill-opacity:0.65098;stroke-width:0.708661;stroke-linecap:round;stroke-linejoin:round;stroke:rgb(89.803922%,22.352941%,20.784314%);stroke-opacity:0.65098;stroke-miterlimit:10;" d="M 455.554688 47.96875 C 455.554688 51.285156 450.578125 51.285156 450.578125 47.96875 C 450.578125 44.652344 455.554688 44.652344 455.554688 47.96875 "/>
<path style="fill-rule:nonzero;fill:rgb(89.803922%,22.352941%,20.784314%);fill-opacity:0.65098;stroke-width:0.708661;stroke-linecap:round;stroke-linejoin:round;stroke:rgb(89.803922%,22.352941%,20.784314%);stroke-opacity:0.65098;stroke-miterlimit:10;" d="M 439.378906 86.144531 C 439.378906 89.464844 434.402344 89.464844 434.402344 86.144531 C 434.402344 82.828125 439.378906 82.828125 439.378906 86.144531 "/>
<path style="fill-rule:nonzero;fill:rgb(89.803922%,22.352941%,20.784314%);fill-opacity:0.65098;stroke-width:0.708661;stroke-linecap:round;stroke-linejoin:round;stroke:rgb(89.803922%,22.352941%,20.784314%);stroke-opacity:0.65098;stroke-miterlimit:10;" d="M 225.65625 199.5625 C 225.65625 202.878906 220.675781 202.878906 220.675781 199.5625 C 220.675781 196.246094 225.65625 196.246094 225.65625 199.5625 "/>
<path style="fill-rule:nonzero;fill:rgb(89.803922%,22.352941%,20.784314%);fill-opacity:0.65098;stroke-width:0.708661;stroke-linecap:round;stroke-linejoin:round;stroke:rgb(89.803922%,22.352941%,20.784314%);stroke-opacity:0.65098;stroke-miterlimit:10;" d="M 445.957031 40.054688 C 445.957031 43.371094 440.980469 43.371094 440.980469 40.054688 C 440.980469 36.734375 445.957031 36.734375 445.957031 40.054688 "/>
<path style="fill-rule:nonzero;fill:rgb(89.803922%,22.352941%,20.784314%);fill-opacity:0.65098;stroke-width:0.708661;stroke-linecap:round;stroke-linejoin:round;stroke:rgb(89.803922%,22.352941%,20.784314%);stroke-opacity:0.65098;stroke-miterlimit:10;" d="M 470.066406 31.703125 C 470.066406 35.019531 465.089844 35.019531 465.089844 31.703125 C 465.089844 28.386719 470.066406 28.386719 470.066406 31.703125 "/>
<path style="fill-rule:nonzero;fill:rgb(89.803922%,22.352941%,20.784314%);fill-opacity:0.65098;stroke-width:0.708661;stroke-linecap:round;stroke-linejoin:round;stroke:rgb(89.803922%,22.352941%,20.784314%);stroke-opacity:0.65098;stroke-miterlimit:10;" d="M 430.203125 112.207031 C 430.203125 115.527344 425.226563 115.527344 425.226563 112.207031 C 425.226563 108.890625 430.203125 108.890625 430.203125 112.207031 "/>
<path style="fill-rule:nonzero;fill:rgb(89.803922%,22.352941%,20.784314%);fill-opacity:0.65098;stroke-width:0.708661;stroke-linecap:round;stroke-linejoin:round;stroke:rgb(89.803922%,22.352941%,20.784314%);stroke-opacity:0.65098;stroke-miterlimit:10;" d="M 327.761719 156.839844 C 327.761719 160.15625 322.785156 160.15625 322.785156 156.839844 C 322.785156 153.519531 327.761719 153.519531 327.761719 156.839844 "/>
<path style="fill-rule:nonzero;fill:rgb(89.803922%,22.352941%,20.784314%);fill-opacity:0.65098;stroke-width:0.708661;stroke-linecap:round;stroke-linejoin:round;stroke:rgb(89.803922%,22.352941%,20.784314%);stroke-opacity:0.65098;stroke-miterlimit:10;" d="M 473.070313 152.148438 C 473.070313 155.46875 468.09375 155.46875 468.09375 152.148438 C 468.09375 148.832031 473.070313 148.832031 473.070313 152.148438 "/>
<path style="fill-rule:nonzero;fill:rgb(89.803922%,22.352941%,20.784314%);fill-opacity:0.65098;stroke-width:0.708661;stroke-linecap:round;stroke-linejoin:round;stroke:rgb(89.803922%,22.352941%,20.784314%);stroke-opacity:0.65098;stroke-miterlimit:10;" d="M 308.980469 108.621094 C 308.980469 111.941406 304.003906 111.941406 304.003906 108.621094 C 304.003906 105.304688 308.980469 105.304688 308.980469 108.621094 "/>
<path style="fill-rule:nonzero;fill:rgb(89.803922%,22.352941%,20.784314%);fill-opacity:0.65098;stroke-width:0.708661;stroke-linecap:round;stroke-linejoin:round;stroke:rgb(89.803922%,22.352941%,20.784314%);stroke-opacity:0.65098;stroke-miterlimit:10;" d="M 486.078125 61.589844 C 486.078125 64.90625 481.101563 64.90625 481.101563 61.589844 C 481.101563 58.269531 486.078125 58.269531 486.078125 61.589844 "/>
<path style="fill-rule:nonzero;fill:rgb(89.803922%,22.352941%,20.784314%);fill-opacity:0.65098;stroke-width:0.708661;stroke-linecap:round;stroke-linejoin:round;stroke:rgb(89.803922%,22.352941%,20.784314%);stroke-opacity:0.65098;stroke-miterlimit:10;" d="M 433.84375 68.789063 C 433.84375 72.105469 428.867188 72.105469 428.867188 68.789063 C 428.867188 65.46875 433.84375 65.46875 433.84375 68.789063 "/>
<path style="fill-rule:nonzero;fill:rgb(89.803922%,22.352941%,20.784314%);fill-opacity:0.65098;stroke-width:0.708661;stroke-linecap:round;stroke-linejoin:round;stroke:rgb(89.803922%,22.352941%,20.784314%);stroke-opacity:0.65098;stroke-miterlimit:10;" d="M 515.820313 282.359375 C 515.820313 285.675781 510.84375 285.675781 510.84375 282.359375 C 510.84375 279.042969 515.820313 279.042969 515.820313 282.359375 "/>
<path style="fill-rule:nonzero;fill:rgb(89.803922%,22.352941%,20.784314%);fill-opacity:0.65098;stroke-width:0.708661;stroke-linecap:round;stroke-linejoin:round;stroke:rgb(89.803922%,22.352941%,20.784314%);stroke-opacity:0.65098;stroke-miterlimit:10;" d="M 491.679688 40.40625 C 491.679688 43.722656 486.703125 43.722656 486.703125 40.40625 C 486.703125 37.089844 491.679688 37.089844 491.679688 40.40625 "/>
<path style="fill-rule:nonzero;fill:rgb(89.803922%,22.352941%,20.784314%);fill-opacity:0.65098;stroke-width:0.708661;stroke-linecap:round;stroke-linejoin:round;stroke:rgb(89.803922%,22.352941%,20.784314%);stroke-opacity:0.65098;stroke-miterlimit:10;" d="M 231.074219 322.894531 C 231.074219 326.210938 226.097656 326.210938 226.097656 322.894531 C 226.097656 319.578125 231.074219 319.578125 231.074219 322.894531 "/>
<path style="fill-rule:nonzero;fill:rgb(89.803922%,22.352941%,20.784314%);fill-opacity:0.65098;stroke-width:0.708661;stroke-linecap:round;stroke-linejoin:round;stroke:rgb(89.803922%,22.352941%,20.784314%);stroke-opacity:0.65098;stroke-miterlimit:10;" d="M 416.875 68.136719 C 416.875 71.453125 411.898438 71.453125 411.898438 68.136719 C 411.898438 64.816406 416.875 64.816406 416.875 68.136719 "/>
<path style="fill-rule:nonzero;fill:rgb(89.803922%,22.352941%,20.784314%);fill-opacity:0.65098;stroke-width:0.708661;stroke-linecap:round;stroke-linejoin:round;stroke:rgb(89.803922%,22.352941%,20.784314%);stroke-opacity:0.65098;stroke-miterlimit:10;" d="M 486.046875 30.339844 C 486.046875 33.65625 481.070313 33.65625 481.070313 30.339844 C 481.070313 27.019531 486.046875 27.019531 486.046875 30.339844 "/>
<path style="fill-rule:nonzero;fill:rgb(89.803922%,22.352941%,20.784314%);fill-opacity:0.65098;stroke-width:0.708661;stroke-linecap:round;stroke-linejoin:round;stroke:rgb(89.803922%,22.352941%,20.784314%);stroke-opacity:0.65098;stroke-miterlimit:10;" d="M 321.976563 286.234375 C 321.976563 289.550781 317 289.550781 317 286.234375 C 317 282.914063 321.976563 282.914063 321.976563 286.234375 "/>
<path style="fill-rule:nonzero;fill:rgb(89.803922%,22.352941%,20.784314%);fill-opacity:0.65098;stroke-width:0.708661;stroke-linecap:round;stroke-linejoin:round;stroke:rgb(89.803922%,22.352941%,20.784314%);stroke-opacity:0.65098;stroke-miterlimit:10;" d="M 502.144531 169.996094 C 502.144531 173.316406 497.167969 173.316406 497.167969 169.996094 C 497.167969 166.679688 502.144531 166.679688 502.144531 169.996094 "/>
<path style="fill-rule:nonzero;fill:rgb(89.803922%,22.352941%,20.784314%);fill-opacity:0.65098;stroke-width:0.708661;stroke-linecap:round;stroke-linejoin:round;stroke:rgb(89.803922%,22.352941%,20.784314%);stroke-opacity:0.65098;stroke-miterlimit:10;" d="M 486.085938 38.90625 C 486.085938 42.222656 481.109375 42.222656 481.109375 38.90625 C 481.109375 35.589844 486.085938 35.589844 486.085938 38.90625 "/>
<path style="fill-rule:nonzero;fill:rgb(89.803922%,22.352941%,20.784314%);fill-opacity:0.65098;stroke-width:0.708661;stroke-linecap:round;stroke-linejoin:round;stroke:rgb(89.803922%,22.352941%,20.784314%);stroke-opacity:0.65098;stroke-miterlimit:10;" d="M 462.386719 32.785156 C 462.386719 36.101563 457.410156 36.101563 457.410156 32.785156 C 457.410156 29.464844 462.386719 29.464844 462.386719 32.785156 "/>
<path style="fill-rule:nonzero;fill:rgb(89.803922%,22.352941%,20.784314%);fill-opacity:0.65098;stroke-width:0.708661;stroke-linecap:round;stroke-linejoin:round;stroke:rgb(89.803922%,22.352941%,20.784314%);stroke-opacity:0.65098;stroke-miterlimit:10;" d="M 35.8125 346.234375 C 35.8125 349.550781 30.835938 349.550781 30.835938 346.234375 C 30.835938 342.914063 35.8125 342.914063 35.8125 346.234375 "/>
<path style="fill-rule:nonzero;fill:rgb(89.803922%,22.352941%,20.784314%);fill-opacity:0.65098;stroke-width:0.708661;stroke-linecap:round;stroke-linejoin:round;stroke:rgb(89.803922%,22.352941%,20.784314%);stroke-opacity:0.65098;stroke-miterlimit:10;" d="M 397.984375 74.308594 C 397.984375 77.625 393.007813 77.625 393.007813 74.308594 C 393.007813 70.988281 397.984375 70.988281 397.984375 74.308594 "/>
<path style="fill-rule:nonzero;fill:rgb(89.803922%,22.352941%,20.784314%);fill-opacity:0.65098;stroke-width:0.708661;stroke-linecap:round;stroke-linejoin:round;stroke:rgb(89.803922%,22.352941%,20.784314%);stroke-opacity:0.65098;stroke-miterlimit:10;" d="M 468.632813 52.066406 C 468.632813 55.386719 463.65625 55.386719 463.65625 52.066406 C 463.65625 48.75 468.632813 48.75 468.632813 52.066406 "/>
<path style="fill-rule:nonzero;fill:rgb(89.803922%,22.352941%,20.784314%);fill-opacity:0.65098;stroke-width:0.708661;stroke-linecap:round;stroke-linejoin:round;stroke:rgb(89.803922%,22.352941%,20.784314%);stroke-opacity:0.65098;stroke-miterlimit:10;" d="M 406.308594 84.609375 C 406.308594 87.929688 401.332031 87.929688 401.332031 84.609375 C 401.332031 81.292969 406.308594 81.292969 406.308594 84.609375 "/>
<path style="fill-rule:nonzero;fill:rgb(89.803922%,22.352941%,20.784314%);fill-opacity:0.65098;stroke-width:0.708661;stroke-linecap:round;stroke-linejoin:round;stroke:rgb(89.803922%,22.352941%,20.784314%);stroke-opacity:0.65098;stroke-miterlimit:10;" d="M 373.359375 114.066406 C 373.359375 117.382813 368.382813 117.382813 368.382813 114.066406 C 368.382813 110.75 373.359375 110.75 373.359375 114.066406 "/>
<path style="fill-rule:nonzero;fill:rgb(89.803922%,22.352941%,20.784314%);fill-opacity:0.65098;stroke-width:0.708661;stroke-linecap:round;stroke-linejoin:round;stroke:rgb(89.803922%,22.352941%,20.784314%);stroke-opacity:0.65098;stroke-miterlimit:10;" d="M 59.949219 361.582031 C 59.949219 364.902344 54.972656 364.902344 54.972656 361.582031 C 54.972656 358.265625 59.949219 358.265625 59.949219 361.582031 "/>
<path style="fill-rule:nonzero;fill:rgb(89.803922%,22.352941%,20.784314%);fill-opacity:0.65098;stroke-width:0.708661;stroke-linecap:round;stroke-linejoin:round;stroke:rgb(89.803922%,22.352941%,20.784314%);stroke-opacity:0.65098;stroke-miterlimit:10;" d="M 424.164063 245.046875 C 424.164063 248.363281 419.1875 248.363281 419.1875 245.046875 C 419.1875 241.726563 424.164063 241.726563 424.164063 245.046875 "/>
<path style="fill-rule:nonzero;fill:rgb(89.803922%,22.352941%,20.784314%);fill-opacity:0.65098;stroke-width:0.708661;stroke-linecap:round;stroke-linejoin:round;stroke:rgb(89.803922%,22.352941%,20.784314%);stroke-opacity:0.65098;stroke-miterlimit:10;" d="M 414.160156 181.738281 C 414.160156 185.054688 409.183594 185.054688 409.183594 181.738281 C 409.183594 178.417969 414.160156 178.417969 414.160156 181.738281 "/>
<path style="fill-rule:nonzero;fill:rgb(89.803922%,22.352941%,20.784314%);fill-opacity:0.65098;stroke-width:0.708661;stroke-linecap:round;stroke-linejoin:round;stroke:rgb(89.803922%,22.352941%,20.784314%);stroke-opacity:0.65098;stroke-miterlimit:10;" d="M 523.609375 276.605469 C 523.609375 279.925781 518.632813 279.925781 518.632813 276.605469 C 518.632813 273.289063 523.609375 273.289063 523.609375 276.605469 "/>
<path style="fill-rule:nonzero;fill:rgb(89.803922%,22.352941%,20.784314%);fill-opacity:0.65098;stroke-width:0.708661;stroke-linecap:round;stroke-linejoin:round;stroke:rgb(89.803922%,22.352941%,20.784314%);stroke-opacity:0.65098;stroke-miterlimit:10;" d="M 387.003906 82.027344 C 387.003906 85.34375 382.027344 85.34375 382.027344 82.027344 C 382.027344 78.707031 387.003906 78.707031 387.003906 82.027344 "/>
<path style="fill-rule:nonzero;fill:rgb(89.803922%,22.352941%,20.784314%);fill-opacity:0.65098;stroke-width:0.708661;stroke-linecap:round;stroke-linejoin:round;stroke:rgb(89.803922%,22.352941%,20.784314%);stroke-opacity:0.65098;stroke-miterlimit:10;" d="M 475.8125 106.648438 C 475.8125 109.964844 470.835938 109.964844 470.835938 106.648438 C 470.835938 103.328125 475.8125 103.328125 475.8125 106.648438 "/>
</g>
</g>
</svg>
