<?xml version="1.0" encoding="UTF-8"?>
<svg xmlns="http://www.w3.org/2000/svg" xmlns:xlink="http://www.w3.org/1999/xlink" width="576pt" height="432pt" viewBox="0 0 576 432" version="1.1">
<defs>
<clipPath id="clip1">
  <path d="M 7.722656 4.980469 L 572.019531 4.980469 L 572.019531 425.277344 L 7.722656 425.277344 Z M 7.722656 4.980469 "/>
</clipPath>
</defs>
<g id="surface42">
<rect x="0" y="0" width="576" height="432" style="fill:rgb(100%,100%,100%);fill-opacity:1;stroke:none;"/>
<g clip-path="url(#clip1)" clip-rule="nonzero">
<path style="fill-rule:nonzero;fill:rgb(89.803922%,22.352941%,20.784314%);fill-opacity:0.65098;stroke-width:0.708661;stroke-linecap:round;stroke-linejoin:round;stroke:rgb(89.803922%,22.352941%,20.784314%);stroke-opacity:0.65098;stroke-miterlimit:10;" d="M 512.066406 95.007813 C 512.066406 98.324219 507.089844 98.324219 507.089844 95.007813 C 507.089844 91.691406 512.066406 91.691406 512.066406 95.007813 "/>
<path style="fill-rule:nonzero;fill:rgb(89.803922%,22.352941%,20.784314%);fill-opacity:0.65098;stroke-width:0.708661;stroke-linecap:round;stroke-linejoin:round;stroke:rgb(89.803922%,22.352941%,20.784314%);stroke-opacity:0.65098;stroke-miterlimit:10;" d="M 361.371094 236.246094 C 361.371094 239.5625 356.394531 239.5625 356.394531 236.246094 C 356.394531 232.929688 361.371094 232.929688 361.371094 236.246094 "/>
<path style="fill-rule:nonzero;fill:rgb(89.803922%,22.352941%,20.784314%);fill-opacity:0.65098;stroke-width:0.708661;stroke-linecap:round;stroke-linejoin:round;stroke:rgb(89.803922%,22.352941%,20.784314%);stroke-opacity:0.65098;stroke-miterlimit:10;" d="M 519.441406 61.03125 C 519.441406 64.347656 514.464844 64.347656 514.464844 61.03125 C 514.464844 57.710938 519.441406 57.710938 519.441406 61.03125 "/>
<path style="fill-rule:nonzero;fill:rgb(89.803922%,22.352941%,20.784314%);fill-opacity:0.65098;stroke-width:0.708661;stroke-linecap:round;stroke-linejoin:round;stroke:rgb(89.803922%,22.352941%,20.784314%);stroke-opacity:0.65098;stroke-miterlimit:10;" d="M 525.960938 106.234375 C 525.960938 109.554688 520.984375 109.554688 520.984375 106.234375 C 520.984375 102.917969 525.960938 102.917969 525.960938 106.234375 "/>
<path style="fill-rule:nonzero;fill:rgb(89.803922%,22.352941%,20.784314%);fill-opacity:0.65098;stroke-width:0.708661;stroke-linecap:round;stroke-linejoin:round;stroke:rgb(89.803922%,22.352941%,20.784314%);stroke-opacity:0.65098;stroke-miterlimit:10;" d="M 394.757813 91.011719 C 394.757813 94.328125 389.78125 94.328125 389.78125 91.011719 C 389.78125 87.695313 394.757813 87.695313 394.757813 91.011719 "/>
<path style="fill-rule:nonzero;fill:rgb(89.803922%,22.352941%,20.784314%);fill-opacity:0.65098;stroke-width:0.708661;stroke-linecap:round;stroke-linejoin:round;stroke:rgb(89.803922%,22.352941%,20.784314%);stroke-opacity:0.65098;stroke-miterlimit:10;" d="M 522.414063 57.828125 C 522.414063 61.144531 517.4375 61.144531 517.4375 57.828125 C 517.4375 54.511719 522.414063 54.511719 522.414063 57.828125 "/>
<path style="fill-rule:nonzero;fill:rgb(89.803922%,22.352941%,20.784314%);fill-opacity:0.65098;stroke-width:0.708661;stroke-linecap:round;stroke-linejoin:round;stroke:rgb(89.803922%,22.352941%,20.784314%);stroke-opacity:0.65098;stroke-miterlimit:10;" d="M 164.433594 186.753906 C 164.433594 190.070313 159.457031 190.070313 159.457031 186.753906 C 159.457031 183.4375 164.433594 183.4375 164.433594 186.753906 "/>
<path style="fill-rule:nonzero;fill:rgb(89.803922%,22.352941%,20.784314%);fill-opacity:0.65098;stroke-width:0.708661;stroke-linecap:round;stroke-linejoin:round;stroke:rgb(89.803922%,22.352941%,20.784314%);stroke-opacity:0.65098;stroke-miterlimit:10;" d="M 485.117188 108.804688 C 485.117188 112.121094 480.140625 112.121094 480.140625 108.804688 C 480.140625 105.488281 485.117188 105.488281 485.117188 108.804688 "/>
<path style="fill-rule:nonzero;fill:rgb(89.803922%,22.352941%,20.784314%);fill-opacity:0.65098;stroke-width:0.708661;stroke-linecap:round;stroke-linejoin:round;stroke:rgb(89.803922%,22.352941%,20.784314%);stroke-opacity:0.65098;stroke-miterlimit:10;" d="M 531.082031 69.664063 C 531.082031 72.980469 526.105469 72.980469 526.105469 69.664063 C 526.105469 66.347656 531.082031 66.347656 531.082031 69.664063 "/>
<path style="fill-rule:nonzero;fill:rgb(89.803922%,22.352941%,20.784314%);fill-opacity:0.65098;stroke-width:0.708661;stroke-linecap:round;stroke-linejoin:round;stroke:rgb(89.803922%,22.352941%,20.784314%);stroke-opacity:0.65098;stroke-miterlimit:10;" d="M 547.511719 61.464844 C 547.511719 64.78125 542.535156 64.78125 542.535156 61.464844 C 542.535156 58.148438 547.511719 58.148438 547.511719 61.464844 "/>
<path style="fill-rule:nonzero;fill:rgb(89.803922%,22.352941%,20.784314%);fill-opacity:0.65098;stroke-width:0.708661;stroke-linecap:round;stroke-linejoin:round;stroke:rgb(89.803922%,22.352941%,20.784314%);stroke-opacity:0.65098;stroke-miterlimit:10;" d="M 527.71875 77.566406 C 527.71875 80.882813 522.742188 80.882813 522.742188 77.566406 C 522.742188 74.246094 527.71875 74.246094 527.71875 77.566406 "/>
<path style="fill-rule:nonzero;fill:rgb(89.803922%,22.352941%,20.784314%);fill-opacity:0.65098;stroke-width:0.708661;stroke-linecap:round;stroke-linejoin:round;stroke:rgb(89.803922%,22.352941%,20.784314%);stroke-opacity:0.65098;stroke-miterlimit:10;" d="M 520.109375 61.425781 C 520.109375 64.742188 515.132813 64.742188 515.132813 61.425781 C 515.132813 58.105469 520.109375 58.105469 520.109375 61.425781 "/>
<path style="fill-rule:nonzero;fill:rgb(89.803922%,22.352941%,20.784314%);fill-opacity:0.65098;stroke-width:0.708661;stroke-linecap:round;stroke-linejoin:round;stroke:rgb(89.803922%,22.352941%,20.784314%);stroke-opacity:0.65098;stroke-miterlimit:10;" d="M 535.765625 76.609375 C 535.765625 79.929688 530.789063 79.929688 530.789063 76.609375 C 530.789063 73.292969 535.765625 73.292969 535.765625 76.609375 "/>
<path style="fill-rule:nonzero;fill:rgb(89.803922%,22.352941%,20.784314%);fill-opacity:0.65098;stroke-width:0.708661;stroke-linecap:round;stroke-linejoin:round;stroke:rgb(89.803922%,22.352941%,20.784314%);stroke-opacity:0.65098;stroke-miterlimit:10;" d="M 507.945313 84.179688 C 507.945313 87.496094 502.96875 87.496094 502.96875 84.179688 C 502.96875 80.863281 507.945313 80.863281 507.945313 84.179688 "/>
<path style="fill-rule:nonzero;fill:rgb(89.803922%,22.352941%,20.784314%);fill-opacity:0.65098;stroke-width:0.708661;stroke-linecap:round;stroke-linejoin:round;stroke:rgb(89.803922%,22.352941%,20.784314%);stroke-opacity:0.65098;stroke-miterlimit:10;" d="M 519.550781 53.425781 C 519.550781 56.746094 514.574219 56.746094 514.574219 53.425781 C 514.574219 50.109375 519.550781 50.109375 519.550781 53.425781 "/>
<path style="fill-rule:nonzero;fill:rgb(89.803922%,22.352941%,20.784314%);fill-opacity:0.65098;stroke-width:0.708661;stroke-linecap:round;stroke-linejoin:round;stroke:rgb(89.803922%,22.352941%,20.784314%);stroke-opacity:0.65098;stroke-miterlimit:10;" d="M 505.632813 68.371094 C 505.632813 71.691406 500.65625 71.691406 500.65625 68.371094 C 500.65625 65.054688 505.632813 65.054688 505.632813 68.371094 "/>
<path style="fill-rule:nonzero;fill:rgb(89.803922%,22.352941%,20.784314%);fill-opacity:0.65098;stroke-width:0.708661;stroke-linecap:round;stroke-linejoin:round;stroke:rgb(89.803922%,22.352941%,20.784314%);stroke-opacity:0.65098;stroke-miterlimit:10;" d="M 516.796875 63.039063 C 516.796875 66.359375 511.820313 66.359375 511.820313 63.039063 C 511.820313 59.722656 516.796875 59.722656 516.796875 63.039063 "/>
<path style="fill-rule:nonzero;fill:rgb(89.803922%,22.352941%,20.784314%);fill-opacity:0.65098;stroke-width:0.708661;stroke-linecap:round;stroke-linejoin:round;stroke:rgb(89.803922%,22.352941%,20.784314%);stroke-opacity:0.65098;stroke-miterlimit:10;" d="M 481.144531 70.582031 C 481.144531 73.898438 476.167969 73.898438 476.167969 70.582031 C 476.167969 67.265625 481.144531 67.265625 481.144531 70.582031 "/>
<path style="fill-rule:nonzero;fill:rgb(89.803922%,22.352941%,20.784314%);fill-opacity:0.65098;stroke-width:0.708661;stroke-linecap:round;stroke-linejoin:round;stroke:rgb(89.803922%,22.352941%,20.784314%);stroke-opacity:0.65098;stroke-miterlimit:10;" d="M 502.03125 70.019531 C 502.03125 73.339844 497.054688 73.339844 497.054688 70.019531 C 497.054688 66.703125 502.03125 66.703125 502.03125 70.019531 "/>
<path style="fill-rule:nonzero;fill:rgb(89.803922%,22.352941%,20.784314%);fill-opacity:0.65098;stroke-width:0.708661;stroke-linecap:round;stroke-linejoin:round;stroke:rgb(89.803922%,22.352941%,20.784314%);stroke-opacity:0.65098;stroke-miterlimit:10;" d="M 490.582031 118.222656 C 490.582031 121.542969 485.605469 121.542969 485.605469 118.222656 C 485.605469 114.90625 490.582031 114.90625 490.582031 118.222656 "/>
<path style="fill-rule:nonzero;fill:rgb(89.803922%,22.352941%,20.784314%);fill-opacity:0.65098;stroke-width:0.708661;stroke-linecap:round;stroke-linejoin:round;stroke:rgb(89.803922%,22.352941%,20.784314%);stroke-opacity:0.65098;stroke-miterlimit:10;" d="M 508.289063 78.359375 C 508.289063 81.679688 503.3125 81.679688 503.3125 78.359375 C 503.3125 75.042969 508.289063 75.042969 508.289063 78.359375 "/>
<path style="fill-rule:nonzero;fill:rgb(89.803922%,22.352941%,20.784314%);fill-opacity:0.65098;stroke-width:0.708661;stroke-linecap:round;stroke-linejoin:round;stroke:rgb(89.803922%,22.352941%,20.784314%);stroke-opacity:0.65098;stroke-miterlimit:10;" d="M 509.347656 55.375 C 509.347656 58.695313 504.371094 58.695313 504.371094 55.375 C 504.371094 52.058594 509.347656 52.058594 509.347656 55.375 "/>
<path style="fill-rule:nonzero;fill:rgb(89.803922%,22.352941%,20.784314%);fill-opacity:0.65098;stroke-width:0.708661;stroke-linecap:round;stroke-linejoin:round;stroke:rgb(89.803922%,22.352941%,20.784314%);stroke-opacity:0.65098;stroke-miterlimit:10;" d="M 384.386719 44.992188 C 384.386719 48.308594 379.410156 48.308594 379.410156 44.992188 C 379.410156 41.671875 384.386719 41.671875 384.386719 44.992188 "/>
<path style="fill-rule:nonzero;fill:rgb(89.803922%,22.352941%,20.784314%);fill-opacity:0.65098;stroke-width:0.708661;stroke-linecap:round;stroke-linejoin:round;stroke:rgb(89.803922%,22.352941%,20.784314%);stroke-opacity:0.65098;stroke-miterlimit:10;" d="M 273.820313 237.011719 C 273.820313 240.332031 268.84375 240.332031 268.84375 237.011719 C 268.84375 233.695313 273.820313 233.695313 273.820313 237.011719 "/>
<path style="fill-rule:nonzero;fill:rgb(89.803922%,22.352941%,20.784314%);fill-opacity:0.65098;stroke-width:0.708661;stroke-linecap:round;stroke-linejoin:round;stroke:rgb(89.803922%,22.352941%,20.784314%);stroke-opacity:0.65098;stroke-miterlimit:10;" d="M 173.675781 223.796875 C 173.675781 227.113281 168.699219 227.113281 168.699219 223.796875 C 168.699219 220.480469 173.675781 220.480469 173.675781 223.796875 "/>
<path style="fill-rule:nonzero;fill:rgb(89.803922%,22.352941%,20.784314%);fill-opacity:0.65098;stroke-width:0.708661;stroke-linecap:round;stroke-linejoin:round;stroke:rgb(89.803922%,22.352941%,20.784314%);stroke-opacity:0.65098;stroke-miterlimit:10;" d="M 486.597656 114.988281 C 486.597656 118.304688 481.621094 118.304688 481.621094 114.988281 C 481.621094 111.667969 486.597656 111.667969 486.597656 114.988281 "/>
<path style="fill-rule:nonzero;fill:rgb(89.803922%,22.352941%,20.784314%);fill-opacity:0.65098;stroke-width:0.708661;stroke-linecap:round;stroke-linejoin:round;stroke:rgb(89.803922%,22.352941%,20.784314%);stroke-opacity:0.65098;stroke-miterlimit:10;" d="M 531.6875 75.464844 C 531.6875 78.78125 526.710938 78.78125 526.710938 75.464844 C 526.710938 72.144531 531.6875 72.144531 531.6875 75.464844 "/>
<path style="fill-rule:nonzero;fill:rgb(89.803922%,22.352941%,20.784314%);fill-opacity:0.65098;stroke-width:0.708661;stroke-linecap:round;stroke-linejoin:round;stroke:rgb(89.803922%,22.352941%,20.784314%);stroke-opacity:0.65098;stroke-miterlimit:10;" d="M 403.085938 88.3125 C 403.085938 91.632813 398.109375 91.632813 398.109375 88.3125 C 398.109375 84.996094 403.085938 84.996094 403.085938 88.3125 "/>
<path style="fill-rule:nonzero;fill:rgb(89.803922%,22.352941%,20.784314%);fill-opacity:0.65098;stroke-width:0.708661;stroke-linecap:round;stroke-linejoin:round;stroke:rgb(89.803922%,22.352941%,20.784314%);stroke-opacity:0.65098;stroke-miterlimit:10;" d="M 501.257813 67.941406 C 501.257813 71.257813 496.28125 71.257813 496.28125 67.941406 C 496.28125 64.625 501.257813 64.625 501.257813 67.941406 "/>
<path style="fill-rule:nonzero;fill:rgb(89.803922%,22.352941%,20.784314%);fill-opacity:0.65098;stroke-width:0.708661;stroke-linecap:round;stroke-linejoin:round;stroke:rgb(89.803922%,22.352941%,20.784314%);stroke-opacity:0.65098;stroke-miterlimit:10;" d="M 524.265625 67.886719 C 524.265625 71.207031 519.289063 71.207031 519.289063 67.886719 C 519.289063 64.570313 524.265625 64.570313 524.265625 67.886719 "/>
<path style="fill-rule:nonzero;fill:rgb(89.803922%,22.352941%,20.784314%);fill-opacity:0.65098;stroke-width:0.708661;stroke-linecap:round;stroke-linejoin:round;stroke:rgb(89.803922%,22.352941%,20.784314%);stroke-opacity:0.65098;stroke-miterlimit:10;" d="M 149.378906 38.011719 C 149.378906 41.328125 144.402344 41.328125 144.402344 38.011719 C 144.402344 34.691406 149.378906 34.691406 149.378906 38.011719 "/>
<path style="fill-rule:nonzero;fill:rgb(89.803922%,22.352941%,20.784314%);fill-opacity:0.65098;stroke-width:0.708661;stroke-linecap:round;stroke-linejoin:round;stroke:rgb(89.803922%,22.352941%,20.784314%);stroke-opacity:0.65098;stroke-miterlimit:10;" d="M 345.417969 141.46875 C 345.417969 144.785156 340.441406 144.785156 340.441406 141.46875 C 340.441406 138.152344 345.417969 138.152344 345.417969 141.46875 "/>
<path style="fill-rule:nonzero;fill:rgb(89.803922%,22.352941%,20.784314%);fill-opacity:0.65098;stroke-width:0.708661;stroke-linecap:round;stroke-linejoin:round;stroke:rgb(89.803922%,22.352941%,20.784314%);stroke-opacity:0.65098;stroke-miterlimit:10;" d="M 35.8125 44.074219 C 35.8125 47.390625 30.835938 47.390625 30.835938 44.074219 C 30.835938 40.753906 35.8125 40.753906 35.8125 44.074219 "/>
<path style="fill-rule:nonzero;fill:rgb(89.803922%,22.352941%,20.784314%);fill-opacity:0.65098;stroke-width:0.708661;stroke-linecap:round;stroke-linejoin:round;stroke:rgb(89.803922%,22.352941%,20.784314%);stroke-opacity:0.65098;stroke-miterlimit:10;" d="M 293.5 57.875 C 293.5 61.195313 288.523438 61.195313 288.523438 57.875 C 288.523438 54.558594 293.5 54.558594 293.5 57.875 "/>
<path style="fill-rule:nonzero;fill:rgb(89.803922%,22.352941%,20.784314%);fill-opacity:0.65098;stroke-width:0.708661;stroke-linecap:round;stroke-linejoin:round;stroke:rgb(89.803922%,22.352941%,20.784314%);stroke-opacity:0.65098;stroke-miterlimit:10;" d="M 517.253906 51.125 C 517.253906 54.441406 512.277344 54.441406 512.277344 51.125 C 512.277344 47.804688 517.253906 47.804688 517.253906 51.125 "/>
<path style="fill-rule:nonzero;fill:rgb(89.803922%,22.352941%,20.784314%);fill-opacity:0.65098;stroke-width:0.708661;stroke-linecap:round;stroke-linejoin:round;stroke:rgb(89.803922%,22.352941%,20.784314%);stroke-opacity:0.65098;stroke-miterlimit:10;" d="M 213.253906 242.734375 C 213.253906 246.050781 208.277344 246.050781 208.277344 242.734375 C 208.277344 239.414063 213.253906 239.414063 213.253906 242.734375 "/>
<path style="fill-rule:nonzero;fill:rgb(89.803922%,22.352941%,20.784314%);fill-opacity:0.65098;stroke-width:0.708661;stroke-linecap:round;stroke-linejoin:round;stroke:rgb(89.803922%,22.352941%,20.784314%);stroke-opacity:0.65098;stroke-miterlimit:10;" d="M 446.550781 49.96875 C 446.550781 53.285156 441.574219 53.285156 441.574219 49.96875 C 441.574219 46.652344 446.550781 46.652344 446.550781 49.96875 "/>
<path style="fill-rule:nonzero;fill:rgb(89.803922%,22.352941%,20.784314%);fill-opacity:0.65098;stroke-width:0.708661;stroke-linecap:round;stroke-linejoin:round;stroke:rgb(89.803922%,22.352941%,20.784314%);stroke-opacity:0.65098;stroke-miterlimit:10;" d="M 408.640625 54.894531 C 408.640625 58.210938 403.664063 58.210938 403.664063 54.894531 C 403.664063 51.578125 408.640625 51.578125 408.640625 54.894531 "/>
<path style="fill-rule:nonzero;fill:rgb(89.803922%,22.352941%,20.784314%);fill-opacity:0.65098;stroke-width:0.708661;stroke-linecap:round;stroke-linejoin:round;stroke:rgb(89.803922%,22.352941%,20.784314%);stroke-opacity:0.65098;stroke-miterlimit:10;" d="M 506.636719 51.671875 C 506.636719 54.988281 501.660156 54.988281 501.660156 51.671875 C 501.660156 48.351563 506.636719 48.351563 506.636719 51.671875 "/>
<path style="fill-rule:nonzero;fill:rgb(89.803922%,22.352941%,20.784314%);fill-opacity:0.65098;stroke-width:0.708661;stroke-linecap:round;stroke-linejoin:round;stroke:rgb(89.803922%,22.352941%,20.784314%);stroke-opacity:0.65098;stroke-miterlimit:10;" d="M 91.097656 48.554688 C 91.097656 51.871094 86.121094 51.871094 86.121094 48.554688 C 86.121094 45.234375 91.097656 45.234375 91.097656 48.554688 "/>
<path style="fill-rule:nonzero;fill:rgb(89.803922%,22.352941%,20.784314%);fill-opacity:0.65098;stroke-width:0.708661;stroke-linecap:round;stroke-linejoin:round;stroke:rgb(89.803922%,22.352941%,20.784314%);stroke-opacity:0.65098;stroke-miterlimit:10;" d="M 522.273438 56.601563 C 522.273438 59.921875 517.296875 59.921875 517.296875 56.601563 C 517.296875 53.285156 522.273438 53.285156 522.273438 56.601563 "/>
<path style="fill-rule:nonzero;fill:rgb(89.803922%,22.352941%,20.784314%);fill-opacity:0.65098;stroke-width:0.708661;stroke-linecap:round;stroke-linejoin:round;stroke:rgb(89.803922%,22.352941%,20.784314%);stroke-opacity:0.65098;stroke-miterlimit:10;" d="M 396.980469 57.800781 C 396.980469 61.121094 392.003906 61.121094 392.003906 57.800781 C 392.003906 54.484375 396.980469 54.484375 396.980469 57.800781 "/>
<path style="fill-rule:nonzero;fill:rgb(89.803922%,22.352941%,20.784314%);fill-opacity:0.65098;stroke-width:0.708661;stroke-linecap:round;stroke-linejoin:round;stroke:rgb(89.803922%,22.352941%,20.784314%);stroke-opacity:0.65098;stroke-miterlimit:10;" d="M 547.902344 57.238281 C 547.902344 60.558594 542.925781 60.558594 542.925781 57.238281 C 542.925781 53.921875 547.902344 53.921875 547.902344 57.238281 "/>
<path style="fill-rule:nonzero;fill:rgb(89.803922%,22.352941%,20.784314%);fill-opacity:0.65098;stroke-width:0.708661;stroke-linecap:round;stroke-linejoin:round;stroke:rgb(89.803922%,22.352941%,20.784314%);stroke-opacity:0.65098;stroke-miterlimit:10;" d="M 529.214844 66.609375 C 529.214844 69.925781 524.238281 69.925781 524.238281 66.609375 C 524.238281 63.289063 529.214844 63.289063 529.214844 66.609375 "/>
<path style="fill-rule:nonzero;fill:rgb(89.803922%,22.352941%,20.784314%);fill-opacity:0.65098;stroke-width:0.708661;stroke-linecap:round;stroke-linejoin:round;stroke:rgb(89.803922%,22.352941%,20.784314%);stroke-opacity:0.65098;stroke-miterlimit:10;" d="M 412.277344 116.769531 C 412.277344 120.085938 407.300781 120.085938 407.300781 116.769531 C 407.300781 113.453125 412.277344 113.453125 412.277344 116.769531 "/>
<path style="fill-rule:nonzero;fill:rgb(89.803922%,22.352941%,20.784314%);fill-opacity:0.65098;stroke-width:0.708661;stroke-linecap:round;stroke-linejoin:round;stroke:rgb(89.803922%,22.352941%,20.784314%);stroke-opacity:0.65098;stroke-miterlimit:10;" d="M 262.054688 233.195313 C 262.054688 236.511719 257.078125 236.511719 257.078125 233.195313 C 257.078125 229.875 262.054688 229.875 262.054688 233.195313 "/>
<path style="fill-rule:nonzero;fill:rgb(89.803922%,22.352941%,20.784314%);fill-opacity:0.65098;stroke-width:0.708661;stroke-linecap:round;stroke-linejoin:round;stroke:rgb(89.803922%,22.352941%,20.784314%);stroke-opacity:0.65098;stroke-miterlimit:10;" d="M 357.714844 232.941406 C 357.714844 236.257813 352.738281 236.257813 352.738281 232.941406 C 352.738281 229.621094 357.714844 229.621094 357.714844 232.941406 "/>
<path style="fill-rule:nonzero;fill:rgb(89.803922%,22.352941%,20.784314%);fill-opacity:0.65098;stroke-width:0.708661;stroke-linecap:round;stroke-linejoin:round;stroke:rgb(89.803922%,22.352941%,20.784314%);stroke-opacity:0.65098;stroke-miterlimit:10;" d="M 538.59375 59.175781 C 538.59375 62.496094 533.617188 62.496094 533.617188 59.175781 C 533.617188 55.859375 538.59375 55.859375 538.59375 59.175781 "/>
<path style="fill-rule:nonzero;fill:rgb(89.803922%,22.352941%,20.784314%);fill-opacity:0.65098;stroke-width:0.708661;stroke-linecap:round;stroke-linejoin:round;stroke:rgb(89.803922%,22.352941%,20.784314%);stroke-opacity:0.65098;stroke-miterlimit:10;" d="M 520.296875 54.886719 C 520.296875 58.203125 515.320313 58.203125 515.320313 54.886719 C 515.320313 51.570313 520.296875 51.570313 520.296875 54.886719 "/>
<path style="fill-rule:nonzero;fill:rgb(89.803922%,22.352941%,20.784314%);fill-opacity:0.65098;stroke-width:0.708661;stroke-linecap:round;stroke-linejoin:round;stroke:rgb(89.803922%,22.352941%,20.784314%);stroke-opacity:0.65098;stroke-miterlimit:10;" d="M 494.96875 52.15625 C 494.96875 55.476563 489.992188 55.476563 489.992188 52.15625 C 489.992188 48.839844 494.96875 48.839844 494.96875 52.15625 "/>
<path style="fill-rule:nonzero;fill:rgb(89.803922%,22.352941%,20.784314%);fill-opacity:0.65098;stroke-width:0.708661;stroke-linecap:round;stroke-linejoin:round;stroke:rgb(89.803922%,22.352941%,20.784314%);stroke-opacity:0.65098;stroke-miterlimit:10;" d="M 326.902344 66.121094 C 326.902344 69.441406 321.925781 69.441406 321.925781 66.121094 C 321.925781 62.804688 326.902344 62.804688 326.902344 66.121094 "/>
<path style="fill-rule:nonzero;fill:rgb(89.803922%,22.352941%,20.784314%);fill-opacity:0.65098;stroke-width:0.708661;stroke-linecap:round;stroke-linejoin:round;stroke:rgb(89.803922%,22.352941%,20.784314%);stroke-opacity:0.65098;stroke-miterlimit:10;" d="M 206.078125 287.722656 C 206.078125 291.042969 201.101563 291.042969 201.101563 287.722656 C 201.101563 284.40625 206.078125 284.40625 206.078125 287.722656 "/>
<path style="fill-rule:nonzero;fill:rgb(89.803922%,22.352941%,20.784314%);fill-opacity:0.65098;stroke-width:0.708661;stroke-linecap:round;stroke-linejoin:round;stroke:rgb(89.803922%,22.352941%,20.784314%);stroke-opacity:0.65098;stroke-miterlimit:10;" d="M 386.59375 198.84375 C 386.59375 202.160156 381.617188 202.160156 381.617188 198.84375 C 381.617188 195.527344 386.59375 195.527344 386.59375 198.84375 "/>
<path style="fill-rule:nonzero;fill:rgb(89.803922%,22.352941%,20.784314%);fill-opacity:0.65098;stroke-width:0.708661;stroke-linecap:round;stroke-linejoin:round;stroke:rgb(89.803922%,22.352941%,20.784314%);stroke-opacity:0.65098;stroke-miterlimit:10;" d="M 521.617188 72.671875 C 521.617188 75.992188 516.640625 75.992188 516.640625 72.671875 C 516.640625 69.355469 521.617188 69.355469 521.617188 72.671875 "/>
<path style="fill-rule:nonzero;fill:rgb(89.803922%,22.352941%,20.784314%);fill-opacity:0.65098;stroke-width:0.708661;stroke-linecap:round;stroke-linejoin:round;stroke:rgb(89.803922%,22.352941%,20.784314%);stroke-opacity:0.65098;stroke-miterlimit:10;" d="M 547.113281 60.648438 C 547.113281 63.96875 542.136719 63.96875 542.136719 60.648438 C 542.136719 57.332031 547.113281 57.332031 547.113281 60.648438 "/>
<path style="fill-rule:nonzero;fill:rgb(89.803922%,22.352941%,20.784314%);fill-opacity:0.65098;stroke-width:0.708661;stroke-linecap:round;stroke-linejoin:round;stroke:rgb(89.803922%,22.352941%,20.784314%);stroke-opacity:0.65098;stroke-miterlimit:10;" d="M 503.382813 52.355469 C 503.382813 55.675781 498.40625 55.675781 498.40625 52.355469 C 498.40625 49.039063 503.382813 49.039063 503.382813 52.355469 "/>
<path style="fill-rule:nonzero;fill:rgb(89.803922%,22.352941%,20.784314%);fill-opacity:0.65098;stroke-width:0.708661;stroke-linecap:round;stroke-linejoin:round;stroke:rgb(89.803922%,22.352941%,20.784314%);stroke-opacity:0.65098;stroke-miterlimit:10;" d="M 477.847656 95.730469 C 477.847656 99.046875 472.871094 99.046875 472.871094 95.730469 C 472.871094 92.414063 477.847656 92.414063 477.847656 95.730469 "/>
<path style="fill-rule:nonzero;fill:rgb(89.803922%,22.352941%,20.784314%);fill-opacity:0.65098;stroke-width:0.708661;stroke-linecap:round;stroke-linejoin:round;stroke:rgb(89.803922%,22.352941%,20.784314%);stroke-opacity:0.65098;stroke-miterlimit:10;" d="M 381.976563 55.515625 C 381.976563 58.835938 377 58.835938 377 55.515625 C 377 52.199219 381.976563 52.199219 381.976563 55.515625 "/>
<path style="fill-rule:nonzero;fill:rgb(89.803922%,22.352941%,20.784314%);fill-opacity:0.65098;stroke-width:0.708661;stroke-linecap:round;stroke-linejoin:round;stroke:rgb(89.803922%,22.352941%,20.784314%);stroke-opacity:0.65098;stroke-miterlimit:10;" d="M 484.351563 121.238281 C 484.351563 124.558594 479.375 124.558594 479.375 121.238281 C 479.375 117.921875 484.351563 117.921875 484.351563 121.238281 "/>
<path style="fill-rule:nonzero;fill:rgb(89.803922%,22.352941%,20.784314%);fill-opacity:0.65098;stroke-width:0.708661;stroke-linecap:round;stroke-linejoin:round;stroke:rgb(89.803922%,22.352941%,20.784314%);stroke-opacity:0.65098;stroke-miterlimit:10;" d="M 509.820313 85.515625 C 509.820313 88.835938 504.84375 88.835938 504.84375 85.515625 C 504.84375 82.199219 509.820313 82.199219 509.820313 85.515625 "/>
<path style="fill-rule:nonzero;fill:rgb(89.803922%,22.352941%,20.784314%);fill-opacity:0.65098;stroke-width:0.708661;stroke-linecap:round;stroke-linejoin:round;stroke:rgb(89.803922%,22.352941%,20.784314%);stroke-opacity:0.65098;stroke-miterlimit:10;" d="M 515.28125 107.132813 C 515.28125 110.453125 510.304688 110.453125 510.304688 107.132813 C 510.304688 103.816406 515.28125 103.816406 515.28125 107.132813 "/>
<path style="fill-rule:nonzero;fill:rgb(89.803922%,22.352941%,20.784314%);fill-opacity:0.65098;stroke-width:0.708661;stroke-linecap:round;stroke-linejoin:round;stroke:rgb(89.803922%,22.352941%,20.784314%);stroke-opacity:0.65098;stroke-miterlimit:10;" d="M 494.996094 62.417969 C 494.996094 65.734375 490.019531 65.734375 490.019531 62.417969 C 490.019531 59.097656 494.996094 59.097656 494.996094 62.417969 "/>
<path style="fill-rule:nonzero;fill:rgb(89.803922%,22.352941%,20.784314%);fill-opacity:0.65098;stroke-width:0.708661;stroke-linecap:round;stroke-linejoin:round;stroke:rgb(89.803922%,22.352941%,20.784314%);stroke-opacity:0.65098;stroke-miterlimit:10;" d="M 214.746094 279.207031 C 214.746094 282.523438 209.769531 282.523438 209.769531 279.207031 C 209.769531 275.890625 214.746094 275.890625 214.746094 279.207031 "/>
<path style="fill-rule:nonzero;fill:rgb(89.803922%,22.352941%,20.784314%);fill-opacity:0.65098;stroke-width:0.708661;stroke-linecap:round;stroke-linejoin:round;stroke:rgb(89.803922%,22.352941%,20.784314%);stroke-opacity:0.65098;stroke-miterlimit:10;" d="M 306.90625 352.714844 C 306.90625 356.03125 301.929688 356.03125 301.929688 352.714844 C 301.929688 349.398438 306.90625 349.398438 306.90625 352.714844 "/>
<path style="fill-rule:nonzero;fill:rgb(89.803922%,22.352941%,20.784314%);fill-opacity:0.65098;stroke-width:0.708661;stroke-linecap:round;stroke-linejoin:round;stroke:rgb(89.803922%,22.352941%,20.784314%);stroke-opacity:0.65098;stroke-miterlimit:10;" d="M 52.214844 24.039063 C 52.214844 27.359375 47.238281 27.359375 47.238281 24.039063 C 47.238281 20.722656 52.214844 20.722656 52.214844 24.039063 "/>
<path style="fill-rule:nonzero;fill:rgb(89.803922%,22.352941%,20.784314%);fill-opacity:0.65098;stroke-width:0.708661;stroke-linecap:round;stroke-linejoin:round;stroke:rgb(89.803922%,22.352941%,20.784314%);stroke-opacity:0.65098;stroke-miterlimit:10;" d="M 446.554688 108.648438 C 446.554688 111.964844 441.578125 111.964844 441.578125 108.648438 C 441.578125 105.332031 446.554688 105.332031 446.554688 108.648438 "/>
<path style="fill-rule:nonzero;fill:rgb(89.803922%,22.352941%,20.784314%);fill-opacity:0.65098;stroke-width:0.708661;stroke-linecap:round;stroke-linejoin:round;stroke:rgb(89.803922%,22.352941%,20.784314%);stroke-opacity:0.65098;stroke-miterlimit:10;" d="M 63.339844 42.003906 C 63.339844 45.320313 58.363281 45.320313 58.363281 42.003906 C 58.363281 38.683594 63.339844 38.683594 63.339844 42.003906 "/>
<path style="fill-rule:nonzero;fill:rgb(89.803922%,22.352941%,20.784314%);fill-opacity:0.65098;stroke-width:0.708661;stroke-linecap:round;stroke-linejoin:round;stroke:rgb(89.803922%,22.352941%,20.784314%);stroke-opacity:0.65098;stroke-miterlimit:10;" d="M 524.859375 79.941406 C 524.859375 83.257813 519.882813 83.257813 519.882813 79.941406 C 519.882813 76.621094 524.859375 76.621094 524.859375 79.941406 "/>
<path style="fill-rule:nonzero;fill:rgb(89.803922%,22.352941%,20.784314%);fill-opacity:0.65098;stroke-width:0.708661;stroke-linecap:round;stroke-linejoin:round;stroke:rgb(89.803922%,22.352941%,20.784314%);stroke-opacity:0.65098;stroke-miterlimit:10;" d="M 455.984375 48.707031 C 455.984375 52.027344 451.007813 52.027344 451.007813 48.707031 C 451.007813 45.390625 455.984375 45.390625 455.984375 48.707031 "/>
<path style="fill-rule:nonzero;fill:rgb(89.803922%,22.352941%,20.784314%);fill-opacity:0.65098;stroke-width:0.708661;stroke-linecap:round;stroke-linejoin:round;stroke:rgb(89.803922%,22.352941%,20.784314%);stroke-opacity:0.65098;stroke-miterlimit:10;" d="M 356.523438 67.789063 C 356.523438 71.105469 351.546875 71.105469 351.546875 67.789063 C 351.546875 64.46875 356.523438 64.46875 356.523438 67.789063 "/>
<path style="fill-rule:nonzero;fill:rgb(89.803922%,22.352941%,20.784314%);fill-opacity:0.65098;stroke-width:0.708661;stroke-linecap:round;stroke-linejoin:round;stroke:rgb(89.803922%,22.352941%,20.784314%);stroke-opacity:0.65098;stroke-miterlimit:10;" d="M 523.109375 71.214844 C 523.109375 74.53125 518.132813 74.53125 518.132813 71.214844 C 518.132813 67.894531 523.109375 67.894531 523.109375 71.214844 "/>
<path style="fill-rule:nonzero;fill:rgb(89.803922%,22.352941%,20.784314%);fill-opacity:0.65098;stroke-width:0.708661;stroke-linecap:round;stroke-linejoin:round;stroke:rgb(89.803922%,22.352941%,20.784314%);stroke-opacity:0.65098;stroke-miterlimit:10;" d="M 478.316406 82.960938 C 478.316406 86.277344 473.339844 86.277344 473.339844 82.960938 C 473.339844 79.640625 478.316406 79.640625 478.316406 82.960938 "/>
<path style="fill-rule:nonzero;fill:rgb(89.803922%,22.352941%,20.784314%);fill-opacity:0.65098;stroke-width:0.708661;stroke-linecap:round;stroke-linejoin:round;stroke:rgb(89.803922%,22.352941%,20.784314%);stroke-opacity:0.65098;stroke-miterlimit:10;" d="M 324.21875 214.78125 C 324.21875 218.097656 319.242188 218.097656 319.242188 214.78125 C 319.242188 211.464844 324.21875 211.464844 324.21875 214.78125 "/>
<path style="fill-rule:nonzero;fill:rgb(89.803922%,22.352941%,20.784314%);fill-opacity:0.65098;stroke-width:0.708661;stroke-linecap:round;stroke-linejoin:round;stroke:rgb(89.803922%,22.352941%,20.784314%);stroke-opacity:0.65098;stroke-miterlimit:10;" d="M 530.941406 80.722656 C 530.941406 84.042969 525.964844 84.042969 525.964844 80.722656 C 525.964844 77.40625 530.941406 77.40625 530.941406 80.722656 "/>
<path style="fill-rule:nonzero;fill:rgb(89.803922%,22.352941%,20.784314%);fill-opacity:0.65098;stroke-width:0.708661;stroke-linecap:round;stroke-linejoin:round;stroke:rgb(89.803922%,22.352941%,20.784314%);stroke-opacity:0.65098;stroke-miterlimit:10;" d="M 539.601563 64.5 C 539.601563 67.816406 534.625 67.816406 534.625 64.5 C 534.625 61.179688 539.601563 61.179688 539.601563 64.5 "/>
<path style="fill-rule:nonzero;fill:rgb(89.803922%,22.352941%,20.784314%);fill-opacity:0.65098;stroke-width:0.708661;stroke-linecap:round;stroke-linejoin:round;stroke:rgb(89.803922%,22.352941%,20.784314%);stroke-opacity:0.65098;stroke-miterlimit:10;" d="M 436.53125 96.210938 C 436.53125 99.53125 431.554688 99.53125 431.554688 96.210938 C 431.554688 92.894531 436.53125 92.894531 436.53125 96.210938 "/>
<path style="fill-rule:nonzero;fill:rgb(89.803922%,22.352941%,20.784314%);fill-opacity:0.65098;stroke-width:0.708661;stroke-linecap:round;stroke-linejoin:round;stroke:rgb(89.803922%,22.352941%,20.784314%);stroke-opacity:0.65098;stroke-miterlimit:10;" d="M 387.398438 156.195313 C 387.398438 159.515625 382.421875 159.515625 382.421875 156.195313 C 382.421875 152.878906 387.398438 152.878906 387.398438 156.195313 "/>
<path style="fill-rule:nonzero;fill:rgb(89.803922%,22.352941%,20.784314%);fill-opacity:0.65098;stroke-width:0.708661;stroke-linecap:round;stroke-linejoin:round;stroke:rgb(89.803922%,22.352941%,20.784314%);stroke-opacity:0.65098;stroke-miterlimit:10;" d="M 378.097656 67.726563 C 378.097656 71.042969 373.121094 71.042969 373.121094 67.726563 C 373.121094 64.410156 378.097656 64.410156 378.097656 67.726563 "/>
<path style="fill-rule:nonzero;fill:rgb(89.803922%,22.352941%,20.784314%);fill-opacity:0.65098;stroke-width:0.708661;stroke-linecap:round;stroke-linejoin:round;stroke:rgb(89.803922%,22.352941%,20.784314%);stroke-opacity:0.65098;stroke-miterlimit:10;" d="M 448.308594 175.929688 C 448.308594 179.246094 443.332031 179.246094 443.332031 175.929688 C 443.332031 172.609375 448.308594 172.609375 448.308594 175.929688 "/>
<path style="fill-rule:nonzero;fill:rgb(89.803922%,22.352941%,20.784314%);fill-opacity:0.65098;stroke-width:0.708661;stroke-linecap:round;stroke-linejoin:round;stroke:rgb(89.803922%,22.352941%,20.784314%);stroke-opacity:0.65098;stroke-miterlimit:10;" d="M 497.847656 54.96875 C 497.847656 58.285156 492.871094 58.285156 492.871094 54.96875 C 492.871094 51.648438 497.847656 51.648438 497.847656 54.96875 "/>
<path style="fill-rule:nonzero;fill:rgb(89.803922%,22.352941%,20.784314%);fill-opacity:0.65098;stroke-width:0.708661;stroke-linecap:round;stroke-linejoin:round;stroke:rgb(89.803922%,22.352941%,20.784314%);stroke-opacity:0.65098;stroke-miterlimit:10;" d="M 492.457031 90.425781 C 492.457031 93.746094 487.480469 93.746094 487.480469 90.425781 C 487.480469 87.109375 492.457031 87.109375 492.457031 90.425781 "/>
<path style="fill-rule:nonzero;fill:rgb(89.803922%,22.352941%,20.784314%);fill-opacity:0.65098;stroke-width:0.708661;stroke-linecap:round;stroke-linejoin:round;stroke:rgb(89.803922%,22.352941%,20.784314%);stroke-opacity:0.65098;stroke-miterlimit:10;" d="M 181.496094 42.984375 C 181.496094 46.300781 176.519531 46.300781 176.519531 42.984375 C 176.519531 39.664063 181.496094 39.664063 181.496094 42.984375 "/>
<path style="fill-rule:nonzero;fill:rgb(89.803922%,22.352941%,20.784314%);fill-opacity:0.65098;stroke-width:0.708661;stroke-linecap:round;stroke-linejoin:round;stroke:rgb(89.803922%,22.352941%,20.784314%);stroke-opacity:0.65098;stroke-miterlimit:10;" d="M 525.269531 52.125 C 525.269531 55.441406 520.292969 55.441406 520.292969 52.125 C 520.292969 48.808594 525.269531 48.808594 525.269531 52.125 "/>
<path style="fill-rule:nonzero;fill:rgb(89.803922%,22.352941%,20.784314%);fill-opacity:0.65098;stroke-width:0.708661;stroke-linecap:round;stroke-linejoin:round;stroke:rgb(89.803922%,22.352941%,20.784314%);stroke-opacity:0.65098;stroke-miterlimit:10;" d="M 177.210938 247.015625 C 177.210938 250.332031 172.234375 250.332031 172.234375 247.015625 C 172.234375 243.695313 177.210938 243.695313 177.210938 247.015625 "/>
<path style="fill-rule:nonzero;fill:rgb(89.803922%,22.352941%,20.784314%);fill-opacity:0.65098;stroke-width:0.708661;stroke-linecap:round;stroke-linejoin:round;stroke:rgb(89.803922%,22.352941%,20.784314%);stroke-opacity:0.65098;stroke-miterlimit:10;" d="M 502.023438 94.65625 C 502.023438 97.972656 497.046875 97.972656 497.046875 94.65625 C 497.046875 91.335938 502.023438 91.335938 502.023438 94.65625 "/>
<path style="fill-rule:nonzero;fill:rgb(89.803922%,22.352941%,20.784314%);fill-opacity:0.65098;stroke-width:0.708661;stroke-linecap:round;stroke-linejoin:round;stroke:rgb(89.803922%,22.352941%,20.784314%);stroke-opacity:0.65098;stroke-miterlimit:10;" d="M 539.210938 54.527344 C 539.210938 57.84375 534.234375 57.84375 534.234375 54.527344 C 534.234375 51.210938 539.210938 51.210938 539.210938 54.527344 "/>
<path style="fill-rule:nonzero;fill:rgb(89.803922%,22.352941%,20.784314%);fill-opacity:0.65098;stroke-width:0.708661;stroke-linecap:round;stroke-linejoin:round;stroke:rgb(89.803922%,22.352941%,20.784314%);stroke-opacity:0.65098;stroke-miterlimit:10;" d="M 196.910156 173.273438 C 196.910156 176.589844 191.933594 176.589844 191.933594 173.273438 C 191.933594 169.957031 196.910156 169.957031 196.910156 173.273438 "/>
<path style="fill-rule:nonzero;fill:rgb(89.803922%,22.352941%,20.784314%);fill-opacity:0.65098;stroke-width:0.708661;stroke-linecap:round;stroke-linejoin:round;stroke:rgb(89.803922%,22.352941%,20.784314%);stroke-opacity:0.65098;stroke-miterlimit:10;" d="M 338.222656 50.085938 C 338.222656 53.402344 333.246094 53.402344 333.246094 50.085938 C 333.246094 46.765625 338.222656 46.765625 338.222656 50.085938 "/>
<path style="fill-rule:nonzero;fill:rgb(89.803922%,22.352941%,20.784314%);fill-opacity:0.65098;stroke-width:0.708661;stroke-linecap:round;stroke-linejoin:round;stroke:rgb(89.803922%,22.352941%,20.784314%);stroke-opacity:0.65098;stroke-miterlimit:10;" d="M 528.179688 54.246094 C 528.179688 57.5625 523.203125 57.5625 523.203125 54.246094 C 523.203125 50.929688 528.179688 50.929688 528.179688 54.246094 "/>
<path style="fill-rule:nonzero;fill:rgb(89.803922%,22.352941%,20.784314%);fill-opacity:0.65098;stroke-width:0.708661;stroke-linecap:round;stroke-linejoin:round;stroke:rgb(89.803922%,22.352941%,20.784314%);stroke-opacity:0.65098;stroke-miterlimit:10;" d="M 539.007813 68.503906 C 539.007813 71.824219 534.03125 71.824219 534.03125 68.503906 C 534.03125 65.1875 539.007813 65.1875 539.007813 68.503906 "/>
<path style="fill-rule:nonzero;fill:rgb(89.803922%,22.352941%,20.784314%);fill-opacity:0.65098;stroke-width:0.708661;stroke-linecap:round;stroke-linejoin:round;stroke:rgb(89.803922%,22.352941%,20.784314%);stroke-opacity:0.65098;stroke-miterlimit:10;" d="M 178.320313 405.21875 C 178.320313 408.539063 173.34375 408.539063 173.34375 405.21875 C 173.34375 401.902344 178.320313 401.902344 178.320313 405.21875 "/>
<path style="fill-rule:nonzero;fill:rgb(89.803922%,22.352941%,20.784314%);fill-opacity:0.65098;stroke-width:0.708661;stroke-linecap:round;stroke-linejoin:round;stroke:rgb(89.803922%,22.352941%,20.784314%);stroke-opacity:0.65098;stroke-miterlimit:10;" d="M 490.367188 109.667969 C 490.367188 112.984375 485.390625 112.984375 485.390625 109.667969 C 485.390625 106.351563 490.367188 106.351563 490.367188 109.667969 "/>
<path style="fill-rule:nonzero;fill:rgb(89.803922%,22.352941%,20.784314%);fill-opacity:0.65098;stroke-width:0.708661;stroke-linecap:round;stroke-linejoin:round;stroke:rgb(89.803922%,22.352941%,20.784314%);stroke-opacity:0.65098;stroke-miterlimit:10;" d="M 512.652344 67.847656 C 512.652344 71.164063 507.675781 71.164063 507.675781 67.847656 C 507.675781 64.527344 512.652344 64.527344 512.652344 67.847656 "/>
<path style="fill-rule:nonzero;fill:rgb(89.803922%,22.352941%,20.784314%);fill-opacity:0.65098;stroke-width:0.708661;stroke-linecap:round;stroke-linejoin:round;stroke:rgb(89.803922%,22.352941%,20.784314%);stroke-opacity:0.65098;stroke-miterlimit:10;" d="M 475.785156 101.398438 C 475.785156 104.71875 470.808594 104.71875 470.808594 101.398438 C 470.808594 98.082031 475.785156 98.082031 475.785156 101.398438 "/>
<path style="fill-rule:nonzero;fill:rgb(89.803922%,22.352941%,20.784314%);fill-opacity:0.65098;stroke-width:0.708661;stroke-linecap:round;stroke-linejoin:round;stroke:rgb(89.803922%,22.352941%,20.784314%);stroke-opacity:0.65098;stroke-miterlimit:10;" d="M 439.375 126.371094 C 439.375 129.6875 434.398438 129.6875 434.398438 126.371094 C 434.398438 123.054688 439.375 123.054688 439.375 126.371094 "/>
<path style="fill-rule:nonzero;fill:rgb(89.803922%,22.352941%,20.784314%);fill-opacity:0.65098;stroke-width:0.708661;stroke-linecap:round;stroke-linejoin:round;stroke:rgb(89.803922%,22.352941%,20.784314%);stroke-opacity:0.65098;stroke-miterlimit:10;" d="M 117.300781 390.535156 C 117.300781 393.851563 112.324219 393.851563 112.324219 390.535156 C 112.324219 387.214844 117.300781 387.214844 117.300781 390.535156 "/>
<path style="fill-rule:nonzero;fill:rgb(89.803922%,22.352941%,20.784314%);fill-opacity:0.65098;stroke-width:0.708661;stroke-linecap:round;stroke-linejoin:round;stroke:rgb(89.803922%,22.352941%,20.784314%);stroke-opacity:0.65098;stroke-miterlimit:10;" d="M 260.980469 97.242188 C 260.980469 100.558594 256.003906 100.558594 256.003906 97.242188 C 256.003906 93.925781 260.980469 93.925781 260.980469 97.242188 "/>
<path style="fill-rule:nonzero;fill:rgb(89.803922%,22.352941%,20.784314%);fill-opacity:0.65098;stroke-width:0.708661;stroke-linecap:round;stroke-linejoin:round;stroke:rgb(89.803922%,22.352941%,20.784314%);stroke-opacity:0.65098;stroke-miterlimit:10;" d="M 354.703125 107.320313 C 354.703125 110.636719 349.726563 110.636719 349.726563 107.320313 C 349.726563 104 354.703125 104 354.703125 107.320313 "/>
<path style="fill-rule:nonzero;fill:rgb(89.803922%,22.352941%,20.784314%);fill-opacity:0.65098;stroke-width:0.708661;stroke-linecap:round;stroke-linejoin:round;stroke:rgb(89.803922%,22.352941%,20.784314%);stroke-opacity:0.65098;stroke-miterlimit:10;" d="M 183.613281 34.515625 C 183.613281 37.832031 178.636719 37.832031 178.636719 34.515625 C 178.636719 31.199219 183.613281 31.199219 183.613281 34.515625 "/>
<path style="fill-rule:nonzero;fill:rgb(89.803922%,22.352941%,20.784314%);fill-opacity:0.65098;stroke-width:0.708661;stroke-linecap:round;stroke-linejoin:round;stroke:rgb(89.803922%,22.352941%,20.784314%);stroke-opacity:0.65098;stroke-miterlimit:10;" d="M 481.011719 116.269531 C 481.011719 119.585938 476.035156 119.585938 476.035156 116.269531 C 476.035156 112.953125 481.011719 112.953125 481.011719 116.269531 "/>
<path style="fill-rule:nonzero;fill:rgb(89.803922%,22.352941%,20.784314%);fill-opacity:0.65098;stroke-width:0.708661;stroke-linecap:round;stroke-linejoin:round;stroke:rgb(89.803922%,22.352941%,20.784314%);stroke-opacity:0.65098;stroke-miterlimit:10;" d="M 439.25 63.214844 C 439.25 66.53125 434.273438 66.53125 434.273438 63.214844 C 434.273438 59.898438 439.25 59.898438 439.25 63.214844 "/>
</g>
</g>
</svg>
