<?xml version="1.0" encoding="UTF-8"?>
<svg xmlns="http://www.w3.org/2000/svg" xmlns:xlink="http://www.w3.org/1999/xlink" width="576pt" height="432pt" viewBox="0 0 576 432" version="1.1">
<defs>
<clipPath id="clip1">
  <path d="M 7.722656 4.980469 L 572.019531 4.980469 L 572.019531 425.277344 L 7.722656 425.277344 Z M 7.722656 4.980469 "/>
</clipPath>
</defs>
<g id="surface42">
<rect x="0" y="0" width="576" height="432" style="fill:rgb(100%,100%,100%);fill-opacity:1;stroke:none;"/>
<g clip-path="url(#clip1)" clip-rule="nonzero">
<path style="fill-rule:nonzero;fill:rgb(89.803922%,22.352941%,20.784314%);fill-opacity:0.65098;stroke-width:0.708661;stroke-linecap:round;stroke-linejoin:round;stroke:rgb(89.803922%,22.352941%,20.784314%);stroke-opacity:0.65098;stroke-miterlimit:10;" d="M 69.898438 97.648438 C 69.898438 100.96875 64.921875 100.96875 64.921875 97.648438 C 64.921875 94.332031 69.898438 94.332031 69.898438 97.648438 "/>
<path style="fill-rule:nonzero;fill:rgb(89.803922%,22.352941%,20.784314%);fill-opacity:0.65098;stroke-width:0.708661;stroke-linecap:round;stroke-linejoin:round;stroke:rgb(89.803922%,22.352941%,20.784314%);stroke-opacity:0.65098;stroke-miterlimit:10;" d="M 219.65625 241.5 C 219.65625 244.816406 214.679688 244.816406 214.679688 241.5 C 214.679688 238.183594 219.65625 238.183594 219.65625 241.5 "/>
<path style="fill-rule:nonzero;fill:rgb(89.803922%,22.352941%,20.784314%);fill-opacity:0.65098;stroke-width:0.708661;stroke-linecap:round;stroke-linejoin:round;stroke:rgb(89.803922%,22.352941%,20.784314%);stroke-opacity:0.65098;stroke-miterlimit:10;" d="M 63.839844 61.503906 C 63.839844 64.820313 58.863281 64.820313 58.863281 61.503906 C 58.863281 58.183594 63.839844 58.183594 63.839844 61.503906 "/>
<path style="fill-rule:nonzero;fill:rgb(89.803922%,22.352941%,20.784314%);fill-opacity:0.65098;stroke-width:0.708661;stroke-linecap:round;stroke-linejoin:round;stroke:rgb(89.803922%,22.352941%,20.784314%);stroke-opacity:0.65098;stroke-miterlimit:10;" d="M 55.5 110.253906 C 55.5 113.570313 50.523438 113.570313 50.523438 110.253906 C 50.523438 106.9375 55.5 106.9375 55.5 110.253906 "/>
<path style="fill-rule:nonzero;fill:rgb(89.803922%,22.352941%,20.784314%);fill-opacity:0.65098;stroke-width:0.708661;stroke-linecap:round;stroke-linejoin:round;stroke:rgb(89.803922%,22.352941%,20.784314%);stroke-opacity:0.65098;stroke-miterlimit:10;" d="M 187.089844 91.738281 C 187.089844 95.054688 182.113281 95.054688 182.113281 91.738281 C 182.113281 88.417969 187.089844 88.417969 187.089844 91.738281 "/>
<path style="fill-rule:nonzero;fill:rgb(89.803922%,22.352941%,20.784314%);fill-opacity:0.65098;stroke-width:0.708661;stroke-linecap:round;stroke-linejoin:round;stroke:rgb(89.803922%,22.352941%,20.784314%);stroke-opacity:0.65098;stroke-miterlimit:10;" d="M 60.960938 58.851563 C 60.960938 62.167969 55.984375 62.167969 55.984375 58.851563 C 55.984375 55.53125 60.960938 55.53125 60.960938 58.851563 "/>
<path style="fill-rule:nonzero;fill:rgb(89.803922%,22.352941%,20.784314%);fill-opacity:0.65098;stroke-width:0.708661;stroke-linecap:round;stroke-linejoin:round;stroke:rgb(89.803922%,22.352941%,20.784314%);stroke-opacity:0.65098;stroke-miterlimit:10;" d="M 415.464844 187.433594 C 415.464844 190.75 410.488281 190.75 410.488281 187.433594 C 410.488281 184.117188 415.464844 184.117188 415.464844 187.433594 "/>
<path style="fill-rule:nonzero;fill:rgb(89.803922%,22.352941%,20.784314%);fill-opacity:0.65098;stroke-width:0.708661;stroke-linecap:round;stroke-linejoin:round;stroke:rgb(89.803922%,22.352941%,20.784314%);stroke-opacity:0.65098;stroke-miterlimit:10;" d="M 96.0625 108.824219 C 96.0625 112.144531 91.085938 112.144531 91.085938 108.824219 C 91.085938 105.507813 96.0625 105.507813 96.0625 108.824219 "/>
<path style="fill-rule:nonzero;fill:rgb(89.803922%,22.352941%,20.784314%);fill-opacity:0.65098;stroke-width:0.708661;stroke-linecap:round;stroke-linejoin:round;stroke:rgb(89.803922%,22.352941%,20.784314%);stroke-opacity:0.65098;stroke-miterlimit:10;" d="M 52.992188 71.152344 C 52.992188 74.46875 48.015625 74.46875 48.015625 71.152344 C 48.015625 67.832031 52.992188 67.832031 52.992188 71.152344 "/>
<path style="fill-rule:nonzero;fill:rgb(89.803922%,22.352941%,20.784314%);fill-opacity:0.65098;stroke-width:0.708661;stroke-linecap:round;stroke-linejoin:round;stroke:rgb(89.803922%,22.352941%,20.784314%);stroke-opacity:0.65098;stroke-miterlimit:10;" d="M 36.015625 62.8125 C 36.015625 66.128906 31.039063 66.128906 31.039063 62.8125 C 31.039063 59.492188 36.015625 59.492188 36.015625 62.8125 "/>
<path style="fill-rule:nonzero;fill:rgb(89.803922%,22.352941%,20.784314%);fill-opacity:0.65098;stroke-width:0.708661;stroke-linecap:round;stroke-linejoin:round;stroke:rgb(89.803922%,22.352941%,20.784314%);stroke-opacity:0.65098;stroke-miterlimit:10;" d="M 54.972656 80.0625 C 54.972656 83.382813 49.996094 83.382813 49.996094 80.0625 C 49.996094 76.746094 54.972656 76.746094 54.972656 80.0625 "/>
<path style="fill-rule:nonzero;fill:rgb(89.803922%,22.352941%,20.784314%);fill-opacity:0.65098;stroke-width:0.708661;stroke-linecap:round;stroke-linejoin:round;stroke:rgb(89.803922%,22.352941%,20.784314%);stroke-opacity:0.65098;stroke-miterlimit:10;" d="M 62.175781 62.117188 C 62.175781 65.433594 57.199219 65.433594 57.199219 62.117188 C 57.199219 58.796875 62.175781 58.796875 62.175781 62.117188 "/>
<path style="fill-rule:nonzero;fill:rgb(89.803922%,22.352941%,20.784314%);fill-opacity:0.65098;stroke-width:0.708661;stroke-linecap:round;stroke-linejoin:round;stroke:rgb(89.803922%,22.352941%,20.784314%);stroke-opacity:0.65098;stroke-miterlimit:10;" d="M 48.21875 79.265625 C 48.21875 82.582031 43.242188 82.582031 43.242188 79.265625 C 43.242188 75.949219 48.21875 75.949219 48.21875 79.265625 "/>
<path style="fill-rule:nonzero;fill:rgb(89.803922%,22.352941%,20.784314%);fill-opacity:0.65098;stroke-width:0.708661;stroke-linecap:round;stroke-linejoin:round;stroke:rgb(89.803922%,22.352941%,20.784314%);stroke-opacity:0.65098;stroke-miterlimit:10;" d="M 73.335938 86.539063 C 73.335938 89.855469 68.359375 89.855469 68.359375 86.539063 C 68.359375 83.21875 73.335938 83.21875 73.335938 86.539063 "/>
<path style="fill-rule:nonzero;fill:rgb(89.803922%,22.352941%,20.784314%);fill-opacity:0.65098;stroke-width:0.708661;stroke-linecap:round;stroke-linejoin:round;stroke:rgb(89.803922%,22.352941%,20.784314%);stroke-opacity:0.65098;stroke-miterlimit:10;" d="M 63.414063 53.320313 C 63.414063 56.636719 58.4375 56.636719 58.4375 53.320313 C 58.4375 50 63.414063 50 63.414063 53.320313 "/>
<path style="fill-rule:nonzero;fill:rgb(89.803922%,22.352941%,20.784314%);fill-opacity:0.65098;stroke-width:0.708661;stroke-linecap:round;stroke-linejoin:round;stroke:rgb(89.803922%,22.352941%,20.784314%);stroke-opacity:0.65098;stroke-miterlimit:10;" d="M 76.503906 69.371094 C 76.503906 72.691406 71.527344 72.691406 71.527344 69.371094 C 71.527344 66.054688 76.503906 66.054688 76.503906 69.371094 "/>
<path style="fill-rule:nonzero;fill:rgb(89.803922%,22.352941%,20.784314%);fill-opacity:0.65098;stroke-width:0.708661;stroke-linecap:round;stroke-linejoin:round;stroke:rgb(89.803922%,22.352941%,20.784314%);stroke-opacity:0.65098;stroke-miterlimit:10;" d="M 66.542969 64.394531 C 66.542969 67.710938 61.566406 67.710938 61.566406 64.394531 C 61.566406 61.074219 66.542969 61.074219 66.542969 64.394531 "/>
<path style="fill-rule:nonzero;fill:rgb(89.803922%,22.352941%,20.784314%);fill-opacity:0.65098;stroke-width:0.708661;stroke-linecap:round;stroke-linejoin:round;stroke:rgb(89.803922%,22.352941%,20.784314%);stroke-opacity:0.65098;stroke-miterlimit:10;" d="M 101.75 72.433594 C 101.75 75.75 96.773438 75.75 96.773438 72.433594 C 96.773438 69.113281 101.75 69.113281 101.75 72.433594 "/>
<path style="fill-rule:nonzero;fill:rgb(89.803922%,22.352941%,20.784314%);fill-opacity:0.65098;stroke-width:0.708661;stroke-linecap:round;stroke-linejoin:round;stroke:rgb(89.803922%,22.352941%,20.784314%);stroke-opacity:0.65098;stroke-miterlimit:10;" d="M 80.214844 71.964844 C 80.214844 75.28125 75.238281 75.28125 75.238281 71.964844 C 75.238281 68.648438 80.214844 68.648438 80.214844 71.964844 "/>
<path style="fill-rule:nonzero;fill:rgb(89.803922%,22.352941%,20.784314%);fill-opacity:0.65098;stroke-width:0.708661;stroke-linecap:round;stroke-linejoin:round;stroke:rgb(89.803922%,22.352941%,20.784314%);stroke-opacity:0.65098;stroke-miterlimit:10;" d="M 91.25 124.433594 C 91.25 127.75 86.273438 127.75 86.273438 124.433594 C 86.273438 121.117188 91.25 121.117188 91.25 124.433594 "/>
<path style="fill-rule:nonzero;fill:rgb(89.803922%,22.352941%,20.784314%);fill-opacity:0.65098;stroke-width:0.708661;stroke-linecap:round;stroke-linejoin:round;stroke:rgb(89.803922%,22.352941%,20.784314%);stroke-opacity:0.65098;stroke-miterlimit:10;" d="M 74.332031 81.011719 C 74.332031 84.328125 69.355469 84.328125 69.355469 81.011719 C 69.355469 77.691406 74.332031 77.691406 74.332031 81.011719 "/>
<path style="fill-rule:nonzero;fill:rgb(89.803922%,22.352941%,20.784314%);fill-opacity:0.65098;stroke-width:0.708661;stroke-linecap:round;stroke-linejoin:round;stroke:rgb(89.803922%,22.352941%,20.784314%);stroke-opacity:0.65098;stroke-miterlimit:10;" d="M 73.734375 56 C 73.734375 59.320313 68.757813 59.320313 68.757813 56 C 68.757813 52.683594 73.734375 52.683594 73.734375 56 "/>
<path style="fill-rule:nonzero;fill:rgb(89.803922%,22.352941%,20.784314%);fill-opacity:0.65098;stroke-width:0.708661;stroke-linecap:round;stroke-linejoin:round;stroke:rgb(89.803922%,22.352941%,20.784314%);stroke-opacity:0.65098;stroke-miterlimit:10;" d="M 196.460938 43.757813 C 196.460938 47.078125 191.484375 47.078125 191.484375 43.757813 C 191.484375 40.441406 196.460938 40.441406 196.460938 43.757813 "/>
<path style="fill-rule:nonzero;fill:rgb(89.803922%,22.352941%,20.784314%);fill-opacity:0.65098;stroke-width:0.708661;stroke-linecap:round;stroke-linejoin:round;stroke:rgb(89.803922%,22.352941%,20.784314%);stroke-opacity:0.65098;stroke-miterlimit:10;" d="M 310.601563 247.433594 C 310.601563 250.75 305.625 250.75 305.625 247.433594 C 305.625 244.117188 310.601563 244.117188 310.601563 247.433594 "/>
<path style="fill-rule:nonzero;fill:rgb(89.803922%,22.352941%,20.784314%);fill-opacity:0.65098;stroke-width:0.708661;stroke-linecap:round;stroke-linejoin:round;stroke:rgb(89.803922%,22.352941%,20.784314%);stroke-opacity:0.65098;stroke-miterlimit:10;" d="M 405.515625 218.773438 C 405.515625 222.089844 400.539063 222.089844 400.539063 218.773438 C 400.539063 215.453125 405.515625 215.453125 405.515625 218.773438 "/>
<path style="fill-rule:nonzero;fill:rgb(89.803922%,22.352941%,20.784314%);fill-opacity:0.65098;stroke-width:0.708661;stroke-linecap:round;stroke-linejoin:round;stroke:rgb(89.803922%,22.352941%,20.784314%);stroke-opacity:0.65098;stroke-miterlimit:10;" d="M 95.308594 118.777344 C 95.308594 122.09375 90.332031 122.09375 90.332031 118.777344 C 90.332031 115.460938 95.308594 115.460938 95.308594 118.777344 "/>
<path style="fill-rule:nonzero;fill:rgb(89.803922%,22.352941%,20.784314%);fill-opacity:0.65098;stroke-width:0.708661;stroke-linecap:round;stroke-linejoin:round;stroke:rgb(89.803922%,22.352941%,20.784314%);stroke-opacity:0.65098;stroke-miterlimit:10;" d="M 50.703125 76.75 C 50.703125 80.066406 45.726563 80.066406 45.726563 76.75 C 45.726563 73.429688 50.703125 73.429688 50.703125 76.75 "/>
<path style="fill-rule:nonzero;fill:rgb(89.803922%,22.352941%,20.784314%);fill-opacity:0.65098;stroke-width:0.708661;stroke-linecap:round;stroke-linejoin:round;stroke:rgb(89.803922%,22.352941%,20.784314%);stroke-opacity:0.65098;stroke-miterlimit:10;" d="M 174.832031 87.511719 C 174.832031 90.828125 169.855469 90.828125 169.855469 87.511719 C 169.855469 84.195313 174.832031 84.195313 174.832031 87.511719 "/>
<path style="fill-rule:nonzero;fill:rgb(89.803922%,22.352941%,20.784314%);fill-opacity:0.65098;stroke-width:0.708661;stroke-linecap:round;stroke-linejoin:round;stroke:rgb(89.803922%,22.352941%,20.784314%);stroke-opacity:0.65098;stroke-miterlimit:10;" d="M 79.933594 69.828125 C 79.933594 73.144531 74.957031 73.144531 74.957031 69.828125 C 74.957031 66.511719 79.933594 66.511719 79.933594 69.828125 "/>
<path style="fill-rule:nonzero;fill:rgb(89.803922%,22.352941%,20.784314%);fill-opacity:0.65098;stroke-width:0.708661;stroke-linecap:round;stroke-linejoin:round;stroke:rgb(89.803922%,22.352941%,20.784314%);stroke-opacity:0.65098;stroke-miterlimit:10;" d="M 59.769531 69.640625 C 59.769531 72.957031 54.792969 72.957031 54.792969 69.640625 C 54.792969 66.320313 59.769531 66.320313 59.769531 69.640625 "/>
<path style="fill-rule:nonzero;fill:rgb(89.803922%,22.352941%,20.784314%);fill-opacity:0.65098;stroke-width:0.708661;stroke-linecap:round;stroke-linejoin:round;stroke:rgb(89.803922%,22.352941%,20.784314%);stroke-opacity:0.65098;stroke-miterlimit:10;" d="M 431.78125 37.972656 C 431.78125 41.289063 426.804688 41.289063 426.804688 37.972656 C 426.804688 34.65625 431.78125 34.65625 431.78125 37.972656 "/>
<path style="fill-rule:nonzero;fill:rgb(89.803922%,22.352941%,20.784314%);fill-opacity:0.65098;stroke-width:0.708661;stroke-linecap:round;stroke-linejoin:round;stroke:rgb(89.803922%,22.352941%,20.784314%);stroke-opacity:0.65098;stroke-miterlimit:10;" d="M 234.109375 144.25 C 234.109375 147.566406 229.132813 147.566406 229.132813 144.25 C 229.132813 140.933594 234.109375 140.933594 234.109375 144.25 "/>
<path style="fill-rule:nonzero;fill:rgb(89.803922%,22.352941%,20.784314%);fill-opacity:0.65098;stroke-width:0.708661;stroke-linecap:round;stroke-linejoin:round;stroke:rgb(89.803922%,22.352941%,20.784314%);stroke-opacity:0.65098;stroke-miterlimit:10;" d="M 547.902344 43.210938 C 547.902344 46.527344 542.925781 46.527344 542.925781 43.210938 C 542.925781 39.890625 547.902344 39.890625 547.902344 43.210938 "/>
<path style="fill-rule:nonzero;fill:rgb(89.803922%,22.352941%,20.784314%);fill-opacity:0.65098;stroke-width:0.708661;stroke-linecap:round;stroke-linejoin:round;stroke:rgb(89.803922%,22.352941%,20.784314%);stroke-opacity:0.65098;stroke-miterlimit:10;" d="M 287.445313 55.632813 C 287.445313 58.949219 282.46875 58.949219 282.46875 55.632813 C 282.46875 52.3125 287.445313 52.3125 287.445313 55.632813 "/>
<path style="fill-rule:nonzero;fill:rgb(89.803922%,22.352941%,20.784314%);fill-opacity:0.65098;stroke-width:0.708661;stroke-linecap:round;stroke-linejoin:round;stroke:rgb(89.803922%,22.352941%,20.784314%);stroke-opacity:0.65098;stroke-miterlimit:10;" d="M 65.335938 50.445313 C 65.335938 53.761719 60.359375 53.761719 60.359375 50.445313 C 60.359375 47.128906 65.335938 47.128906 65.335938 50.445313 "/>
<path style="fill-rule:nonzero;fill:rgb(89.803922%,22.352941%,20.784314%);fill-opacity:0.65098;stroke-width:0.708661;stroke-linecap:round;stroke-linejoin:round;stroke:rgb(89.803922%,22.352941%,20.784314%);stroke-opacity:0.65098;stroke-miterlimit:10;" d="M 372.066406 249.511719 C 372.066406 252.828125 367.089844 252.828125 367.089844 249.511719 C 367.089844 246.195313 372.066406 246.195313 372.066406 249.511719 "/>
<path style="fill-rule:nonzero;fill:rgb(89.803922%,22.352941%,20.784314%);fill-opacity:0.65098;stroke-width:0.708661;stroke-linecap:round;stroke-linejoin:round;stroke:rgb(89.803922%,22.352941%,20.784314%);stroke-opacity:0.65098;stroke-miterlimit:10;" d="M 134.789063 49.042969 C 134.789063 52.363281 129.8125 52.363281 129.8125 49.042969 C 129.8125 45.726563 134.789063 45.726563 134.789063 49.042969 "/>
<path style="fill-rule:nonzero;fill:rgb(89.803922%,22.352941%,20.784314%);fill-opacity:0.65098;stroke-width:0.708661;stroke-linecap:round;stroke-linejoin:round;stroke:rgb(89.803922%,22.352941%,20.784314%);stroke-opacity:0.65098;stroke-miterlimit:10;" d="M 173.308594 55.390625 C 173.308594 58.707031 168.332031 58.707031 168.332031 55.390625 C 168.332031 52.074219 173.308594 52.074219 173.308594 55.390625 "/>
<path style="fill-rule:nonzero;fill:rgb(89.803922%,22.352941%,20.784314%);fill-opacity:0.65098;stroke-width:0.708661;stroke-linecap:round;stroke-linejoin:round;stroke:rgb(89.803922%,22.352941%,20.784314%);stroke-opacity:0.65098;stroke-miterlimit:10;" d="M 75.953125 52.054688 C 75.953125 55.375 70.976563 55.375 70.976563 52.054688 C 70.976563 48.738281 75.953125 48.738281 75.953125 52.054688 "/>
<path style="fill-rule:nonzero;fill:rgb(89.803922%,22.352941%,20.784314%);fill-opacity:0.65098;stroke-width:0.708661;stroke-linecap:round;stroke-linejoin:round;stroke:rgb(89.803922%,22.352941%,20.784314%);stroke-opacity:0.65098;stroke-miterlimit:10;" d="M 490.886719 45.957031 C 490.886719 49.273438 485.910156 49.273438 485.910156 45.957031 C 485.910156 42.636719 490.886719 42.636719 490.886719 45.957031 "/>
<path style="fill-rule:nonzero;fill:rgb(89.803922%,22.352941%,20.784314%);fill-opacity:0.65098;stroke-width:0.708661;stroke-linecap:round;stroke-linejoin:round;stroke:rgb(89.803922%,22.352941%,20.784314%);stroke-opacity:0.65098;stroke-miterlimit:10;" d="M 61.246094 58.117188 C 61.246094 61.4375 56.269531 61.4375 56.269531 58.117188 C 56.269531 54.800781 61.246094 54.800781 61.246094 58.117188 "/>
<path style="fill-rule:nonzero;fill:rgb(89.803922%,22.352941%,20.784314%);fill-opacity:0.65098;stroke-width:0.708661;stroke-linecap:round;stroke-linejoin:round;stroke:rgb(89.803922%,22.352941%,20.784314%);stroke-opacity:0.65098;stroke-miterlimit:10;" d="M 184.304688 57.664063 C 184.304688 60.984375 179.328125 60.984375 179.328125 57.664063 C 179.328125 54.347656 184.304688 54.347656 184.304688 57.664063 "/>
<path style="fill-rule:nonzero;fill:rgb(89.803922%,22.352941%,20.784314%);fill-opacity:0.65098;stroke-width:0.708661;stroke-linecap:round;stroke-linejoin:round;stroke:rgb(89.803922%,22.352941%,20.784314%);stroke-opacity:0.65098;stroke-miterlimit:10;" d="M 35.8125 58.355469 C 35.8125 61.671875 30.835938 61.671875 30.835938 58.355469 C 30.835938 55.035156 35.8125 55.035156 35.8125 58.355469 "/>
<path style="fill-rule:nonzero;fill:rgb(89.803922%,22.352941%,20.784314%);fill-opacity:0.65098;stroke-width:0.708661;stroke-linecap:round;stroke-linejoin:round;stroke:rgb(89.803922%,22.352941%,20.784314%);stroke-opacity:0.65098;stroke-miterlimit:10;" d="M 53.941406 68.449219 C 53.941406 71.765625 48.964844 71.765625 48.964844 68.449219 C 48.964844 65.132813 53.941406 65.132813 53.941406 68.449219 "/>
<path style="fill-rule:nonzero;fill:rgb(89.803922%,22.352941%,20.784314%);fill-opacity:0.65098;stroke-width:0.708661;stroke-linecap:round;stroke-linejoin:round;stroke:rgb(89.803922%,22.352941%,20.784314%);stroke-opacity:0.65098;stroke-miterlimit:10;" d="M 173.375 122.8125 C 173.375 126.132813 168.398438 126.132813 168.398438 122.8125 C 168.398438 119.496094 173.375 119.496094 173.375 122.8125 "/>
<path style="fill-rule:nonzero;fill:rgb(89.803922%,22.352941%,20.784314%);fill-opacity:0.65098;stroke-width:0.708661;stroke-linecap:round;stroke-linejoin:round;stroke:rgb(89.803922%,22.352941%,20.784314%);stroke-opacity:0.65098;stroke-miterlimit:10;" d="M 329.824219 247.394531 C 329.824219 250.714844 324.847656 250.714844 324.847656 247.394531 C 324.847656 244.078125 329.824219 244.078125 329.824219 247.394531 "/>
<path style="fill-rule:nonzero;fill:rgb(89.803922%,22.352941%,20.784314%);fill-opacity:0.65098;stroke-width:0.708661;stroke-linecap:round;stroke-linejoin:round;stroke:rgb(89.803922%,22.352941%,20.784314%);stroke-opacity:0.65098;stroke-miterlimit:10;" d="M 226.554688 240.332031 C 226.554688 243.648438 221.578125 243.648438 221.578125 240.332031 C 221.578125 237.011719 226.554688 237.011719 226.554688 240.332031 "/>
<path style="fill-rule:nonzero;fill:rgb(89.803922%,22.352941%,20.784314%);fill-opacity:0.65098;stroke-width:0.708661;stroke-linecap:round;stroke-linejoin:round;stroke:rgb(89.803922%,22.352941%,20.784314%);stroke-opacity:0.65098;stroke-miterlimit:10;" d="M 45.199219 60.792969 C 45.199219 64.113281 40.222656 64.113281 40.222656 60.792969 C 40.222656 57.476563 45.199219 57.476563 45.199219 60.792969 "/>
<path style="fill-rule:nonzero;fill:rgb(89.803922%,22.352941%,20.784314%);fill-opacity:0.65098;stroke-width:0.708661;stroke-linecap:round;stroke-linejoin:round;stroke:rgb(89.803922%,22.352941%,20.784314%);stroke-opacity:0.65098;stroke-miterlimit:10;" d="M 62.59375 55.511719 C 62.59375 58.828125 57.617188 58.828125 57.617188 55.511719 C 57.617188 52.195313 62.59375 52.195313 62.59375 55.511719 "/>
<path style="fill-rule:nonzero;fill:rgb(89.803922%,22.352941%,20.784314%);fill-opacity:0.65098;stroke-width:0.708661;stroke-linecap:round;stroke-linejoin:round;stroke:rgb(89.803922%,22.352941%,20.784314%);stroke-opacity:0.65098;stroke-miterlimit:10;" d="M 87.15625 52.410156 C 87.15625 55.726563 82.179688 55.726563 82.179688 52.410156 C 82.179688 49.089844 87.15625 49.089844 87.15625 52.410156 "/>
<path style="fill-rule:nonzero;fill:rgb(89.803922%,22.352941%,20.784314%);fill-opacity:0.65098;stroke-width:0.708661;stroke-linecap:round;stroke-linejoin:round;stroke:rgb(89.803922%,22.352941%,20.784314%);stroke-opacity:0.65098;stroke-miterlimit:10;" d="M 246.570313 62.8125 C 246.570313 66.128906 241.59375 66.128906 241.59375 62.8125 C 241.59375 59.496094 246.570313 59.496094 246.570313 62.8125 "/>
<path style="fill-rule:nonzero;fill:rgb(89.803922%,22.352941%,20.784314%);fill-opacity:0.65098;stroke-width:0.708661;stroke-linecap:round;stroke-linejoin:round;stroke:rgb(89.803922%,22.352941%,20.784314%);stroke-opacity:0.65098;stroke-miterlimit:10;" d="M 387.011719 298.894531 C 387.011719 302.210938 382.035156 302.210938 382.035156 298.894531 C 382.035156 295.578125 387.011719 295.578125 387.011719 298.894531 "/>
<path style="fill-rule:nonzero;fill:rgb(89.803922%,22.352941%,20.784314%);fill-opacity:0.65098;stroke-width:0.708661;stroke-linecap:round;stroke-linejoin:round;stroke:rgb(89.803922%,22.352941%,20.784314%);stroke-opacity:0.65098;stroke-miterlimit:10;" d="M 201.699219 206.191406 C 201.699219 209.507813 196.722656 209.507813 196.722656 206.191406 C 196.722656 202.875 201.699219 202.875 201.699219 206.191406 "/>
<path style="fill-rule:nonzero;fill:rgb(89.803922%,22.352941%,20.784314%);fill-opacity:0.65098;stroke-width:0.708661;stroke-linecap:round;stroke-linejoin:round;stroke:rgb(89.803922%,22.352941%,20.784314%);stroke-opacity:0.65098;stroke-miterlimit:10;" d="M 61.195313 73.675781 C 61.195313 76.992188 56.21875 76.992188 56.21875 73.675781 C 56.21875 70.355469 61.195313 70.355469 61.195313 73.675781 "/>
<path style="fill-rule:nonzero;fill:rgb(89.803922%,22.352941%,20.784314%);fill-opacity:0.65098;stroke-width:0.708661;stroke-linecap:round;stroke-linejoin:round;stroke:rgb(89.803922%,22.352941%,20.784314%);stroke-opacity:0.65098;stroke-miterlimit:10;" d="M 36.902344 61.75 C 36.902344 65.066406 31.925781 65.066406 31.925781 61.75 C 31.925781 58.433594 36.902344 58.433594 36.902344 61.75 "/>
<path style="fill-rule:nonzero;fill:rgb(89.803922%,22.352941%,20.784314%);fill-opacity:0.65098;stroke-width:0.708661;stroke-linecap:round;stroke-linejoin:round;stroke:rgb(89.803922%,22.352941%,20.784314%);stroke-opacity:0.65098;stroke-miterlimit:10;" d="M 79.816406 52.753906 C 79.816406 56.074219 74.839844 56.074219 74.839844 52.753906 C 74.839844 49.4375 79.816406 49.4375 79.816406 52.753906 "/>
<path style="fill-rule:nonzero;fill:rgb(89.803922%,22.352941%,20.784314%);fill-opacity:0.65098;stroke-width:0.708661;stroke-linecap:round;stroke-linejoin:round;stroke:rgb(89.803922%,22.352941%,20.784314%);stroke-opacity:0.65098;stroke-miterlimit:10;" d="M 101.496094 91.347656 C 101.496094 94.667969 96.519531 94.667969 96.519531 91.347656 C 96.519531 88.03125 101.496094 88.03125 101.496094 91.347656 "/>
<path style="fill-rule:nonzero;fill:rgb(89.803922%,22.352941%,20.784314%);fill-opacity:0.65098;stroke-width:0.708661;stroke-linecap:round;stroke-linejoin:round;stroke:rgb(89.803922%,22.352941%,20.784314%);stroke-opacity:0.65098;stroke-miterlimit:10;" d="M 202.082031 55.226563 C 202.082031 58.542969 197.105469 58.542969 197.105469 55.226563 C 197.105469 51.910156 202.082031 51.910156 202.082031 55.226563 "/>
<path style="fill-rule:nonzero;fill:rgb(89.803922%,22.352941%,20.784314%);fill-opacity:0.65098;stroke-width:0.708661;stroke-linecap:round;stroke-linejoin:round;stroke:rgb(89.803922%,22.352941%,20.784314%);stroke-opacity:0.65098;stroke-miterlimit:10;" d="M 94.882813 122.023438 C 94.882813 125.339844 89.90625 125.339844 89.90625 122.023438 C 89.90625 118.703125 94.882813 118.703125 94.882813 122.023438 "/>
<path style="fill-rule:nonzero;fill:rgb(89.803922%,22.352941%,20.784314%);fill-opacity:0.65098;stroke-width:0.708661;stroke-linecap:round;stroke-linejoin:round;stroke:rgb(89.803922%,22.352941%,20.784314%);stroke-opacity:0.65098;stroke-miterlimit:10;" d="M 70.835938 88.65625 C 70.835938 91.972656 65.859375 91.972656 65.859375 88.65625 C 65.859375 85.335938 70.835938 85.335938 70.835938 88.65625 "/>
<path style="fill-rule:nonzero;fill:rgb(89.803922%,22.352941%,20.784314%);fill-opacity:0.65098;stroke-width:0.708661;stroke-linecap:round;stroke-linejoin:round;stroke:rgb(89.803922%,22.352941%,20.784314%);stroke-opacity:0.65098;stroke-miterlimit:10;" d="M 63.839844 108.402344 C 63.839844 111.71875 58.863281 111.71875 58.863281 108.402344 C 58.863281 105.082031 63.839844 105.082031 63.839844 108.402344 "/>
<path style="fill-rule:nonzero;fill:rgb(89.803922%,22.352941%,20.784314%);fill-opacity:0.65098;stroke-width:0.708661;stroke-linecap:round;stroke-linejoin:round;stroke:rgb(89.803922%,22.352941%,20.784314%);stroke-opacity:0.65098;stroke-miterlimit:10;" d="M 88.691406 63.214844 C 88.691406 66.53125 83.714844 66.53125 83.714844 63.214844 C 83.714844 59.894531 88.691406 59.894531 88.691406 63.214844 "/>
<path style="fill-rule:nonzero;fill:rgb(89.803922%,22.352941%,20.784314%);fill-opacity:0.65098;stroke-width:0.708661;stroke-linecap:round;stroke-linejoin:round;stroke:rgb(89.803922%,22.352941%,20.784314%);stroke-opacity:0.65098;stroke-miterlimit:10;" d="M 362.390625 288.632813 C 362.390625 291.949219 357.414063 291.949219 357.414063 288.632813 C 357.414063 285.3125 362.390625 285.3125 362.390625 288.632813 "/>
<path style="fill-rule:nonzero;fill:rgb(89.803922%,22.352941%,20.784314%);fill-opacity:0.65098;stroke-width:0.708661;stroke-linecap:round;stroke-linejoin:round;stroke:rgb(89.803922%,22.352941%,20.784314%);stroke-opacity:0.65098;stroke-miterlimit:10;" d="M 277.421875 351.648438 C 277.421875 354.964844 272.445313 354.964844 272.445313 351.648438 C 272.445313 348.328125 277.421875 348.328125 277.421875 351.648438 "/>
<path style="fill-rule:nonzero;fill:rgb(89.803922%,22.352941%,20.784314%);fill-opacity:0.65098;stroke-width:0.708661;stroke-linecap:round;stroke-linejoin:round;stroke:rgb(89.803922%,22.352941%,20.784314%);stroke-opacity:0.65098;stroke-miterlimit:10;" d="M 534.847656 24.039063 C 534.847656 27.359375 529.871094 27.359375 529.871094 24.039063 C 529.871094 20.722656 534.847656 20.722656 534.847656 24.039063 "/>
<path style="fill-rule:nonzero;fill:rgb(89.803922%,22.352941%,20.784314%);fill-opacity:0.65098;stroke-width:0.708661;stroke-linecap:round;stroke-linejoin:round;stroke:rgb(89.803922%,22.352941%,20.784314%);stroke-opacity:0.65098;stroke-miterlimit:10;" d="M 132.816406 112.160156 C 132.816406 115.476563 127.839844 115.476563 127.839844 112.160156 C 127.839844 108.839844 132.816406 108.839844 132.816406 112.160156 "/>
<path style="fill-rule:nonzero;fill:rgb(89.803922%,22.352941%,20.784314%);fill-opacity:0.65098;stroke-width:0.708661;stroke-linecap:round;stroke-linejoin:round;stroke:rgb(89.803922%,22.352941%,20.784314%);stroke-opacity:0.65098;stroke-miterlimit:10;" d="M 518.085938 41.199219 C 518.085938 44.515625 513.109375 44.515625 513.109375 41.199219 C 513.109375 37.878906 518.085938 37.878906 518.085938 41.199219 "/>
<path style="fill-rule:nonzero;fill:rgb(89.803922%,22.352941%,20.784314%);fill-opacity:0.65098;stroke-width:0.708661;stroke-linecap:round;stroke-linejoin:round;stroke:rgb(89.803922%,22.352941%,20.784314%);stroke-opacity:0.65098;stroke-miterlimit:10;" d="M 57.140625 82.597656 C 57.140625 85.917969 52.164063 85.917969 52.164063 82.597656 C 52.164063 79.28125 57.140625 79.28125 57.140625 82.597656 "/>
<path style="fill-rule:nonzero;fill:rgb(89.803922%,22.352941%,20.784314%);fill-opacity:0.65098;stroke-width:0.708661;stroke-linecap:round;stroke-linejoin:round;stroke:rgb(89.803922%,22.352941%,20.784314%);stroke-opacity:0.65098;stroke-miterlimit:10;" d="M 124.707031 49.277344 C 124.707031 52.597656 119.730469 52.597656 119.730469 49.277344 C 119.730469 45.960938 124.707031 45.960938 124.707031 49.277344 "/>
<path style="fill-rule:nonzero;fill:rgb(89.803922%,22.352941%,20.784314%);fill-opacity:0.65098;stroke-width:0.708661;stroke-linecap:round;stroke-linejoin:round;stroke:rgb(89.803922%,22.352941%,20.784314%);stroke-opacity:0.65098;stroke-miterlimit:10;" d="M 223.152344 68.050781 C 223.152344 71.367188 218.175781 71.367188 218.175781 68.050781 C 218.175781 64.730469 223.152344 64.730469 223.152344 68.050781 "/>
<path style="fill-rule:nonzero;fill:rgb(89.803922%,22.352941%,20.784314%);fill-opacity:0.65098;stroke-width:0.708661;stroke-linecap:round;stroke-linejoin:round;stroke:rgb(89.803922%,22.352941%,20.784314%);stroke-opacity:0.65098;stroke-miterlimit:10;" d="M 59.769531 72.683594 C 59.769531 76.003906 54.792969 76.003906 54.792969 72.683594 C 54.792969 69.367188 59.769531 69.367188 59.769531 72.683594 "/>
<path style="fill-rule:nonzero;fill:rgb(89.803922%,22.352941%,20.784314%);fill-opacity:0.65098;stroke-width:0.708661;stroke-linecap:round;stroke-linejoin:round;stroke:rgb(89.803922%,22.352941%,20.784314%);stroke-opacity:0.65098;stroke-miterlimit:10;" d="M 100.386719 85.402344 C 100.386719 88.722656 95.410156 88.722656 95.410156 85.402344 C 95.410156 82.085938 100.386719 82.085938 100.386719 85.402344 "/>
<path style="fill-rule:nonzero;fill:rgb(89.803922%,22.352941%,20.784314%);fill-opacity:0.65098;stroke-width:0.708661;stroke-linecap:round;stroke-linejoin:round;stroke:rgb(89.803922%,22.352941%,20.784314%);stroke-opacity:0.65098;stroke-miterlimit:10;" d="M 263.605469 211.65625 C 263.605469 214.972656 258.628906 214.972656 258.628906 211.65625 C 258.628906 208.339844 263.605469 208.339844 263.605469 211.65625 "/>
<path style="fill-rule:nonzero;fill:rgb(89.803922%,22.352941%,20.784314%);fill-opacity:0.65098;stroke-width:0.708661;stroke-linecap:round;stroke-linejoin:round;stroke:rgb(89.803922%,22.352941%,20.784314%);stroke-opacity:0.65098;stroke-miterlimit:10;" d="M 52.398438 82.667969 C 52.398438 85.984375 47.421875 85.984375 47.421875 82.667969 C 47.421875 79.351563 52.398438 79.351563 52.398438 82.667969 "/>
<path style="fill-rule:nonzero;fill:rgb(89.803922%,22.352941%,20.784314%);fill-opacity:0.65098;stroke-width:0.708661;stroke-linecap:round;stroke-linejoin:round;stroke:rgb(89.803922%,22.352941%,20.784314%);stroke-opacity:0.65098;stroke-miterlimit:10;" d="M 43.898438 64.90625 C 43.898438 68.226563 38.921875 68.226563 38.921875 64.90625 C 38.921875 61.589844 43.898438 61.589844 43.898438 64.90625 "/>
<path style="fill-rule:nonzero;fill:rgb(89.803922%,22.352941%,20.784314%);fill-opacity:0.65098;stroke-width:0.708661;stroke-linecap:round;stroke-linejoin:round;stroke:rgb(89.803922%,22.352941%,20.784314%);stroke-opacity:0.65098;stroke-miterlimit:10;" d="M 141.175781 98.382813 C 141.175781 101.703125 136.199219 101.703125 136.199219 98.382813 C 136.199219 95.066406 141.175781 95.066406 141.175781 98.382813 "/>
<path style="fill-rule:nonzero;fill:rgb(89.803922%,22.352941%,20.784314%);fill-opacity:0.65098;stroke-width:0.708661;stroke-linecap:round;stroke-linejoin:round;stroke:rgb(89.803922%,22.352941%,20.784314%);stroke-opacity:0.65098;stroke-miterlimit:10;" d="M 194.277344 157.792969 C 194.277344 161.109375 189.300781 161.109375 189.300781 157.792969 C 189.300781 154.476563 194.277344 154.476563 194.277344 157.792969 "/>
<path style="fill-rule:nonzero;fill:rgb(89.803922%,22.352941%,20.784314%);fill-opacity:0.65098;stroke-width:0.708661;stroke-linecap:round;stroke-linejoin:round;stroke:rgb(89.803922%,22.352941%,20.784314%);stroke-opacity:0.65098;stroke-miterlimit:10;" d="M 203.144531 68.097656 C 203.144531 71.414063 198.167969 71.414063 198.167969 68.097656 C 198.167969 64.78125 203.144531 64.78125 203.144531 68.097656 "/>
<path style="fill-rule:nonzero;fill:rgb(89.803922%,22.352941%,20.784314%);fill-opacity:0.65098;stroke-width:0.708661;stroke-linecap:round;stroke-linejoin:round;stroke:rgb(89.803922%,22.352941%,20.784314%);stroke-opacity:0.65098;stroke-miterlimit:10;" d="M 130.183594 169.710938 C 130.183594 173.03125 125.207031 173.03125 125.207031 169.710938 C 125.207031 166.394531 130.183594 166.394531 130.183594 169.710938 "/>
<path style="fill-rule:nonzero;fill:rgb(89.803922%,22.352941%,20.784314%);fill-opacity:0.65098;stroke-width:0.708661;stroke-linecap:round;stroke-linejoin:round;stroke:rgb(89.803922%,22.352941%,20.784314%);stroke-opacity:0.65098;stroke-miterlimit:10;" d="M 84.589844 55.089844 C 84.589844 58.410156 79.613281 58.410156 79.613281 55.089844 C 79.613281 51.773438 84.589844 51.773438 84.589844 55.089844 "/>
<path style="fill-rule:nonzero;fill:rgb(89.803922%,22.352941%,20.784314%);fill-opacity:0.65098;stroke-width:0.708661;stroke-linecap:round;stroke-linejoin:round;stroke:rgb(89.803922%,22.352941%,20.784314%);stroke-opacity:0.65098;stroke-miterlimit:10;" d="M 87.917969 91.039063 C 87.917969 94.355469 82.941406 94.355469 82.941406 91.039063 C 82.941406 87.722656 87.917969 87.722656 87.917969 91.039063 "/>
<path style="fill-rule:nonzero;fill:rgb(89.803922%,22.352941%,20.784314%);fill-opacity:0.65098;stroke-width:0.708661;stroke-linecap:round;stroke-linejoin:round;stroke:rgb(89.803922%,22.352941%,20.784314%);stroke-opacity:0.65098;stroke-miterlimit:10;" d="M 401.027344 42.539063 C 401.027344 45.855469 396.050781 45.855469 396.050781 42.539063 C 396.050781 39.222656 401.027344 39.222656 401.027344 42.539063 "/>
<path style="fill-rule:nonzero;fill:rgb(89.803922%,22.352941%,20.784314%);fill-opacity:0.65098;stroke-width:0.708661;stroke-linecap:round;stroke-linejoin:round;stroke:rgb(89.803922%,22.352941%,20.784314%);stroke-opacity:0.65098;stroke-miterlimit:10;" d="M 57.886719 52.328125 C 57.886719 55.644531 52.910156 55.644531 52.910156 52.328125 C 52.910156 49.011719 57.886719 49.011719 57.886719 52.328125 "/>
<path style="fill-rule:nonzero;fill:rgb(89.803922%,22.352941%,20.784314%);fill-opacity:0.65098;stroke-width:0.708661;stroke-linecap:round;stroke-linejoin:round;stroke:rgb(89.803922%,22.352941%,20.784314%);stroke-opacity:0.65098;stroke-miterlimit:10;" d="M 413.078125 261.367188 C 413.078125 264.6875 408.101563 264.6875 408.101563 261.367188 C 408.101563 258.050781 413.078125 258.050781 413.078125 261.367188 "/>
<path style="fill-rule:nonzero;fill:rgb(89.803922%,22.352941%,20.784314%);fill-opacity:0.65098;stroke-width:0.708661;stroke-linecap:round;stroke-linejoin:round;stroke:rgb(89.803922%,22.352941%,20.784314%);stroke-opacity:0.65098;stroke-miterlimit:10;" d="M 77.511719 94.871094 C 77.511719 98.191406 72.535156 98.191406 72.535156 94.871094 C 72.535156 91.554688 77.511719 91.554688 77.511719 94.871094 "/>
<path style="fill-rule:nonzero;fill:rgb(89.803922%,22.352941%,20.784314%);fill-opacity:0.65098;stroke-width:0.708661;stroke-linecap:round;stroke-linejoin:round;stroke:rgb(89.803922%,22.352941%,20.784314%);stroke-opacity:0.65098;stroke-miterlimit:10;" d="M 44.535156 54.597656 C 44.535156 57.917969 39.558594 57.917969 39.558594 54.597656 C 39.558594 51.28125 44.535156 51.28125 44.535156 54.597656 "/>
<path style="fill-rule:nonzero;fill:rgb(89.803922%,22.352941%,20.784314%);fill-opacity:0.65098;stroke-width:0.708661;stroke-linecap:round;stroke-linejoin:round;stroke:rgb(89.803922%,22.352941%,20.784314%);stroke-opacity:0.65098;stroke-miterlimit:10;" d="M 380.3125 173.96875 C 380.3125 177.289063 375.335938 177.289063 375.335938 173.96875 C 375.335938 170.652344 380.3125 170.652344 380.3125 173.96875 "/>
<path style="fill-rule:nonzero;fill:rgb(89.803922%,22.352941%,20.784314%);fill-opacity:0.65098;stroke-width:0.708661;stroke-linecap:round;stroke-linejoin:round;stroke:rgb(89.803922%,22.352941%,20.784314%);stroke-opacity:0.65098;stroke-miterlimit:10;" d="M 239.683594 47.902344 C 239.683594 51.21875 234.707031 51.21875 234.707031 47.902344 C 234.707031 44.585938 239.683594 44.585938 239.683594 47.902344 "/>
<path style="fill-rule:nonzero;fill:rgb(89.803922%,22.352941%,20.784314%);fill-opacity:0.65098;stroke-width:0.708661;stroke-linecap:round;stroke-linejoin:round;stroke:rgb(89.803922%,22.352941%,20.784314%);stroke-opacity:0.65098;stroke-miterlimit:10;" d="M 55.328125 55.054688 C 55.328125 58.371094 50.351563 58.371094 50.351563 55.054688 C 50.351563 51.734375 55.328125 51.734375 55.328125 55.054688 "/>
<path style="fill-rule:nonzero;fill:rgb(89.803922%,22.352941%,20.784314%);fill-opacity:0.65098;stroke-width:0.708661;stroke-linecap:round;stroke-linejoin:round;stroke:rgb(89.803922%,22.352941%,20.784314%);stroke-opacity:0.65098;stroke-miterlimit:10;" d="M 44.152344 69.820313 C 44.152344 73.136719 39.175781 73.136719 39.175781 69.820313 C 39.175781 66.503906 44.152344 66.503906 44.152344 69.820313 "/>
<path style="fill-rule:nonzero;fill:rgb(89.803922%,22.352941%,20.784314%);fill-opacity:0.65098;stroke-width:0.708661;stroke-linecap:round;stroke-linejoin:round;stroke:rgb(89.803922%,22.352941%,20.784314%);stroke-opacity:0.65098;stroke-miterlimit:10;" d="M 413.84375 405.21875 C 413.84375 408.539063 408.867188 408.539063 408.867188 405.21875 C 408.867188 401.902344 413.84375 401.902344 413.84375 405.21875 "/>
<path style="fill-rule:nonzero;fill:rgb(89.803922%,22.352941%,20.784314%);fill-opacity:0.65098;stroke-width:0.708661;stroke-linecap:round;stroke-linejoin:round;stroke:rgb(89.803922%,22.352941%,20.784314%);stroke-opacity:0.65098;stroke-miterlimit:10;" d="M 91.566406 111.3125 C 91.566406 114.628906 86.589844 114.628906 86.589844 111.3125 C 86.589844 107.992188 91.566406 107.992188 91.566406 111.3125 "/>
<path style="fill-rule:nonzero;fill:rgb(89.803922%,22.352941%,20.784314%);fill-opacity:0.65098;stroke-width:0.708661;stroke-linecap:round;stroke-linejoin:round;stroke:rgb(89.803922%,22.352941%,20.784314%);stroke-opacity:0.65098;stroke-miterlimit:10;" d="M 69.386719 64.726563 C 69.386719 68.042969 64.410156 68.042969 64.410156 64.726563 C 64.410156 61.40625 69.386719 61.40625 69.386719 64.726563 "/>
<path style="fill-rule:nonzero;fill:rgb(89.803922%,22.352941%,20.784314%);fill-opacity:0.65098;stroke-width:0.708661;stroke-linecap:round;stroke-linejoin:round;stroke:rgb(89.803922%,22.352941%,20.784314%);stroke-opacity:0.65098;stroke-miterlimit:10;" d="M 108.023438 103.945313 C 108.023438 107.265625 103.046875 107.265625 103.046875 103.945313 C 103.046875 100.628906 108.023438 100.628906 108.023438 103.945313 "/>
<path style="fill-rule:nonzero;fill:rgb(89.803922%,22.352941%,20.784314%);fill-opacity:0.65098;stroke-width:0.708661;stroke-linecap:round;stroke-linejoin:round;stroke:rgb(89.803922%,22.352941%,20.784314%);stroke-opacity:0.65098;stroke-miterlimit:10;" d="M 139.003906 129.140625 C 139.003906 132.457031 134.027344 132.457031 134.027344 129.140625 C 134.027344 125.824219 139.003906 125.824219 139.003906 129.140625 "/>
<path style="fill-rule:nonzero;fill:rgb(89.803922%,22.352941%,20.784314%);fill-opacity:0.65098;stroke-width:0.708661;stroke-linecap:round;stroke-linejoin:round;stroke:rgb(89.803922%,22.352941%,20.784314%);stroke-opacity:0.65098;stroke-miterlimit:10;" d="M 469.5625 387.558594 C 469.5625 390.875 464.585938 390.875 464.585938 387.558594 C 464.585938 384.238281 469.5625 384.238281 469.5625 387.558594 "/>
<path style="fill-rule:nonzero;fill:rgb(89.803922%,22.352941%,20.784314%);fill-opacity:0.65098;stroke-width:0.708661;stroke-linecap:round;stroke-linejoin:round;stroke:rgb(89.803922%,22.352941%,20.784314%);stroke-opacity:0.65098;stroke-miterlimit:10;" d="M 322.40625 94.410156 C 322.40625 97.726563 317.429688 97.726563 317.429688 94.410156 C 317.429688 91.089844 322.40625 91.089844 322.40625 94.410156 "/>
<path style="fill-rule:nonzero;fill:rgb(89.803922%,22.352941%,20.784314%);fill-opacity:0.65098;stroke-width:0.708661;stroke-linecap:round;stroke-linejoin:round;stroke:rgb(89.803922%,22.352941%,20.784314%);stroke-opacity:0.65098;stroke-miterlimit:10;" d="M 233.230469 112.710938 C 233.230469 116.027344 228.253906 116.027344 228.253906 112.710938 C 228.253906 109.394531 233.230469 109.394531 233.230469 112.710938 "/>
<path style="fill-rule:nonzero;fill:rgb(89.803922%,22.352941%,20.784314%);fill-opacity:0.65098;stroke-width:0.708661;stroke-linecap:round;stroke-linejoin:round;stroke:rgb(89.803922%,22.352941%,20.784314%);stroke-opacity:0.65098;stroke-miterlimit:10;" d="M 397.699219 32.882813 C 397.699219 36.203125 392.722656 36.203125 392.722656 32.882813 C 392.722656 29.566406 397.699219 29.566406 397.699219 32.882813 "/>
<path style="fill-rule:nonzero;fill:rgb(89.803922%,22.352941%,20.784314%);fill-opacity:0.65098;stroke-width:0.708661;stroke-linecap:round;stroke-linejoin:round;stroke:rgb(89.803922%,22.352941%,20.784314%);stroke-opacity:0.65098;stroke-miterlimit:10;" d="M 97.191406 110.632813 C 97.191406 113.953125 92.214844 113.953125 92.214844 110.632813 C 92.214844 107.316406 97.191406 107.316406 97.191406 110.632813 "/>
<path style="fill-rule:nonzero;fill:rgb(89.803922%,22.352941%,20.784314%);fill-opacity:0.65098;stroke-width:0.708661;stroke-linecap:round;stroke-linejoin:round;stroke:rgb(89.803922%,22.352941%,20.784314%);stroke-opacity:0.65098;stroke-miterlimit:10;" d="M 143.265625 64.113281 C 143.265625 67.433594 138.289063 67.433594 138.289063 64.113281 C 138.289063 60.796875 143.265625 60.796875 143.265625 64.113281 "/>
</g>
</g>
</svg>
