<?xml version="1.0" encoding="UTF-8"?>
<svg xmlns="http://www.w3.org/2000/svg" xmlns:xlink="http://www.w3.org/1999/xlink" width="576pt" height="360pt" viewBox="0 0 576 360" version="1.1">
<defs>
<clipPath id="clip1">
  <path d="M 7.722656 4.980469 L 284.019531 4.980469 L 284.019531 353.277344 L 7.722656 353.277344 Z M 7.722656 4.980469 "/>
</clipPath>
<clipPath id="clip2">
  <path d="M 295.722656 40.980469 L 572.019531 40.980469 L 572.019531 317.277344 L 295.722656 317.277344 Z M 295.722656 40.980469 "/>
</clipPath>
</defs>
<g id="surface79">
<rect x="0" y="0" width="576" height="360" style="fill:rgb(100%,100%,100%);fill-opacity:1;stroke:none;"/>
<g clip-path="url(#clip1)" clip-rule="nonzero">
<path style=" stroke:none;fill-rule:nonzero;fill:rgb(0%,0%,1.568627%);fill-opacity:1;" d="M 13.457031 336.492188 L 47.871094 336.492188 L 47.871094 151.480469 L 13.457031 151.480469 Z M 13.457031 336.492188 "/>
<path style=" stroke:none;fill-rule:nonzero;fill:rgb(20%,3.921569%,37.254902%);fill-opacity:1;" d="M 51.691406 336.492188 L 86.105469 336.492188 L 86.105469 147.460938 L 51.691406 147.460938 Z M 51.691406 336.492188 "/>
<path style=" stroke:none;fill-rule:nonzero;fill:rgb(47.058824%,10.980392%,42.745098%);fill-opacity:1;" d="M 89.929688 336.492188 L 124.34375 336.492188 L 124.34375 128.019531 L 89.929688 128.019531 Z M 89.929688 336.492188 "/>
<path style=" stroke:none;fill-rule:nonzero;fill:rgb(73.333333%,21.568627%,32.941176%);fill-opacity:1;" d="M 128.164063 336.492188 L 162.578125 336.492188 L 162.578125 20.765625 L 128.164063 20.765625 Z M 128.164063 336.492188 "/>
<path style=" stroke:none;fill-rule:nonzero;fill:rgb(92.941176%,41.176471%,14.509804%);fill-opacity:1;" d="M 166.398438 336.492188 L 200.8125 336.492188 L 200.8125 82.4375 L 166.398438 82.4375 Z M 166.398438 336.492188 "/>
<path style=" stroke:none;fill-rule:nonzero;fill:rgb(98.823529%,70.980392%,9.803922%);fill-opacity:1;" d="M 204.636719 336.492188 L 239.050781 336.492188 L 239.050781 173.601563 L 204.636719 173.601563 Z M 204.636719 336.492188 "/>
<path style=" stroke:none;fill-rule:nonzero;fill:rgb(98.823529%,100%,64.313725%);fill-opacity:1;" d="M 242.871094 336.492188 L 277.285156 336.492188 L 277.285156 126.007813 L 242.871094 126.007813 Z M 242.871094 336.492188 "/>
</g>
<g clip-path="url(#clip2)" clip-rule="nonzero">
<path style=" stroke:none;fill-rule:nonzero;fill:rgb(98.823529%,100%,64.313725%);fill-opacity:1;" d="M 433.371094 178.628906 L 444.949219 168.800781 L 447.84375 166.339844 L 462.316406 154.054688 L 465.210938 151.59375 L 479.683594 139.308594 L 482.578125 136.847656 L 494.15625 127.019531 L 497.050781 124.558594 L 511.523438 112.273438 L 514.417969 109.8125 L 517.3125 107.355469 L 514.789063 104.488281 L 512.171875 101.710938 L 509.457031 99.027344 L 506.652344 96.4375 L 503.757813 93.945313 L 500.78125 91.554688 L 497.722656 89.269531 L 494.585938 87.09375 L 491.375 85.027344 L 488.09375 83.074219 L 484.75 81.234375 L 481.34375 79.511719 L 477.878906 77.90625 L 474.359375 76.425781 L 470.792969 75.066406 L 467.179688 73.828125 L 463.523438 72.71875 L 459.835938 71.738281 L 456.113281 70.886719 L 452.367188 70.160156 L 448.59375 69.570313 L 444.804688 69.105469 L 441 68.777344 L 437.1875 68.578125 L 433.371094 68.511719 Z M 433.371094 178.628906 "/>
<path style=" stroke:none;fill-rule:nonzero;fill:rgb(98.823529%,70.980392%,9.803922%);fill-opacity:1;" d="M 433.371094 178.628906 L 437.164063 178.503906 L 440.960938 178.378906 L 444.753906 178.253906 L 448.550781 178.128906 L 452.34375 178 L 459.9375 177.75 L 463.730469 177.625 L 467.527344 177.5 L 471.320313 177.371094 L 475.117188 177.246094 L 478.910156 177.121094 L 482.707031 176.996094 L 486.5 176.871094 L 490.296875 176.742188 L 494.09375 176.617188 L 497.886719 176.492188 L 501.683594 176.367188 L 505.476563 176.242188 L 509.273438 176.113281 L 513.066406 175.988281 L 516.863281 175.863281 L 520.65625 175.738281 L 524.453125 175.613281 L 528.246094 175.484375 L 535.839844 175.234375 L 539.632813 175.109375 L 543.429688 174.984375 L 543.230469 171.101563 L 542.898438 167.226563 L 542.425781 163.367188 L 541.820313 159.527344 L 541.078125 155.710938 L 540.203125 151.921875 L 539.191406 148.167969 L 538.050781 144.453125 L 536.777344 140.777344 L 535.378906 137.152344 L 533.851563 133.578125 L 532.199219 130.058594 L 530.421875 126.597656 L 528.523438 123.207031 L 526.507813 119.882813 L 524.375 116.628906 L 522.132813 113.457031 L 519.777344 110.363281 L 517.3125 107.355469 L 514.417969 109.8125 L 511.523438 112.273438 L 497.050781 124.558594 L 494.15625 127.019531 L 482.578125 136.847656 L 479.683594 139.308594 L 465.210938 151.59375 L 462.316406 154.054688 L 447.84375 166.339844 L 444.949219 168.800781 Z M 433.371094 178.628906 "/>
<path style=" stroke:none;fill-rule:nonzero;fill:rgb(92.941176%,41.176471%,14.509804%);fill-opacity:1;" d="M 433.371094 178.628906 L 435.378906 181.851563 L 437.390625 185.074219 L 441.40625 191.519531 L 443.417969 194.738281 L 445.425781 197.960938 L 447.4375 201.183594 L 451.453125 207.628906 L 453.464844 210.847656 L 455.472656 214.070313 L 457.484375 217.292969 L 459.492188 220.515625 L 461.503906 223.738281 L 463.511719 226.960938 L 465.519531 230.179688 L 467.53125 233.402344 L 469.539063 236.625 L 471.550781 239.847656 L 473.558594 243.070313 L 475.566406 246.289063 L 477.578125 249.511719 L 479.585938 252.734375 L 481.597656 255.957031 L 483.605469 259.179688 L 485.617188 262.402344 L 487.625 265.621094 L 489.632813 268.84375 L 491.644531 272.066406 L 494.867188 269.976563 L 498.015625 267.777344 L 501.082031 265.46875 L 504.070313 263.054688 L 506.972656 260.539063 L 509.78125 257.921875 L 512.5 255.210938 L 515.121094 252.40625 L 517.644531 249.507813 L 520.066406 246.527344 L 522.378906 243.464844 L 524.585938 240.320313 L 526.683594 237.101563 L 528.664063 233.8125 L 530.53125 230.457031 L 532.277344 227.035156 L 533.90625 223.558594 L 535.414063 220.027344 L 536.792969 216.441406 L 538.050781 212.8125 L 539.175781 209.140625 L 540.175781 205.433594 L 541.046875 201.695313 L 541.785156 197.925781 L 542.390625 194.132813 L 542.867188 190.320313 L 543.207031 186.496094 L 543.414063 182.664063 L 543.488281 178.824219 L 543.429688 174.984375 L 539.632813 175.109375 L 535.839844 175.234375 L 528.246094 175.484375 L 524.453125 175.613281 L 520.65625 175.738281 L 516.863281 175.863281 L 513.066406 175.988281 L 509.273438 176.113281 L 505.476563 176.242188 L 501.683594 176.367188 L 497.886719 176.492188 L 494.09375 176.617188 L 490.296875 176.742188 L 486.5 176.871094 L 482.707031 176.996094 L 478.910156 177.121094 L 475.117188 177.246094 L 471.320313 177.371094 L 467.527344 177.5 L 463.730469 177.625 L 459.9375 177.75 L 452.34375 178 L 448.550781 178.128906 L 444.753906 178.253906 L 440.960938 178.378906 L 437.164063 178.503906 Z M 433.371094 178.628906 "/>
<path style=" stroke:none;fill-rule:nonzero;fill:rgb(73.333333%,21.568627%,32.941176%);fill-opacity:1;" d="M 433.371094 178.628906 L 430.800781 181.425781 L 428.234375 184.226563 L 425.667969 187.023438 L 423.097656 189.820313 L 417.964844 195.414063 L 415.394531 198.210938 L 412.828125 201.007813 L 410.261719 203.808594 L 407.691406 206.605469 L 402.558594 212.199219 L 399.988281 214.996094 L 394.855469 220.589844 L 392.285156 223.390625 L 387.152344 228.984375 L 384.582031 231.78125 L 379.449219 237.375 L 376.878906 240.171875 L 374.3125 242.972656 L 371.746094 245.769531 L 369.175781 248.566406 L 364.042969 254.160156 L 361.472656 256.957031 L 358.90625 259.753906 L 361.726563 262.253906 L 364.628906 264.65625 L 367.609375 266.960938 L 370.671875 269.15625 L 373.804688 271.25 L 377.007813 273.234375 L 380.277344 275.105469 L 383.609375 276.863281 L 387 278.511719 L 390.441406 280.039063 L 393.9375 281.445313 L 397.476563 282.734375 L 401.0625 283.902344 L 404.679688 284.945313 L 408.335938 285.867188 L 412.019531 286.660156 L 415.726563 287.328125 L 419.457031 287.867188 L 423.199219 288.277344 L 426.957031 288.5625 L 430.722656 288.71875 L 434.488281 288.742188 L 438.257813 288.640625 L 442.015625 288.410156 L 445.765625 288.050781 L 449.503906 287.5625 L 453.21875 286.945313 L 456.914063 286.203125 L 460.582031 285.335938 L 464.214844 284.339844 L 467.8125 283.222656 L 471.371094 281.984375 L 474.886719 280.625 L 478.351563 279.144531 L 481.761719 277.546875 L 485.117188 275.832031 L 488.414063 274.003906 L 491.644531 272.066406 L 489.632813 268.84375 L 487.625 265.621094 L 485.617188 262.402344 L 483.605469 259.179688 L 481.597656 255.957031 L 479.585938 252.734375 L 477.578125 249.511719 L 475.566406 246.289063 L 473.558594 243.070313 L 471.550781 239.847656 L 469.539063 236.625 L 467.53125 233.402344 L 465.519531 230.179688 L 463.511719 226.960938 L 461.503906 223.738281 L 459.492188 220.515625 L 457.484375 217.292969 L 455.472656 214.070313 L 453.464844 210.847656 L 451.453125 207.628906 L 447.4375 201.183594 L 445.425781 197.960938 L 443.417969 194.738281 L 441.40625 191.519531 L 437.390625 185.074219 L 435.378906 181.851563 Z M 433.371094 178.628906 "/>
<path style=" stroke:none;fill-rule:nonzero;fill:rgb(47.058824%,10.980392%,42.745098%);fill-opacity:1;" d="M 433.371094 178.628906 L 429.574219 178.515625 L 425.777344 178.398438 L 421.984375 178.285156 L 418.1875 178.167969 L 414.390625 178.054688 L 410.597656 177.9375 L 406.800781 177.824219 L 403.007813 177.707031 L 399.210938 177.59375 L 395.414063 177.476563 L 391.621094 177.363281 L 387.824219 177.246094 L 384.027344 177.132813 L 380.234375 177.015625 L 376.4375 176.902344 L 372.640625 176.785156 L 368.847656 176.671875 L 365.050781 176.554688 L 361.257813 176.441406 L 357.460938 176.324219 L 353.664063 176.210938 L 349.871094 176.09375 L 346.074219 175.976563 L 342.277344 175.863281 L 338.484375 175.746094 L 334.6875 175.632813 L 330.890625 175.515625 L 327.097656 175.402344 L 323.300781 175.285156 L 323.25 179.066406 L 323.332031 182.847656 L 323.542969 186.625 L 323.878906 190.390625 L 324.347656 194.144531 L 324.945313 197.878906 L 325.671875 201.589844 L 326.523438 205.273438 L 327.5 208.925781 L 328.601563 212.542969 L 329.828125 216.121094 L 331.175781 219.652344 L 332.644531 223.136719 L 334.234375 226.570313 L 335.9375 229.945313 L 337.757813 233.261719 L 339.691406 236.511719 L 341.734375 239.695313 L 343.882813 242.804688 L 346.140625 245.839844 L 348.5 248.792969 L 350.957031 251.667969 L 353.515625 254.453125 L 356.164063 257.152344 L 358.90625 259.753906 L 361.472656 256.957031 L 364.042969 254.160156 L 369.175781 248.566406 L 371.746094 245.769531 L 374.3125 242.972656 L 376.878906 240.171875 L 379.449219 237.375 L 384.582031 231.78125 L 387.152344 228.984375 L 392.285156 223.390625 L 394.855469 220.589844 L 399.988281 214.996094 L 402.558594 212.199219 L 407.691406 206.605469 L 410.261719 203.808594 L 412.828125 201.007813 L 415.394531 198.210938 L 417.964844 195.414063 L 423.097656 189.820313 L 425.667969 187.023438 L 428.234375 184.226563 L 430.800781 181.425781 Z M 433.371094 178.628906 "/>
<path style=" stroke:none;fill-rule:nonzero;fill:rgb(20%,3.921569%,37.254902%);fill-opacity:1;" d="M 433.371094 178.628906 L 428.128906 173.136719 L 425.507813 170.386719 L 422.882813 167.640625 L 420.261719 164.894531 L 417.640625 162.144531 L 409.777344 153.90625 L 407.15625 151.15625 L 401.914063 145.664063 L 399.292969 142.914063 L 394.050781 137.421875 L 391.429688 134.671875 L 386.1875 129.179688 L 383.566406 126.429688 L 375.703125 118.191406 L 373.082031 115.441406 L 370.457031 112.695313 L 367.835938 109.949219 L 365.214844 107.199219 L 359.972656 101.707031 L 357.351563 98.957031 L 354.699219 101.578125 L 352.136719 104.285156 L 349.667969 107.074219 L 347.292969 109.949219 L 345.019531 112.902344 L 342.84375 115.929688 L 340.773438 119.027344 L 338.8125 122.195313 L 336.957031 125.425781 L 335.210938 128.722656 L 333.578125 132.070313 L 332.058594 135.476563 L 330.65625 138.929688 L 329.371094 142.425781 L 328.207031 145.96875 L 327.160156 149.542969 L 326.238281 153.15625 L 325.4375 156.796875 L 324.761719 160.460938 L 324.207031 164.144531 L 323.78125 167.847656 L 323.476563 171.5625 L 323.300781 175.285156 L 327.097656 175.402344 L 330.890625 175.515625 L 334.6875 175.632813 L 338.484375 175.746094 L 342.277344 175.863281 L 346.074219 175.976563 L 349.871094 176.09375 L 353.664063 176.210938 L 357.460938 176.324219 L 361.257813 176.441406 L 365.050781 176.554688 L 368.847656 176.671875 L 372.640625 176.785156 L 376.4375 176.902344 L 380.234375 177.015625 L 384.027344 177.132813 L 387.824219 177.246094 L 391.621094 177.363281 L 395.414063 177.476563 L 399.210938 177.59375 L 403.007813 177.707031 L 406.800781 177.824219 L 410.597656 177.9375 L 414.390625 178.054688 L 418.1875 178.167969 L 421.984375 178.285156 L 425.777344 178.398438 L 429.574219 178.515625 Z M 433.371094 178.628906 "/>
<path style=" stroke:none;fill-rule:nonzero;fill:rgb(0%,0%,1.568627%);fill-opacity:1;" d="M 433.371094 178.628906 L 433.371094 68.511719 L 429.558594 68.578125 L 425.75 68.773438 L 421.949219 69.105469 L 418.164063 69.566406 L 414.394531 70.15625 L 410.652344 70.878906 L 406.933594 71.730469 L 403.25 72.710938 L 399.597656 73.816406 L 395.988281 75.050781 L 392.425781 76.40625 L 388.910156 77.886719 L 385.449219 79.484375 L 382.042969 81.203125 L 378.703125 83.039063 L 375.425781 84.988281 L 372.21875 87.050781 L 369.082031 89.226563 L 366.023438 91.503906 L 363.046875 93.886719 L 360.15625 96.375 L 357.351563 98.957031 L 359.972656 101.707031 L 365.214844 107.199219 L 367.835938 109.949219 L 370.457031 112.695313 L 373.082031 115.441406 L 375.703125 118.191406 L 383.566406 126.429688 L 386.1875 129.179688 L 391.429688 134.671875 L 394.050781 137.421875 L 399.292969 142.914063 L 401.914063 145.664063 L 407.15625 151.15625 L 409.777344 153.90625 L 417.640625 162.144531 L 420.261719 164.894531 L 422.882813 167.640625 L 425.507813 170.386719 L 428.128906 173.136719 Z M 433.371094 178.628906 "/>
</g>
</g>
</svg>
