<?xml version="1.0" encoding="UTF-8"?>
<svg xmlns="http://www.w3.org/2000/svg" xmlns:xlink="http://www.w3.org/1999/xlink" width="576pt" height="360pt" viewBox="0 0 576 360" version="1.1">
<defs>
<clipPath id="clip1">
  <path d="M 7.722656 4.980469 L 284.019531 4.980469 L 284.019531 353.277344 L 7.722656 353.277344 Z M 7.722656 4.980469 "/>
</clipPath>
<clipPath id="clip2">
  <path d="M 295.722656 40.980469 L 572.019531 40.980469 L 572.019531 317.277344 L 295.722656 317.277344 Z M 295.722656 40.980469 "/>
</clipPath>
</defs>
<g id="surface84">
<rect x="0" y="0" width="576" height="360" style="fill:rgb(100%,100%,100%);fill-opacity:1;stroke:none;"/>
<g clip-path="url(#clip1)" clip-rule="nonzero">
<path style=" stroke:none;fill-rule:nonzero;fill:rgb(0%,0%,1.568627%);fill-opacity:1;" d="M 10.4375 336.492188 L 26.738281 336.492188 L 26.738281 151.480469 L 10.4375 151.480469 Z M 10.4375 336.492188 "/>
<path style=" stroke:none;fill-rule:nonzero;fill:rgb(5.098039%,3.137255%,16.470588%);fill-opacity:1;" d="M 28.550781 336.492188 L 44.851563 336.492188 L 44.851563 245.996094 L 28.550781 245.996094 Z M 28.550781 336.492188 "/>
<path style=" stroke:none;fill-rule:nonzero;fill:rgb(15.686275%,4.313725%,32.941176%);fill-opacity:1;" d="M 46.660156 336.492188 L 62.960938 336.492188 L 62.960938 198.40625 L 46.660156 198.40625 Z M 46.660156 336.492188 "/>
<path style=" stroke:none;fill-rule:nonzero;fill:rgb(28.235294%,4.313725%,41.568627%);fill-opacity:1;" d="M 64.773438 336.492188 L 81.074219 336.492188 L 81.074219 147.460938 L 64.773438 147.460938 Z M 64.773438 336.492188 "/>
<path style=" stroke:none;fill-rule:nonzero;fill:rgb(39.607843%,8.235294%,43.137255%);fill-opacity:1;" d="M 82.882813 336.492188 L 99.183594 336.492188 L 99.183594 128.019531 L 82.882813 128.019531 Z M 82.882813 336.492188 "/>
<path style=" stroke:none;fill-rule:nonzero;fill:rgb(50.980392%,12.54902%,42.352941%);fill-opacity:1;" d="M 100.996094 336.492188 L 117.296875 336.492188 L 117.296875 189.691406 L 100.996094 189.691406 Z M 100.996094 336.492188 "/>
<path style=" stroke:none;fill-rule:nonzero;fill:rgb(62.352941%,16.470588%,38.823529%);fill-opacity:1;" d="M 119.109375 336.492188 L 135.410156 336.492188 L 135.410156 20.765625 L 119.109375 20.765625 Z M 119.109375 336.492188 "/>
<path style=" stroke:none;fill-rule:nonzero;fill:rgb(73.333333%,21.568627%,32.941176%);fill-opacity:1;" d="M 137.21875 336.492188 L 153.519531 336.492188 L 153.519531 254.042969 L 137.21875 254.042969 Z M 137.21875 336.492188 "/>
<path style=" stroke:none;fill-rule:nonzero;fill:rgb(83.137255%,28.235294%,25.882353%);fill-opacity:1;" d="M 155.332031 336.492188 L 171.632813 336.492188 L 171.632813 243.316406 L 155.332031 243.316406 Z M 155.332031 336.492188 "/>
<path style=" stroke:none;fill-rule:nonzero;fill:rgb(90.980392%,37.647059%,17.647059%);fill-opacity:1;" d="M 173.441406 336.492188 L 189.742188 336.492188 L 189.742188 205.777344 L 173.441406 205.777344 Z M 173.441406 336.492188 "/>
<path style=" stroke:none;fill-rule:nonzero;fill:rgb(96.078431%,49.019608%,8.235294%);fill-opacity:1;" d="M 191.554688 336.492188 L 207.855469 336.492188 L 207.855469 220.523438 L 191.554688 220.523438 Z M 191.554688 336.492188 "/>
<path style=" stroke:none;fill-rule:nonzero;fill:rgb(98.431373%,61.960784%,2.745098%);fill-opacity:1;" d="M 209.667969 336.492188 L 225.96875 336.492188 L 225.96875 227.898438 L 209.667969 227.898438 Z M 209.667969 336.492188 "/>
<path style=" stroke:none;fill-rule:nonzero;fill:rgb(98.039216%,75.686275%,15.294118%);fill-opacity:1;" d="M 227.777344 336.492188 L 244.078125 336.492188 L 244.078125 82.4375 L 227.777344 82.4375 Z M 227.777344 336.492188 "/>
<path style=" stroke:none;fill-rule:nonzero;fill:rgb(95.294118%,89.803922%,36.078431%);fill-opacity:1;" d="M 245.890625 336.492188 L 262.191406 336.492188 L 262.191406 173.601563 L 245.890625 173.601563 Z M 245.890625 336.492188 "/>
<path style=" stroke:none;fill-rule:nonzero;fill:rgb(98.823529%,100%,64.313725%);fill-opacity:1;" d="M 264 336.492188 L 280.300781 336.492188 L 280.300781 126.007813 L 264 126.007813 Z M 264 336.492188 "/>
</g>
<g clip-path="url(#clip2)" clip-rule="nonzero">
<path style=" stroke:none;fill-rule:nonzero;fill:rgb(98.823529%,100%,64.313725%);fill-opacity:1;" d="M 433.371094 178.628906 L 435.335938 175.378906 L 437.300781 172.132813 L 439.265625 168.882813 L 441.226563 165.632813 L 449.085938 152.632813 L 451.050781 149.386719 L 462.839844 129.886719 L 464.804688 126.640625 L 476.59375 107.140625 L 478.558594 103.894531 L 480.523438 100.644531 L 482.484375 97.394531 L 490.34375 84.394531 L 487.109375 82.515625 L 483.8125 80.742188 L 480.457031 79.085938 L 477.046875 77.542969 L 473.585938 76.117188 L 470.082031 74.808594 L 466.53125 73.621094 L 462.945313 72.558594 L 459.324219 71.613281 L 455.671875 70.792969 L 451.992188 70.097656 L 448.292969 69.527344 L 444.578125 69.082031 L 440.847656 68.765625 L 437.113281 68.574219 L 433.371094 68.511719 Z M 433.371094 178.628906 "/>
<path style=" stroke:none;fill-rule:nonzero;fill:rgb(95.294118%,89.803922%,36.078431%);fill-opacity:1;" d="M 433.371094 178.628906 L 436.492188 176.46875 L 439.609375 174.304688 L 452.09375 165.648438 L 455.214844 163.488281 L 467.699219 154.832031 L 470.820313 152.671875 L 473.9375 150.507813 L 483.300781 144.015625 L 486.421875 141.855469 L 498.90625 133.199219 L 502.027344 131.039063 L 505.148438 128.875 L 508.265625 126.710938 L 514.507813 122.382813 L 517.628906 120.222656 L 523.871094 115.894531 L 521.617188 112.757813 L 519.25 109.707031 L 516.78125 106.738281 L 514.210938 103.855469 L 511.539063 101.066406 L 508.769531 98.375 L 505.910156 95.78125 L 502.960938 93.289063 L 499.925781 90.902344 L 496.808594 88.621094 L 493.613281 86.453125 L 490.34375 84.394531 L 482.484375 97.394531 L 480.523438 100.644531 L 478.558594 103.894531 L 476.59375 107.140625 L 464.804688 126.640625 L 462.839844 129.886719 L 451.050781 149.386719 L 449.085938 152.632813 L 441.226563 165.632813 L 439.265625 168.882813 L 437.300781 172.132813 L 435.335938 175.378906 Z M 433.371094 178.628906 "/>
<path style=" stroke:none;fill-rule:nonzero;fill:rgb(98.039216%,75.686275%,15.294118%);fill-opacity:1;" d="M 433.371094 178.628906 L 437.164063 178.820313 L 440.953125 179.011719 L 448.539063 179.394531 L 452.332031 179.582031 L 463.710938 180.15625 L 467.5 180.347656 L 471.292969 180.535156 L 486.464844 181.300781 L 490.257813 181.488281 L 494.046875 181.679688 L 505.425781 182.253906 L 509.21875 182.441406 L 516.804688 182.824219 L 520.59375 183.015625 L 524.386719 183.207031 L 528.179688 183.394531 L 543.351563 184.160156 L 543.476563 180.355469 L 543.46875 176.550781 L 543.332031 172.75 L 543.0625 168.957031 L 542.664063 165.171875 L 542.132813 161.40625 L 541.472656 157.660156 L 540.683594 153.9375 L 539.769531 150.246094 L 538.722656 146.589844 L 537.554688 142.96875 L 536.261719 139.390625 L 534.84375 135.863281 L 533.308594 132.382813 L 531.648438 128.957031 L 529.875 125.59375 L 527.984375 122.292969 L 525.984375 119.058594 L 523.871094 115.894531 L 517.628906 120.222656 L 514.507813 122.382813 L 508.265625 126.710938 L 505.148438 128.875 L 502.027344 131.039063 L 498.90625 133.199219 L 486.421875 141.855469 L 483.300781 144.015625 L 473.9375 150.507813 L 470.820313 152.671875 L 467.699219 154.832031 L 455.214844 163.488281 L 452.09375 165.648438 L 439.609375 174.304688 L 436.492188 176.46875 Z M 433.371094 178.628906 "/>
<path style=" stroke:none;fill-rule:nonzero;fill:rgb(98.431373%,61.960784%,2.745098%);fill-opacity:1;" d="M 433.371094 178.628906 L 440.550781 181.097656 L 444.144531 182.328125 L 447.734375 183.5625 L 451.328125 184.796875 L 454.917969 186.03125 L 458.507813 187.261719 L 462.101563 188.496094 L 465.691406 189.730469 L 469.285156 190.964844 L 472.875 192.195313 L 476.464844 193.429688 L 480.058594 194.664063 L 483.648438 195.894531 L 487.238281 197.128906 L 490.832031 198.363281 L 494.421875 199.597656 L 498.015625 200.828125 L 505.195313 203.296875 L 508.789063 204.527344 L 512.378906 205.761719 L 515.972656 206.996094 L 519.5625 208.230469 L 523.152344 209.460938 L 526.746094 210.695313 L 530.335938 211.929688 L 533.929688 213.160156 L 537.519531 214.394531 L 538.710938 210.722656 L 539.769531 207.007813 L 540.699219 203.261719 L 541.496094 199.480469 L 542.160156 195.675781 L 542.691406 191.851563 L 543.089844 188.011719 L 543.351563 184.160156 L 528.179688 183.394531 L 524.386719 183.207031 L 520.59375 183.015625 L 516.804688 182.824219 L 509.21875 182.441406 L 505.425781 182.253906 L 494.046875 181.679688 L 490.257813 181.488281 L 486.464844 181.300781 L 471.292969 180.535156 L 467.5 180.347656 L 463.710938 180.15625 L 452.332031 179.582031 L 448.539063 179.394531 L 440.953125 179.011719 L 437.164063 178.820313 Z M 433.371094 178.628906 "/>
<path style=" stroke:none;fill-rule:nonzero;fill:rgb(96.078431%,49.019608%,8.235294%);fill-opacity:1;" d="M 433.371094 178.628906 L 442.570313 185.34375 L 445.640625 187.582031 L 454.839844 194.296875 L 457.910156 196.535156 L 467.109375 203.25 L 470.179688 205.488281 L 479.378906 212.203125 L 482.449219 214.441406 L 485.515625 216.679688 L 488.582031 218.921875 L 491.648438 221.160156 L 494.71875 223.398438 L 503.917969 230.113281 L 506.988281 232.351563 L 516.1875 239.066406 L 519.257813 241.304688 L 522.324219 243.542969 L 524.691406 240.164063 L 526.929688 236.703125 L 529.039063 233.160156 L 531.015625 229.539063 L 532.851563 225.847656 L 534.550781 222.089844 L 536.105469 218.269531 L 537.519531 214.394531 L 533.929688 213.160156 L 530.335938 211.929688 L 526.746094 210.695313 L 523.152344 209.460938 L 519.5625 208.230469 L 515.972656 206.996094 L 512.378906 205.761719 L 508.789063 204.527344 L 505.195313 203.296875 L 498.015625 200.828125 L 494.421875 199.597656 L 490.832031 198.363281 L 487.238281 197.128906 L 483.648438 195.894531 L 480.058594 194.664063 L 476.464844 193.429688 L 472.875 192.195313 L 469.285156 190.964844 L 465.691406 189.730469 L 462.101563 188.496094 L 458.507813 187.261719 L 454.917969 186.03125 L 451.328125 184.796875 L 447.734375 183.5625 L 444.144531 182.328125 L 440.550781 181.097656 Z M 433.371094 178.628906 "/>
<path style=" stroke:none;fill-rule:nonzero;fill:rgb(90.980392%,37.647059%,17.647059%);fill-opacity:1;" d="M 433.371094 178.628906 L 441.980469 191.144531 L 444.132813 194.269531 L 454.894531 209.914063 L 457.046875 213.039063 L 465.65625 225.554688 L 467.808594 228.679688 L 478.570313 244.324219 L 480.722656 247.449219 L 482.875 250.578125 L 485.03125 253.707031 L 489.335938 259.964844 L 491.488281 263.089844 L 495.792969 269.347656 L 499.152344 266.941406 L 502.417969 264.414063 L 505.585938 261.761719 L 508.65625 258.992188 L 511.617188 256.113281 L 514.46875 253.125 L 517.207031 250.027344 L 519.824219 246.832031 L 522.324219 243.542969 L 519.257813 241.304688 L 516.1875 239.066406 L 506.988281 232.351563 L 503.917969 230.113281 L 494.71875 223.398438 L 491.648438 221.160156 L 488.582031 218.921875 L 485.515625 216.679688 L 482.449219 214.441406 L 479.378906 212.203125 L 470.179688 205.488281 L 467.109375 203.25 L 457.910156 196.535156 L 454.839844 194.296875 L 445.640625 187.582031 L 442.570313 185.34375 Z M 433.371094 178.628906 "/>
<path style=" stroke:none;fill-rule:nonzero;fill:rgb(83.137255%,28.235294%,25.882353%);fill-opacity:1;" d="M 433.371094 178.628906 L 434.714844 182.179688 L 436.058594 185.734375 L 437.402344 189.285156 L 438.75 192.835938 L 444.125 207.039063 L 445.472656 210.589844 L 448.160156 217.691406 L 449.503906 221.246094 L 450.851563 224.796875 L 456.226563 239 L 457.574219 242.550781 L 461.605469 253.203125 L 462.953125 256.753906 L 464.296875 260.308594 L 468.328125 270.960938 L 469.675781 274.511719 L 472.363281 281.613281 L 475.882813 280.210938 L 479.347656 278.691406 L 482.761719 277.050781 L 486.117188 275.292969 L 489.410156 273.421875 L 492.636719 271.441406 L 495.792969 269.347656 L 491.488281 263.089844 L 489.335938 259.964844 L 485.03125 253.707031 L 482.875 250.578125 L 480.722656 247.449219 L 478.570313 244.324219 L 467.808594 228.679688 L 465.65625 225.554688 L 457.046875 213.039063 L 454.894531 209.914063 L 444.132813 194.269531 L 441.980469 191.144531 Z M 433.371094 178.628906 "/>
<path style=" stroke:none;fill-rule:nonzero;fill:rgb(73.333333%,21.568627%,32.941176%);fill-opacity:1;" d="M 433.371094 178.628906 L 433.933594 182.386719 L 435.058594 189.894531 L 435.625 193.652344 L 436.75 201.160156 L 437.3125 204.917969 L 437.878906 208.671875 L 438.441406 212.425781 L 439.003906 216.183594 L 439.566406 219.9375 L 440.132813 223.691406 L 440.695313 227.449219 L 441.820313 234.957031 L 442.386719 238.710938 L 442.949219 242.46875 L 444.074219 249.976563 L 444.640625 253.734375 L 445.765625 261.242188 L 446.328125 265 L 446.894531 268.753906 L 447.457031 272.507813 L 448.019531 276.265625 L 448.582031 280.019531 L 449.148438 283.773438 L 449.710938 287.53125 L 453.566406 286.882813 L 457.394531 286.097656 L 461.195313 285.175781 L 464.960938 284.121094 L 468.683594 282.933594 L 472.363281 281.613281 L 469.675781 274.511719 L 468.328125 270.960938 L 464.296875 260.308594 L 462.953125 256.753906 L 461.605469 253.203125 L 457.574219 242.550781 L 456.226563 239 L 450.851563 224.796875 L 449.503906 221.246094 L 448.160156 217.691406 L 445.472656 210.589844 L 444.125 207.039063 L 438.75 192.835938 L 437.402344 189.285156 L 436.058594 185.734375 L 434.714844 182.179688 Z M 433.371094 178.628906 "/>
<path style=" stroke:none;fill-rule:nonzero;fill:rgb(62.352941%,16.470588%,38.823529%);fill-opacity:1;" d="M 433.371094 178.628906 L 431.023438 181.613281 L 428.671875 184.597656 L 419.28125 196.535156 L 416.929688 199.519531 L 414.582031 202.5 L 407.539063 211.453125 L 405.1875 214.4375 L 395.796875 226.375 L 393.449219 229.355469 L 391.097656 232.339844 L 381.707031 244.277344 L 379.355469 247.261719 L 374.660156 253.230469 L 372.3125 256.210938 L 367.617188 262.179688 L 365.265625 265.164063 L 368.246094 267.429688 L 371.300781 269.589844 L 374.429688 271.648438 L 377.625 273.597656 L 380.882813 275.4375 L 384.203125 277.164063 L 387.578125 278.777344 L 391.007813 280.277344 L 394.488281 281.65625 L 398.011719 282.917969 L 401.574219 284.058594 L 405.175781 285.078125 L 408.808594 285.976563 L 412.472656 286.746094 L 416.15625 287.394531 L 419.863281 287.917969 L 423.585938 288.3125 L 427.316406 288.582031 L 431.058594 288.726563 L 434.800781 288.738281 L 438.539063 288.628906 L 442.277344 288.386719 L 446 288.023438 L 449.710938 287.53125 L 449.148438 283.773438 L 448.582031 280.019531 L 448.019531 276.265625 L 447.457031 272.507813 L 446.894531 268.753906 L 446.328125 265 L 445.765625 261.242188 L 444.640625 253.734375 L 444.074219 249.976563 L 442.949219 242.46875 L 442.386719 238.710938 L 441.820313 234.957031 L 440.695313 227.449219 L 440.132813 223.691406 L 439.566406 219.9375 L 439.003906 216.183594 L 438.441406 212.425781 L 437.878906 208.671875 L 437.3125 204.917969 L 436.75 201.160156 L 435.625 193.652344 L 435.058594 189.894531 L 433.933594 182.386719 Z M 433.371094 178.628906 "/>
<path style=" stroke:none;fill-rule:nonzero;fill:rgb(50.980392%,12.54902%,42.352941%);fill-opacity:1;" d="M 433.371094 178.628906 L 430.082031 180.53125 L 420.226563 186.238281 L 416.9375 188.140625 L 410.367188 191.945313 L 407.078125 193.847656 L 397.222656 199.554688 L 393.933594 201.457031 L 390.648438 203.363281 L 387.363281 205.265625 L 384.074219 207.167969 L 377.503906 210.972656 L 374.214844 212.875 L 364.359375 218.582031 L 361.070313 220.484375 L 354.5 224.289063 L 351.210938 226.191406 L 341.355469 231.898438 L 338.066406 233.800781 L 340.027344 237.050781 L 342.09375 240.234375 L 344.273438 243.34375 L 346.558594 246.378906 L 348.945313 249.332031 L 351.433594 252.199219 L 354.015625 254.980469 L 356.695313 257.671875 L 359.464844 260.265625 L 362.324219 262.765625 L 365.265625 265.164063 L 367.617188 262.179688 L 372.3125 256.210938 L 374.660156 253.230469 L 379.355469 247.261719 L 381.707031 244.277344 L 391.097656 232.339844 L 393.449219 229.355469 L 395.796875 226.375 L 405.1875 214.4375 L 407.539063 211.453125 L 414.582031 202.5 L 416.929688 199.519531 L 419.28125 196.535156 L 428.671875 184.597656 L 431.023438 181.613281 Z M 433.371094 178.628906 "/>
<path style=" stroke:none;fill-rule:nonzero;fill:rgb(39.607843%,8.235294%,43.137255%);fill-opacity:1;" d="M 433.371094 178.628906 L 429.574219 178.578125 L 425.777344 178.523438 L 421.980469 178.472656 L 418.183594 178.417969 L 410.589844 178.316406 L 406.792969 178.261719 L 402.996094 178.210938 L 399.199219 178.15625 L 395.402344 178.105469 L 391.605469 178.050781 L 387.808594 178 L 384.011719 177.945313 L 380.214844 177.894531 L 376.417969 177.839844 L 372.621094 177.789063 L 368.824219 177.734375 L 365.027344 177.683594 L 361.230469 177.628906 L 357.433594 177.578125 L 353.636719 177.523438 L 346.042969 177.421875 L 342.246094 177.367188 L 338.449219 177.316406 L 334.652344 177.261719 L 330.855469 177.210938 L 327.058594 177.15625 L 323.261719 177.105469 L 323.277344 181.058594 L 323.4375 185.007813 L 323.734375 188.953125 L 324.175781 192.878906 L 324.757813 196.792969 L 325.480469 200.679688 L 326.34375 204.539063 L 327.339844 208.363281 L 328.476563 212.152344 L 329.746094 215.894531 L 331.152344 219.589844 L 332.6875 223.234375 L 334.355469 226.820313 L 336.148438 230.34375 L 338.066406 233.800781 L 341.355469 231.898438 L 351.210938 226.191406 L 354.5 224.289063 L 361.070313 220.484375 L 364.359375 218.582031 L 374.214844 212.875 L 377.503906 210.972656 L 384.074219 207.167969 L 387.363281 205.265625 L 390.648438 203.363281 L 393.933594 201.457031 L 397.222656 199.554688 L 407.078125 193.847656 L 410.367188 191.945313 L 416.9375 188.140625 L 420.226563 186.238281 L 430.082031 180.53125 Z M 433.371094 178.628906 "/>
<path style=" stroke:none;fill-rule:nonzero;fill:rgb(28.235294%,4.313725%,41.568627%);fill-opacity:1;" d="M 433.371094 178.628906 L 423.386719 173.144531 L 420.058594 171.320313 L 416.726563 169.492188 L 353.492188 134.757813 L 350.164063 132.933594 L 336.851563 125.621094 L 335.058594 129.019531 L 333.390625 132.476563 L 331.839844 135.992188 L 330.414063 139.558594 L 329.113281 143.175781 L 327.941406 146.832031 L 326.898438 150.527344 L 325.980469 154.257813 L 325.195313 158.019531 L 324.542969 161.804688 L 324.023438 165.609375 L 323.636719 169.433594 L 323.382813 173.265625 L 323.261719 177.105469 L 327.058594 177.15625 L 330.855469 177.210938 L 334.652344 177.261719 L 338.449219 177.316406 L 342.246094 177.367188 L 346.042969 177.421875 L 353.636719 177.523438 L 357.433594 177.578125 L 361.230469 177.628906 L 365.027344 177.683594 L 368.824219 177.734375 L 372.621094 177.789063 L 376.417969 177.839844 L 380.214844 177.894531 L 384.011719 177.945313 L 387.808594 178 L 391.605469 178.050781 L 395.402344 178.105469 L 399.199219 178.15625 L 402.996094 178.210938 L 406.792969 178.261719 L 410.589844 178.316406 L 418.183594 178.417969 L 421.980469 178.472656 L 425.777344 178.523438 L 429.574219 178.578125 Z M 433.371094 178.628906 "/>
<path style=" stroke:none;fill-rule:nonzero;fill:rgb(15.686275%,4.313725%,32.941176%);fill-opacity:1;" d="M 433.371094 178.628906 L 398.644531 138.378906 L 396.164063 135.5 L 383.761719 121.125 L 381.285156 118.25 L 361.441406 95.25 L 358.511719 97.867188 L 355.679688 100.589844 L 352.945313 103.410156 L 350.3125 106.328125 L 347.789063 109.335938 L 345.371094 112.429688 L 343.066406 115.613281 L 340.875 118.875 L 338.800781 122.210938 L 336.851563 125.621094 L 350.164063 132.933594 L 353.492188 134.757813 L 416.726563 169.492188 L 420.058594 171.320313 L 423.386719 173.144531 Z M 433.371094 178.628906 "/>
<path style=" stroke:none;fill-rule:nonzero;fill:rgb(5.098039%,3.137255%,16.470588%);fill-opacity:1;" d="M 433.371094 178.628906 L 431.625 175.257813 L 429.875 171.886719 L 422.890625 158.402344 L 421.144531 155.027344 L 419.394531 151.65625 L 410.664063 134.800781 L 408.914063 131.425781 L 398.4375 111.199219 L 396.6875 107.828125 L 394.941406 104.453125 L 387.957031 90.96875 L 386.207031 87.597656 L 384.460938 84.226563 L 382.714844 80.851563 L 378.945313 82.902344 L 375.257813 85.09375 L 371.65625 87.429688 L 368.152344 89.902344 L 364.742188 92.511719 L 361.441406 95.25 L 381.285156 118.25 L 383.761719 121.125 L 396.164063 135.5 L 398.644531 138.378906 Z M 433.371094 178.628906 "/>
<path style=" stroke:none;fill-rule:nonzero;fill:rgb(0%,0%,1.568627%);fill-opacity:1;" d="M 433.371094 178.628906 L 433.371094 68.511719 L 429.609375 68.574219 L 425.855469 68.769531 L 422.109375 69.089844 L 418.378906 69.535156 L 414.664063 70.113281 L 410.96875 70.8125 L 407.300781 71.640625 L 403.664063 72.59375 L 400.0625 73.667969 L 396.5 74.867188 L 392.976563 76.1875 L 389.503906 77.625 L 386.082031 79.179688 L 382.714844 80.851563 L 384.460938 84.226563 L 386.207031 87.597656 L 387.957031 90.96875 L 394.941406 104.453125 L 396.6875 107.828125 L 398.4375 111.199219 L 408.914063 131.425781 L 410.664063 134.800781 L 419.394531 151.65625 L 421.144531 155.027344 L 422.890625 158.402344 L 429.875 171.886719 L 431.625 175.257813 Z M 433.371094 178.628906 "/>
</g>
</g>
</svg>
