<?xml version="1.0" encoding="UTF-8"?>
<svg xmlns="http://www.w3.org/2000/svg" xmlns:xlink="http://www.w3.org/1999/xlink" width="720pt" height="432pt" viewBox="0 0 720 432" version="1.1">
<g id="surface1">
<rect x="0" y="0" width="720" height="432" style="fill:rgb(100%,100%,100%);fill-opacity:1;stroke:none;"/>
<path style=" stroke:none;fill-rule:nonzero;fill:rgb(0%,0%,1.568627%);fill-opacity:1;" d="M 15.078125 405.101563 L 58.476563 405.101563 L 58.476563 181.800781 L 15.078125 181.800781 Z M 15.078125 405.101563 "/>
<path style=" stroke:none;fill-rule:nonzero;fill:rgb(11.764706%,4.705882%,26.666667%);fill-opacity:1;" d="M 63.296875 405.101563 L 106.695313 405.101563 L 106.695313 176.945313 L 63.296875 176.945313 Z M 63.296875 405.101563 "/>
<path style=" stroke:none;fill-rule:nonzero;fill:rgb(31.372549%,5.490196%,42.352941%);fill-opacity:1;" d="M 111.515625 405.101563 L 154.914063 405.101563 L 154.914063 153.484375 L 111.515625 153.484375 Z M 111.515625 405.101563 "/>
<path style=" stroke:none;fill-rule:nonzero;fill:rgb(49.803922%,11.764706%,42.352941%);fill-opacity:1;" d="M 159.734375 405.101563 L 203.132813 405.101563 L 203.132813 24.035156 L 159.734375 24.035156 Z M 159.734375 405.101563 "/>
<path style=" stroke:none;fill-rule:nonzero;fill:rgb(68.235294%,18.823529%,36.078431%);fill-opacity:1;" d="M 207.953125 405.101563 L 251.351563 405.101563 L 251.351563 98.46875 L 207.953125 98.46875 Z M 207.953125 405.101563 "/>
<path style=" stroke:none;fill-rule:nonzero;fill:rgb(84.705882%,29.803922%,24.313725%);fill-opacity:1;" d="M 256.171875 405.101563 L 299.570313 405.101563 L 299.570313 208.5 L 256.171875 208.5 Z M 256.171875 405.101563 "/>
<path style=" stroke:none;fill-rule:nonzero;fill:rgb(95.294118%,46.666667%,10.196078%);fill-opacity:1;" d="M 304.390625 405.101563 L 347.789063 405.101563 L 347.789063 151.058594 L 304.390625 151.058594 Z M 304.390625 405.101563 "/>
<path style=" stroke:none;fill-rule:nonzero;fill:rgb(95.294118%,46.666667%,10.196078%);fill-opacity:1;" d="M 541.433594 214.566406 L 545.082031 211.46875 L 548.734375 208.367188 L 552.382813 205.269531 L 556.035156 202.171875 L 559.683594 199.070313 L 563.332031 195.972656 L 566.984375 192.871094 L 570.632813 189.773438 L 574.285156 186.671875 L 577.933594 183.574219 L 581.585938 180.476563 L 585.234375 177.375 L 588.886719 174.277344 L 592.535156 171.175781 L 596.1875 168.078125 L 599.835938 164.976563 L 603.488281 161.878906 L 607.136719 158.777344 L 610.789063 155.679688 L 614.4375 152.582031 L 618.089844 149.480469 L 621.738281 146.382813 L 625.386719 143.28125 L 629.039063 140.183594 L 632.6875 137.082031 L 636.339844 133.984375 L 639.988281 130.882813 L 643.640625 127.785156 L 647.289063 124.6875 L 644.109375 121.070313 L 640.808594 117.566406 L 637.386719 114.179688 L 633.847656 110.914063 L 630.199219 107.773438 L 626.441406 104.761719 L 622.585938 101.878906 L 618.628906 99.132813 L 614.582031 96.527344 L 610.445313 94.0625 L 606.226563 91.742188 L 601.929688 89.570313 L 597.558594 87.546875 L 593.125 85.675781 L 588.625 83.964844 L 584.066406 82.40625 L 579.460938 81.007813 L 574.808594 79.769531 L 570.113281 78.691406 L 565.386719 77.78125 L 560.628906 77.03125 L 555.851563 76.449219 L 551.054688 76.03125 L 546.246094 75.78125 L 541.433594 75.699219 Z M 541.433594 214.566406 "/>
<path style=" stroke:none;fill-rule:nonzero;fill:rgb(84.705882%,29.803922%,24.313725%);fill-opacity:1;" d="M 541.433594 214.566406 L 546.21875 214.410156 L 551.003906 214.25 L 555.789063 214.09375 L 560.574219 213.933594 L 565.363281 213.773438 L 570.148438 213.617188 L 574.933594 213.457031 L 579.71875 213.300781 L 584.503906 213.140625 L 589.292969 212.980469 L 594.078125 212.824219 L 598.863281 212.664063 L 603.648438 212.507813 L 608.4375 212.347656 L 613.222656 212.1875 L 618.007813 212.03125 L 622.792969 211.871094 L 627.578125 211.714844 L 632.367188 211.554688 L 637.152344 211.394531 L 641.9375 211.238281 L 646.722656 211.078125 L 651.507813 210.921875 L 656.296875 210.761719 L 661.082031 210.601563 L 665.867188 210.445313 L 675.4375 210.125 L 680.226563 209.96875 L 679.976563 205.070313 L 679.554688 200.1875 L 678.960938 195.320313 L 678.195313 190.476563 L 677.261719 185.664063 L 676.15625 180.886719 L 674.882813 176.152344 L 673.445313 171.46875 L 671.839844 166.832031 L 670.074219 162.261719 L 668.148438 157.75 L 666.0625 153.3125 L 663.824219 148.953125 L 661.429688 144.671875 L 658.886719 140.480469 L 656.199219 136.382813 L 653.367188 132.378906 L 650.398438 128.480469 L 647.289063 124.6875 L 643.640625 127.785156 L 639.988281 130.882813 L 636.339844 133.984375 L 632.6875 137.082031 L 629.039063 140.183594 L 625.386719 143.28125 L 621.738281 146.382813 L 618.089844 149.480469 L 614.4375 152.582031 L 610.789063 155.679688 L 607.136719 158.777344 L 603.488281 161.878906 L 599.835938 164.976563 L 596.1875 168.078125 L 592.535156 171.175781 L 588.886719 174.277344 L 585.234375 177.375 L 581.585938 180.476563 L 577.933594 183.574219 L 574.285156 186.671875 L 570.632813 189.773438 L 566.984375 192.871094 L 563.332031 195.972656 L 559.683594 199.070313 L 556.035156 202.171875 L 552.382813 205.269531 L 548.734375 208.367188 L 545.082031 211.46875 Z M 541.433594 214.566406 "/>
<path style=" stroke:none;fill-rule:nonzero;fill:rgb(68.235294%,18.823529%,36.078431%);fill-opacity:1;" d="M 541.433594 214.566406 L 543.964844 218.632813 L 551.570313 230.820313 L 554.101563 234.882813 L 556.636719 238.945313 L 559.171875 243.011719 L 561.703125 247.074219 L 569.308594 259.261719 L 571.839844 263.324219 L 574.375 267.386719 L 576.910156 271.453125 L 579.441406 275.515625 L 587.046875 287.703125 L 589.578125 291.765625 L 592.113281 295.832031 L 597.183594 303.957031 L 599.714844 308.019531 L 604.785156 316.144531 L 607.316406 320.210938 L 614.921875 332.398438 L 618.984375 329.765625 L 622.953125 326.992188 L 626.824219 324.078125 L 630.589844 321.035156 L 634.25 317.863281 L 637.792969 314.5625 L 641.222656 311.140625 L 644.53125 307.601563 L 647.710938 303.953125 L 650.761719 300.191406 L 653.683594 296.328125 L 656.464844 292.363281 L 659.105469 288.304688 L 661.605469 284.15625 L 663.960938 279.925781 L 666.164063 275.613281 L 668.21875 271.226563 L 670.117188 266.769531 L 671.859375 262.253906 L 673.441406 257.675781 L 674.863281 253.046875 L 676.125 248.371094 L 677.222656 243.652344 L 678.152344 238.898438 L 678.917969 234.117188 L 679.515625 229.3125 L 679.945313 224.488281 L 680.207031 219.652344 L 680.300781 214.8125 L 680.226563 209.96875 L 675.4375 210.125 L 665.867188 210.445313 L 661.082031 210.601563 L 656.296875 210.761719 L 651.507813 210.921875 L 646.722656 211.078125 L 641.9375 211.238281 L 637.152344 211.394531 L 632.367188 211.554688 L 627.578125 211.714844 L 622.792969 211.871094 L 618.007813 212.03125 L 613.222656 212.1875 L 608.4375 212.347656 L 603.648438 212.507813 L 598.863281 212.664063 L 594.078125 212.824219 L 589.292969 212.980469 L 584.503906 213.140625 L 579.71875 213.300781 L 574.933594 213.457031 L 570.148438 213.617188 L 565.363281 213.773438 L 560.574219 213.933594 L 555.789063 214.09375 L 551.003906 214.25 L 546.21875 214.410156 Z M 541.433594 214.566406 "/>
<path style=" stroke:none;fill-rule:nonzero;fill:rgb(49.803922%,11.764706%,42.352941%);fill-opacity:1;" d="M 541.433594 214.566406 L 538.195313 218.09375 L 534.957031 221.625 L 512.289063 246.316406 L 509.050781 249.847656 L 483.144531 278.066406 L 479.90625 281.597656 L 476.671875 285.125 L 454.003906 309.816406 L 450.765625 313.347656 L 447.527344 316.875 L 451.082031 320.027344 L 454.742188 323.054688 L 458.503906 325.957031 L 462.363281 328.730469 L 466.316406 331.367188 L 470.355469 333.871094 L 474.480469 336.230469 L 478.679688 338.449219 L 482.953125 340.523438 L 487.296875 342.453125 L 491.703125 344.226563 L 496.167969 345.855469 L 500.6875 347.324219 L 505.253906 348.640625 L 509.859375 349.800781 L 514.503906 350.800781 L 519.183594 351.644531 L 523.882813 352.324219 L 528.609375 352.84375 L 533.34375 353.203125 L 538.09375 353.398438 L 542.84375 353.429688 L 547.59375 353.300781 L 552.335938 353.007813 L 557.066406 352.554688 L 561.777344 351.9375 L 566.464844 351.164063 L 571.125 350.226563 L 575.746094 349.128906 L 580.332031 347.878906 L 584.867188 346.46875 L 589.355469 344.90625 L 593.785156 343.191406 L 598.15625 341.324219 L 602.460938 339.308594 L 606.691406 337.148438 L 610.847656 334.84375 L 614.921875 332.398438 L 607.316406 320.210938 L 604.785156 316.144531 L 599.714844 308.019531 L 597.183594 303.957031 L 592.113281 295.832031 L 589.578125 291.765625 L 587.046875 287.703125 L 579.441406 275.515625 L 576.910156 271.453125 L 574.375 267.386719 L 571.839844 263.324219 L 569.308594 259.261719 L 561.703125 247.074219 L 559.171875 243.011719 L 556.636719 238.945313 L 554.101563 234.882813 L 551.570313 230.820313 L 543.964844 218.632813 Z M 541.433594 214.566406 "/>
<path style=" stroke:none;fill-rule:nonzero;fill:rgb(31.372549%,5.490196%,42.352941%);fill-opacity:1;" d="M 541.433594 214.566406 L 536.644531 214.421875 L 527.074219 214.132813 L 522.285156 213.984375 L 512.714844 213.695313 L 507.925781 213.550781 L 503.140625 213.40625 L 498.355469 213.257813 L 493.566406 213.113281 L 479.210938 212.679688 L 474.421875 212.53125 L 464.851563 212.242188 L 460.0625 212.097656 L 455.277344 211.949219 L 450.492188 211.804688 L 445.703125 211.660156 L 436.132813 211.371094 L 431.34375 211.222656 L 421.773438 210.933594 L 416.984375 210.789063 L 412.199219 210.640625 L 407.414063 210.496094 L 402.625 210.351563 L 402.5625 215.121094 L 402.664063 219.886719 L 402.929688 224.648438 L 403.355469 229.398438 L 403.949219 234.132813 L 404.699219 238.839844 L 405.613281 243.519531 L 406.6875 248.167969 L 407.921875 252.773438 L 409.3125 257.335938 L 410.859375 261.847656 L 412.558594 266.300781 L 414.410156 270.695313 L 416.414063 275.023438 L 418.5625 279.28125 L 420.855469 283.460938 L 423.292969 287.5625 L 425.871094 291.574219 L 428.582031 295.496094 L 431.425781 299.324219 L 434.402344 303.050781 L 437.503906 306.671875 L 440.726563 310.1875 L 444.070313 313.589844 L 447.527344 316.875 L 450.765625 313.347656 L 454.003906 309.816406 L 476.671875 285.125 L 479.90625 281.597656 L 483.144531 278.066406 L 509.050781 249.847656 L 512.289063 246.316406 L 534.957031 221.625 L 538.195313 218.09375 Z M 541.433594 214.566406 "/>
<path style=" stroke:none;fill-rule:nonzero;fill:rgb(11.764706%,4.705882%,26.666667%);fill-opacity:1;" d="M 541.433594 214.566406 L 538.125 211.101563 L 534.820313 207.640625 L 528.210938 200.710938 L 524.902344 197.246094 L 514.988281 186.851563 L 511.679688 183.386719 L 501.765625 172.992188 L 498.457031 169.527344 L 491.847656 162.597656 L 488.542969 159.136719 L 485.234375 155.671875 L 475.320313 145.277344 L 472.011719 141.8125 L 462.097656 131.417969 L 458.789063 127.953125 L 448.875 117.558594 L 445.566406 114.09375 L 442.222656 117.398438 L 438.992188 120.808594 L 435.875 124.332031 L 432.882813 127.953125 L 430.015625 131.675781 L 427.273438 135.496094 L 424.664063 139.402344 L 422.1875 143.398438 L 419.847656 147.476563 L 417.644531 151.628906 L 415.585938 155.851563 L 413.671875 160.144531 L 411.902344 164.5 L 410.28125 168.914063 L 408.8125 173.375 L 407.496094 177.886719 L 406.328125 182.441406 L 405.320313 187.03125 L 404.464844 191.65625 L 403.769531 196.300781 L 403.230469 200.972656 L 402.847656 205.65625 L 402.625 210.351563 L 407.414063 210.496094 L 412.199219 210.640625 L 416.984375 210.789063 L 421.773438 210.933594 L 431.34375 211.222656 L 436.132813 211.371094 L 445.703125 211.660156 L 450.492188 211.804688 L 455.277344 211.949219 L 460.0625 212.097656 L 464.851563 212.242188 L 474.421875 212.53125 L 479.210938 212.679688 L 493.566406 213.113281 L 498.355469 213.257813 L 503.140625 213.40625 L 507.925781 213.550781 L 512.714844 213.695313 L 522.285156 213.984375 L 527.074219 214.132813 L 536.644531 214.421875 Z M 541.433594 214.566406 "/>
<path style=" stroke:none;fill-rule:nonzero;fill:rgb(0%,0%,1.568627%);fill-opacity:1;" d="M 541.433594 214.566406 L 541.433594 75.699219 L 536.625 75.78125 L 531.820313 76.03125 L 527.03125 76.449219 L 522.253906 77.027344 L 517.503906 77.777344 L 512.78125 78.6875 L 508.09375 79.757813 L 503.445313 80.996094 L 498.84375 82.390625 L 494.292969 83.945313 L 489.796875 85.65625 L 485.367188 87.519531 L 481 89.539063 L 476.707031 91.707031 L 472.492188 94.019531 L 468.359375 96.480469 L 464.3125 99.082031 L 460.359375 101.820313 L 456.503906 104.695313 L 452.75 107.703125 L 449.105469 110.835938 L 445.566406 114.09375 L 448.875 117.558594 L 458.789063 127.953125 L 462.097656 131.417969 L 472.011719 141.8125 L 475.320313 145.277344 L 485.234375 155.671875 L 488.542969 159.136719 L 491.847656 162.597656 L 498.457031 169.527344 L 501.765625 172.992188 L 511.679688 183.386719 L 514.988281 186.851563 L 524.902344 197.246094 L 528.210938 200.710938 L 534.820313 207.640625 L 538.125 211.101563 Z M 541.433594 214.566406 "/>
</g>
</svg>
