<?xml version="1.0" encoding="UTF-8"?>
<svg xmlns="http://www.w3.org/2000/svg" xmlns:xlink="http://www.w3.org/1999/xlink" width="720pt" height="432pt" viewBox="0 0 720 432" version="1.1">
<g id="surface6">
<rect x="0" y="0" width="720" height="432" style="fill:rgb(100%,100%,100%);fill-opacity:1;stroke:none;"/>
<path style=" stroke:none;fill-rule:nonzero;fill:rgb(0%,0%,1.568627%);fill-opacity:1;" d="M 11.273438 405.101563 L 31.828125 405.101563 L 31.828125 181.800781 L 11.273438 181.800781 Z M 11.273438 405.101563 "/>
<path style=" stroke:none;fill-rule:nonzero;fill:rgb(5.098039%,3.137255%,16.470588%);fill-opacity:1;" d="M 34.113281 405.101563 L 54.667969 405.101563 L 54.667969 295.878906 L 34.113281 295.878906 Z M 34.113281 405.101563 "/>
<path style=" stroke:none;fill-rule:nonzero;fill:rgb(15.686275%,4.313725%,32.941176%);fill-opacity:1;" d="M 56.953125 405.101563 L 77.507813 405.101563 L 77.507813 238.4375 L 56.953125 238.4375 Z M 56.953125 405.101563 "/>
<path style=" stroke:none;fill-rule:nonzero;fill:rgb(28.235294%,4.313725%,41.568627%);fill-opacity:1;" d="M 79.792969 405.101563 L 100.347656 405.101563 L 100.347656 176.945313 L 79.792969 176.945313 Z M 79.792969 405.101563 "/>
<path style=" stroke:none;fill-rule:nonzero;fill:rgb(39.607843%,8.235294%,43.137255%);fill-opacity:1;" d="M 102.632813 405.101563 L 123.1875 405.101563 L 123.1875 153.484375 L 102.632813 153.484375 Z M 102.632813 405.101563 "/>
<path style=" stroke:none;fill-rule:nonzero;fill:rgb(50.980392%,12.54902%,42.352941%);fill-opacity:1;" d="M 125.472656 405.101563 L 146.027344 405.101563 L 146.027344 227.917969 L 125.472656 227.917969 Z M 125.472656 405.101563 "/>
<path style=" stroke:none;fill-rule:nonzero;fill:rgb(62.352941%,16.470588%,38.823529%);fill-opacity:1;" d="M 148.3125 405.101563 L 168.867188 405.101563 L 168.867188 24.035156 L 148.3125 24.035156 Z M 148.3125 405.101563 "/>
<path style=" stroke:none;fill-rule:nonzero;fill:rgb(73.333333%,21.568627%,32.941176%);fill-opacity:1;" d="M 171.152344 405.101563 L 191.707031 405.101563 L 191.707031 305.585938 L 171.152344 305.585938 Z M 171.152344 405.101563 "/>
<path style=" stroke:none;fill-rule:nonzero;fill:rgb(83.137255%,28.235294%,25.882353%);fill-opacity:1;" d="M 193.996094 405.101563 L 214.550781 405.101563 L 214.550781 292.640625 L 193.996094 292.640625 Z M 193.996094 405.101563 "/>
<path style=" stroke:none;fill-rule:nonzero;fill:rgb(90.980392%,37.647059%,17.647059%);fill-opacity:1;" d="M 216.835938 405.101563 L 237.390625 405.101563 L 237.390625 247.335938 L 216.835938 247.335938 Z M 216.835938 405.101563 "/>
<path style=" stroke:none;fill-rule:nonzero;fill:rgb(96.078431%,49.019608%,8.235294%);fill-opacity:1;" d="M 239.675781 405.101563 L 260.230469 405.101563 L 260.230469 265.132813 L 239.675781 265.132813 Z M 239.675781 405.101563 "/>
<path style=" stroke:none;fill-rule:nonzero;fill:rgb(98.431373%,61.960784%,2.745098%);fill-opacity:1;" d="M 262.515625 405.101563 L 283.070313 405.101563 L 283.070313 274.035156 L 262.515625 274.035156 Z M 262.515625 405.101563 "/>
<path style=" stroke:none;fill-rule:nonzero;fill:rgb(98.039216%,75.686275%,15.294118%);fill-opacity:1;" d="M 285.355469 405.101563 L 305.910156 405.101563 L 305.910156 98.46875 L 285.355469 98.46875 Z M 285.355469 405.101563 "/>
<path style=" stroke:none;fill-rule:nonzero;fill:rgb(95.294118%,89.803922%,36.078431%);fill-opacity:1;" d="M 308.195313 405.101563 L 328.75 405.101563 L 328.75 208.5 L 308.195313 208.5 Z M 308.195313 405.101563 "/>
<path style=" stroke:none;fill-rule:nonzero;fill:rgb(98.823529%,100%,64.313725%);fill-opacity:1;" d="M 331.035156 405.101563 L 351.589844 405.101563 L 351.589844 151.058594 L 331.035156 151.058594 Z M 331.035156 405.101563 "/>
<path style=" stroke:none;fill-rule:nonzero;fill:rgb(98.823529%,100%,64.313725%);fill-opacity:1;" d="M 541.433594 214.566406 L 548.863281 202.273438 L 551.34375 198.175781 L 558.773438 185.882813 L 561.253906 181.785156 L 566.207031 173.589844 L 568.6875 169.492188 L 576.117188 157.199219 L 578.597656 153.101563 L 586.027344 140.808594 L 588.507813 136.710938 L 590.984375 132.613281 L 593.460938 128.511719 L 595.9375 124.414063 L 598.417969 120.316406 L 605.847656 108.023438 L 608.328125 103.925781 L 613.28125 95.730469 L 609.203125 93.359375 L 605.042969 91.125 L 600.8125 89.035156 L 596.511719 87.089844 L 592.148438 85.292969 L 587.726563 83.640625 L 583.25 82.144531 L 578.726563 80.800781 L 574.160156 79.609375 L 569.554688 78.574219 L 564.917969 77.699219 L 560.253906 76.980469 L 555.566406 76.417969 L 550.863281 76.019531 L 546.152344 75.777344 L 541.433594 75.699219 Z M 541.433594 214.566406 "/>
<path style=" stroke:none;fill-rule:nonzero;fill:rgb(95.294118%,89.803922%,36.078431%);fill-opacity:1;" d="M 541.433594 214.566406 L 545.367188 211.839844 L 549.304688 209.113281 L 553.238281 206.382813 L 557.175781 203.65625 L 561.109375 200.925781 L 565.046875 198.199219 L 568.980469 195.472656 L 572.917969 192.742188 L 576.851563 190.015625 L 580.785156 187.285156 L 584.722656 184.558594 L 588.65625 181.832031 L 592.59375 179.101563 L 596.527344 176.375 L 600.464844 173.644531 L 604.398438 170.917969 L 608.335938 168.191406 L 612.269531 165.460938 L 616.207031 162.734375 L 620.140625 160.003906 L 624.078125 157.277344 L 628.011719 154.550781 L 631.949219 151.820313 L 635.882813 149.09375 L 639.820313 146.367188 L 643.753906 143.636719 L 647.691406 140.910156 L 651.625 138.179688 L 655.5625 135.453125 L 652.71875 131.5 L 649.734375 127.648438 L 646.621094 123.90625 L 643.378906 120.273438 L 640.007813 116.757813 L 636.519531 113.359375 L 632.910156 110.085938 L 629.191406 106.945313 L 625.363281 103.933594 L 621.433594 101.058594 L 617.40625 98.324219 L 613.28125 95.730469 L 608.328125 103.925781 L 605.847656 108.023438 L 598.417969 120.316406 L 595.9375 124.414063 L 593.460938 128.511719 L 590.984375 132.613281 L 588.507813 136.710938 L 586.027344 140.808594 L 578.597656 153.101563 L 576.117188 157.199219 L 568.6875 169.492188 L 566.207031 173.589844 L 561.253906 181.785156 L 558.773438 185.882813 L 551.34375 198.175781 L 548.863281 202.273438 Z M 541.433594 214.566406 "/>
<path style=" stroke:none;fill-rule:nonzero;fill:rgb(98.039216%,75.686275%,15.294118%);fill-opacity:1;" d="M 541.433594 214.566406 L 546.214844 214.808594 L 550.996094 215.046875 L 555.78125 215.289063 L 560.5625 215.53125 L 565.34375 215.769531 L 570.128906 216.011719 L 574.910156 216.25 L 579.691406 216.492188 L 584.476563 216.730469 L 589.257813 216.972656 L 594.039063 217.210938 L 598.824219 217.453125 L 603.605469 217.691406 L 608.386719 217.933594 L 613.171875 218.175781 L 617.953125 218.414063 L 622.734375 218.65625 L 627.519531 218.894531 L 632.300781 219.136719 L 637.082031 219.375 L 641.867188 219.617188 L 646.648438 219.855469 L 651.429688 220.097656 L 656.214844 220.335938 L 660.996094 220.578125 L 665.777344 220.816406 L 670.5625 221.058594 L 675.34375 221.300781 L 680.125 221.539063 L 680.285156 216.746094 L 680.277344 211.949219 L 680.101563 207.152344 L 679.765625 202.367188 L 679.261719 197.597656 L 678.59375 192.847656 L 677.761719 188.125 L 676.765625 183.429688 L 675.609375 178.773438 L 674.292969 174.160156 L 672.816406 169.597656 L 671.1875 165.085938 L 669.398438 160.632813 L 667.460938 156.246094 L 665.371094 151.929688 L 663.132813 147.683594 L 660.75 143.519531 L 658.226563 139.441406 L 655.5625 135.453125 L 651.625 138.179688 L 647.691406 140.910156 L 643.753906 143.636719 L 639.820313 146.367188 L 635.882813 149.09375 L 631.949219 151.820313 L 628.011719 154.550781 L 624.078125 157.277344 L 620.140625 160.003906 L 616.207031 162.734375 L 612.269531 165.460938 L 608.335938 168.191406 L 604.398438 170.917969 L 600.464844 173.644531 L 596.527344 176.375 L 592.59375 179.101563 L 588.65625 181.832031 L 584.722656 184.558594 L 580.785156 187.285156 L 576.851563 190.015625 L 572.917969 192.742188 L 568.980469 195.472656 L 565.046875 198.199219 L 561.109375 200.925781 L 557.175781 203.65625 L 553.238281 206.382813 L 549.304688 209.113281 L 545.367188 211.839844 Z M 541.433594 214.566406 "/>
<path style=" stroke:none;fill-rule:nonzero;fill:rgb(98.431373%,61.960784%,2.745098%);fill-opacity:1;" d="M 541.433594 214.566406 L 545.960938 216.125 L 550.488281 217.679688 L 555.019531 219.234375 L 559.546875 220.789063 L 564.078125 222.34375 L 568.605469 223.898438 L 573.136719 225.453125 L 577.664063 227.011719 L 582.191406 228.566406 L 586.722656 230.121094 L 591.25 231.675781 L 595.78125 233.230469 L 600.308594 234.785156 L 604.839844 236.339844 L 609.367188 237.898438 L 613.894531 239.453125 L 618.425781 241.007813 L 622.953125 242.5625 L 627.484375 244.117188 L 636.539063 247.226563 L 641.070313 248.785156 L 645.597656 250.339844 L 650.128906 251.894531 L 654.65625 253.449219 L 659.1875 255.003906 L 663.714844 256.558594 L 668.242188 258.117188 L 672.773438 259.671875 L 674.273438 255.039063 L 675.609375 250.355469 L 676.785156 245.628906 L 677.789063 240.863281 L 678.628906 236.066406 L 679.296875 231.242188 L 679.796875 226.398438 L 680.125 221.539063 L 675.34375 221.300781 L 670.5625 221.058594 L 665.777344 220.816406 L 660.996094 220.578125 L 656.214844 220.335938 L 651.429688 220.097656 L 646.648438 219.855469 L 641.867188 219.617188 L 637.082031 219.375 L 632.300781 219.136719 L 627.519531 218.894531 L 622.734375 218.65625 L 617.953125 218.414063 L 613.171875 218.175781 L 608.386719 217.933594 L 603.605469 217.691406 L 598.824219 217.453125 L 594.039063 217.210938 L 589.257813 216.972656 L 584.476563 216.730469 L 579.691406 216.492188 L 574.910156 216.25 L 570.128906 216.011719 L 565.34375 215.769531 L 560.5625 215.53125 L 555.78125 215.289063 L 550.996094 215.046875 L 546.214844 214.808594 Z M 541.433594 214.566406 "/>
<path style=" stroke:none;fill-rule:nonzero;fill:rgb(96.078431%,49.019608%,8.235294%);fill-opacity:1;" d="M 541.433594 214.566406 L 549.167969 220.214844 L 553.035156 223.035156 L 556.90625 225.859375 L 560.773438 228.679688 L 568.507813 234.328125 L 572.378906 237.148438 L 580.113281 242.796875 L 583.980469 245.617188 L 587.851563 248.441406 L 591.71875 251.261719 L 599.453125 256.910156 L 603.324219 259.730469 L 607.191406 262.554688 L 611.058594 265.375 L 614.929688 268.199219 L 618.796875 271.023438 L 622.664063 273.84375 L 626.53125 276.667969 L 630.402344 279.488281 L 638.136719 285.136719 L 642.003906 287.957031 L 645.875 290.78125 L 649.742188 293.605469 L 653.609375 296.425781 L 656.597656 292.167969 L 659.421875 287.800781 L 662.082031 283.332031 L 664.570313 278.765625 L 666.886719 274.113281 L 669.03125 269.371094 L 670.992188 264.558594 L 672.773438 259.671875 L 668.242188 258.117188 L 663.714844 256.558594 L 659.1875 255.003906 L 654.65625 253.449219 L 650.128906 251.894531 L 645.597656 250.339844 L 641.070313 248.785156 L 636.539063 247.226563 L 627.484375 244.117188 L 622.953125 242.5625 L 618.425781 241.007813 L 613.894531 239.453125 L 609.367188 237.898438 L 604.839844 236.339844 L 600.308594 234.785156 L 595.78125 233.230469 L 591.25 231.675781 L 586.722656 230.121094 L 582.191406 228.566406 L 577.664063 227.011719 L 573.136719 225.453125 L 568.605469 223.898438 L 564.078125 222.34375 L 559.546875 220.789063 L 555.019531 219.234375 L 550.488281 217.679688 L 545.960938 216.125 Z M 541.433594 214.566406 "/>
<path style=" stroke:none;fill-rule:nonzero;fill:rgb(90.980392%,37.647059%,17.647059%);fill-opacity:1;" d="M 541.433594 214.566406 L 544.148438 218.511719 L 546.859375 222.457031 L 563.148438 246.128906 L 565.863281 250.070313 L 571.292969 257.960938 L 574.003906 261.90625 L 590.292969 285.578125 L 593.007813 289.519531 L 598.4375 297.410156 L 601.148438 301.355469 L 617.4375 325.027344 L 620.152344 328.96875 L 624.386719 325.9375 L 628.507813 322.746094 L 632.503906 319.402344 L 636.371094 315.914063 L 640.109375 312.28125 L 643.703125 308.507813 L 647.15625 304.605469 L 650.460938 300.578125 L 653.609375 296.425781 L 649.742188 293.605469 L 645.875 290.78125 L 642.003906 287.957031 L 638.136719 285.136719 L 630.402344 279.488281 L 626.53125 276.667969 L 622.664063 273.84375 L 618.796875 271.023438 L 614.929688 268.199219 L 611.058594 265.375 L 607.191406 262.554688 L 603.324219 259.730469 L 599.453125 256.910156 L 591.71875 251.261719 L 587.851563 248.441406 L 583.980469 245.617188 L 580.113281 242.796875 L 572.378906 237.148438 L 568.507813 234.328125 L 560.773438 228.679688 L 556.90625 225.859375 L 553.035156 223.035156 L 549.167969 220.214844 Z M 541.433594 214.566406 "/>
<path style=" stroke:none;fill-rule:nonzero;fill:rgb(83.137255%,28.235294%,25.882353%);fill-opacity:1;" d="M 541.433594 214.566406 L 543.128906 219.046875 L 544.824219 223.523438 L 546.519531 228.003906 L 548.214844 232.480469 L 549.910156 236.960938 L 551.605469 241.4375 L 553.300781 245.917969 L 556.691406 254.871094 L 558.390625 259.351563 L 560.085938 263.828125 L 561.78125 268.308594 L 563.476563 272.785156 L 565.171875 277.265625 L 566.867188 281.742188 L 568.5625 286.222656 L 571.953125 295.175781 L 573.648438 299.65625 L 575.34375 304.132813 L 577.042969 308.613281 L 578.738281 313.089844 L 580.433594 317.570313 L 582.128906 322.046875 L 583.824219 326.527344 L 585.519531 331.003906 L 587.214844 335.484375 L 590.605469 344.4375 L 595.042969 342.671875 L 599.414063 340.753906 L 603.71875 338.683594 L 607.949219 336.46875 L 612.101563 334.109375 L 616.171875 331.609375 L 620.152344 328.96875 L 617.4375 325.027344 L 601.148438 301.355469 L 598.4375 297.410156 L 593.007813 289.519531 L 590.292969 285.578125 L 574.003906 261.90625 L 571.292969 257.960938 L 565.863281 250.070313 L 563.148438 246.128906 L 546.859375 222.457031 L 544.148438 218.511719 Z M 541.433594 214.566406 "/>
<path style=" stroke:none;fill-rule:nonzero;fill:rgb(73.333333%,21.568627%,32.941176%);fill-opacity:1;" d="M 541.433594 214.566406 L 542.144531 219.304688 L 542.851563 224.039063 L 543.5625 228.773438 L 544.273438 233.511719 L 545.695313 242.980469 L 546.40625 247.71875 L 548.539063 261.921875 L 549.25 266.660156 L 549.960938 271.394531 L 550.667969 276.128906 L 551.378906 280.867188 L 552.800781 290.335938 L 553.511719 295.074219 L 554.933594 304.542969 L 555.644531 309.28125 L 557.777344 323.484375 L 558.484375 328.222656 L 559.90625 337.691406 L 560.617188 342.429688 L 562.039063 351.898438 L 566.902344 351.082031 L 571.730469 350.089844 L 576.523438 348.929688 L 581.269531 347.601563 L 585.964844 346.101563 L 590.605469 344.4375 L 587.214844 335.484375 L 585.519531 331.003906 L 583.824219 326.527344 L 582.128906 322.046875 L 580.433594 317.570313 L 578.738281 313.089844 L 577.042969 308.613281 L 575.34375 304.132813 L 573.648438 299.65625 L 571.953125 295.175781 L 568.5625 286.222656 L 566.867188 281.742188 L 565.171875 277.265625 L 563.476563 272.785156 L 561.78125 268.308594 L 560.085938 263.828125 L 558.390625 259.351563 L 556.691406 254.871094 L 553.300781 245.917969 L 551.605469 241.4375 L 549.910156 236.960938 L 548.214844 232.480469 L 546.519531 228.003906 L 544.824219 223.523438 L 543.128906 219.046875 Z M 541.433594 214.566406 "/>
<path style=" stroke:none;fill-rule:nonzero;fill:rgb(62.352941%,16.470588%,38.823529%);fill-opacity:1;" d="M 541.433594 214.566406 L 538.46875 218.332031 L 532.546875 225.855469 L 529.585938 229.621094 L 523.664063 237.144531 L 520.703125 240.910156 L 517.738281 244.671875 L 514.777344 248.433594 L 511.816406 252.199219 L 505.894531 259.722656 L 502.933594 263.488281 L 499.972656 267.25 L 497.007813 271.011719 L 494.046875 274.777344 L 488.125 282.300781 L 485.164063 286.066406 L 479.242188 293.589844 L 476.277344 297.355469 L 470.355469 304.878906 L 467.394531 308.644531 L 461.472656 316.167969 L 458.511719 319.933594 L 455.546875 323.695313 L 459.304688 326.550781 L 463.160156 329.277344 L 467.101563 331.871094 L 471.132813 334.328125 L 475.242188 336.648438 L 479.429688 338.828125 L 483.6875 340.863281 L 488.011719 342.75 L 492.398438 344.492188 L 496.839844 346.082031 L 501.335938 347.523438 L 505.878906 348.808594 L 510.460938 349.9375 L 515.078125 350.914063 L 519.726563 351.730469 L 524.398438 352.386719 L 529.09375 352.886719 L 533.800781 353.226563 L 538.515625 353.40625 L 543.234375 353.425781 L 547.953125 353.285156 L 552.664063 352.980469 L 557.359375 352.519531 L 562.039063 351.898438 L 560.617188 342.429688 L 559.90625 337.691406 L 558.484375 328.222656 L 557.777344 323.484375 L 555.644531 309.28125 L 554.933594 304.542969 L 553.511719 295.074219 L 552.800781 290.335938 L 551.378906 280.867188 L 550.667969 276.128906 L 549.960938 271.394531 L 549.25 266.660156 L 548.539063 261.921875 L 546.40625 247.71875 L 545.695313 242.980469 L 544.273438 233.511719 L 543.5625 228.773438 L 542.851563 224.039063 L 542.144531 219.304688 Z M 541.433594 214.566406 "/>
<path style=" stroke:none;fill-rule:nonzero;fill:rgb(50.980392%,12.54902%,42.352941%);fill-opacity:1;" d="M 541.433594 214.566406 L 537.289063 216.96875 L 516.566406 228.960938 L 512.421875 231.363281 L 491.699219 243.355469 L 487.554688 245.757813 L 483.414063 248.15625 L 466.835938 257.75 L 462.691406 260.152344 L 441.96875 272.144531 L 437.824219 274.546875 L 425.390625 281.742188 L 421.25 284.140625 L 423.71875 288.242188 L 426.328125 292.257813 L 429.074219 296.179688 L 431.953125 300.003906 L 434.964844 303.726563 L 438.101563 307.34375 L 441.359375 310.851563 L 444.738281 314.242188 L 448.234375 317.519531 L 451.835938 320.667969 L 455.546875 323.695313 L 458.511719 319.933594 L 461.472656 316.167969 L 467.394531 308.644531 L 470.355469 304.878906 L 476.277344 297.355469 L 479.242188 293.589844 L 485.164063 286.066406 L 488.125 282.300781 L 494.046875 274.777344 L 497.007813 271.011719 L 499.972656 267.25 L 502.933594 263.488281 L 505.894531 259.722656 L 511.816406 252.199219 L 514.777344 248.433594 L 517.738281 244.671875 L 520.703125 240.910156 L 523.664063 237.144531 L 529.585938 229.621094 L 532.546875 225.855469 L 538.46875 218.332031 Z M 541.433594 214.566406 "/>
<path style=" stroke:none;fill-rule:nonzero;fill:rgb(39.607843%,8.235294%,43.137255%);fill-opacity:1;" d="M 541.433594 214.566406 L 527.066406 214.367188 L 522.28125 214.300781 L 507.914063 214.101563 L 503.128906 214.039063 L 483.972656 213.773438 L 479.1875 213.707031 L 464.820313 213.507813 L 460.035156 213.441406 L 445.667969 213.242188 L 440.882813 213.175781 L 426.515625 212.976563 L 421.730469 212.910156 L 407.363281 212.710938 L 402.578125 212.644531 L 402.597656 217.628906 L 402.796875 222.613281 L 403.175781 227.582031 L 403.730469 232.539063 L 404.464844 237.472656 L 405.375 242.375 L 406.460938 247.238281 L 407.722656 252.0625 L 409.152344 256.839844 L 410.757813 261.5625 L 412.527344 266.222656 L 414.464844 270.816406 L 416.566406 275.339844 L 418.828125 279.78125 L 421.25 284.140625 L 425.390625 281.742188 L 437.824219 274.546875 L 441.96875 272.144531 L 462.691406 260.152344 L 466.835938 257.75 L 483.414063 248.15625 L 487.554688 245.757813 L 491.699219 243.355469 L 512.421875 231.363281 L 516.566406 228.960938 L 537.289063 216.96875 Z M 541.433594 214.566406 "/>
<path style=" stroke:none;fill-rule:nonzero;fill:rgb(28.235294%,4.313725%,41.568627%);fill-opacity:1;" d="M 541.433594 214.566406 L 537.234375 212.261719 L 533.039063 209.957031 L 528.839844 207.652344 L 524.644531 205.347656 L 520.445313 203.042969 L 516.25 200.738281 L 512.050781 198.429688 L 507.855469 196.125 L 503.65625 193.820313 L 499.460938 191.515625 L 495.261719 189.210938 L 491.066406 186.90625 L 486.867188 184.601563 L 482.671875 182.296875 L 478.472656 179.988281 L 474.277344 177.683594 L 470.078125 175.378906 L 465.882813 173.074219 L 461.683594 170.769531 L 457.488281 168.464844 L 453.289063 166.160156 L 449.09375 163.855469 L 444.894531 161.546875 L 440.699219 159.242188 L 436.5 156.9375 L 432.304688 154.632813 L 428.105469 152.328125 L 423.910156 150.023438 L 419.710938 147.71875 L 417.453125 152.003906 L 415.347656 156.367188 L 413.394531 160.796875 L 411.597656 165.296875 L 409.957031 169.855469 L 408.480469 174.46875 L 407.160156 179.128906 L 406.007813 183.835938 L 405.015625 188.574219 L 404.195313 193.351563 L 403.535156 198.148438 L 403.046875 202.96875 L 402.726563 207.800781 L 402.578125 212.644531 L 407.363281 212.710938 L 421.730469 212.910156 L 426.515625 212.976563 L 440.882813 213.175781 L 445.667969 213.242188 L 460.035156 213.441406 L 464.820313 213.507813 L 479.1875 213.707031 L 483.972656 213.773438 L 503.128906 214.039063 L 507.914063 214.101563 L 522.28125 214.300781 L 527.066406 214.367188 Z M 541.433594 214.566406 "/>
<path style=" stroke:none;fill-rule:nonzero;fill:rgb(15.686275%,4.313725%,32.941176%);fill-opacity:1;" d="M 541.433594 214.566406 L 532.046875 203.691406 L 528.921875 200.0625 L 519.535156 189.1875 L 516.410156 185.5625 L 513.28125 181.933594 L 510.152344 178.308594 L 507.027344 174.683594 L 503.898438 171.058594 L 500.769531 167.429688 L 497.640625 163.804688 L 494.515625 160.179688 L 488.257813 152.929688 L 485.128906 149.300781 L 482.003906 145.675781 L 475.746094 138.425781 L 472.617188 134.796875 L 469.492188 131.171875 L 460.105469 120.296875 L 456.980469 116.667969 L 450.722656 109.417969 L 447.03125 112.71875 L 443.457031 116.152344 L 440.011719 119.707031 L 436.691406 123.386719 L 433.503906 127.179688 L 430.457031 131.085938 L 427.550781 135.097656 L 424.789063 139.210938 L 422.175781 143.417969 L 419.710938 147.71875 L 423.910156 150.023438 L 428.105469 152.328125 L 432.304688 154.632813 L 436.5 156.9375 L 440.699219 159.242188 L 444.894531 161.546875 L 449.09375 163.855469 L 453.289063 166.160156 L 457.488281 168.464844 L 461.683594 170.769531 L 465.882813 173.074219 L 470.078125 175.378906 L 474.277344 177.683594 L 478.472656 179.988281 L 482.671875 182.296875 L 486.867188 184.601563 L 491.066406 186.90625 L 495.261719 189.210938 L 499.460938 191.515625 L 503.65625 193.820313 L 507.855469 196.125 L 512.050781 198.429688 L 516.25 200.738281 L 520.445313 203.042969 L 524.644531 205.347656 L 528.839844 207.652344 L 533.039063 209.957031 L 537.234375 212.261719 Z M 541.433594 214.566406 "/>
<path style=" stroke:none;fill-rule:nonzero;fill:rgb(5.098039%,3.137255%,16.470588%);fill-opacity:1;" d="M 541.433594 214.566406 L 539.230469 210.316406 L 537.027344 206.0625 L 534.824219 201.8125 L 532.621094 197.558594 L 530.417969 193.308594 L 528.214844 189.054688 L 523.808594 180.554688 L 521.609375 176.300781 L 519.40625 172.050781 L 517.203125 167.796875 L 515 163.546875 L 512.796875 159.292969 L 510.59375 155.042969 L 508.390625 150.789063 L 506.1875 146.539063 L 503.984375 142.285156 L 501.78125 138.035156 L 499.578125 133.78125 L 497.378906 129.53125 L 495.175781 125.277344 L 492.972656 121.027344 L 490.769531 116.773438 L 488.566406 112.523438 L 486.363281 108.269531 L 484.160156 104.019531 L 481.957031 99.765625 L 479.753906 95.515625 L 477.550781 91.261719 L 472.796875 93.84375 L 468.148438 96.609375 L 463.605469 99.554688 L 459.183594 102.675781 L 454.890625 105.964844 L 450.722656 109.417969 L 456.980469 116.667969 L 460.105469 120.296875 L 469.492188 131.171875 L 472.617188 134.796875 L 475.746094 138.425781 L 482.003906 145.675781 L 485.128906 149.300781 L 488.257813 152.929688 L 494.515625 160.179688 L 497.640625 163.804688 L 500.769531 167.429688 L 503.898438 171.058594 L 507.027344 174.683594 L 510.152344 178.308594 L 513.28125 181.933594 L 516.410156 185.5625 L 519.535156 189.1875 L 528.921875 200.0625 L 532.046875 203.691406 Z M 541.433594 214.566406 "/>
<path style=" stroke:none;fill-rule:nonzero;fill:rgb(0%,0%,1.568627%);fill-opacity:1;" d="M 541.433594 214.566406 L 541.433594 75.699219 L 536.691406 75.78125 L 531.957031 76.023438 L 527.234375 76.425781 L 522.527344 76.992188 L 517.839844 77.71875 L 513.183594 78.601563 L 508.558594 79.644531 L 503.972656 80.847656 L 499.429688 82.203125 L 494.933594 83.714844 L 490.496094 85.378906 L 486.113281 87.191406 L 481.800781 89.15625 L 477.550781 91.261719 L 479.753906 95.515625 L 481.957031 99.765625 L 484.160156 104.019531 L 486.363281 108.269531 L 488.566406 112.523438 L 490.769531 116.773438 L 492.972656 121.027344 L 495.175781 125.277344 L 497.378906 129.53125 L 499.578125 133.78125 L 501.78125 138.035156 L 503.984375 142.285156 L 506.1875 146.539063 L 508.390625 150.789063 L 510.59375 155.042969 L 512.796875 159.292969 L 515 163.546875 L 517.203125 167.796875 L 519.40625 172.050781 L 521.609375 176.300781 L 523.808594 180.554688 L 528.214844 189.054688 L 530.417969 193.308594 L 532.621094 197.558594 L 534.824219 201.8125 L 537.027344 206.0625 L 539.230469 210.316406 Z M 541.433594 214.566406 "/>
</g>
</svg>
